<svg width="18" height="18" viewBox="0 0 18 18" fill="none" xmlns="http://www.w3.org/2000/svg">
<mask id="mask0_2391_11006" style="mask-type:luminance" maskUnits="userSpaceOnUse" x="0" y="-1" width="19" height="19">
<path d="M0 -0.48378H18.9996V17.5668H0V-0.48378Z" fill="white"/>
</mask>
<g mask="url(#mask0_2391_11006)">
<path d="M6.17383 5.73598C6.17383 3.89962 7.66252 2.41093 9.49888 2.41093C11.3352 2.41093 12.8239 3.89962 12.8239 5.73598C12.8239 7.57235 11.3352 9.06104 9.49888 9.06104C7.66252 9.06104 6.17383 7.57235 6.17383 5.73598Z" stroke="#959994" stroke-width="1.5" stroke-miterlimit="10" stroke-linecap="round" stroke-linejoin="round"/>
<path d="M13.2929 9.8143C13.8984 10.0833 14.3828 10.4018 14.75 10.7244C15.3097 11.2162 15.6283 11.9267 15.6283 12.6718V13.6329C15.6283 14.2068 15.1631 14.672 14.5892 14.672H4.40627C3.83241 14.672 3.36719 14.2068 3.36719 13.6329V12.6718C3.36719 11.9267 3.68579 11.2162 4.24555 10.7244C5.19329 9.89169 6.92177 9.06097 9.49775 9.06097" stroke="#959994" stroke-width="1.5" stroke-miterlimit="10" stroke-linecap="round"/>
</g>
</svg>
