<svg width="72" height="72" viewBox="0 0 72 72" fill="none" xmlns="http://www.w3.org/2000/svg">
<path d="M58.1323 66.2703H13.8685C13.6392 66.2703 13.4192 66.1792 13.257 66.017C13.0948 65.8548 13.0037 65.6348 13.0037 65.4054V6.5946C13.0037 6.36522 13.0948 6.14524 13.257 5.98305C13.4192 5.82086 13.6392 5.72974 13.8685 5.72974H58.1323C58.3617 5.72974 58.5817 5.82086 58.7439 5.98305C58.9061 6.14524 58.9972 6.36522 58.9972 6.5946V65.4054C58.9972 65.6348 58.9061 65.8548 58.7439 66.017C58.5817 66.1792 58.3617 66.2703 58.1323 66.2703ZM14.7334 64.5406H57.2674V7.45947H14.7334V64.5406Z" fill="#959994"/>
<path d="M29.9464 24.7567H19.568C19.3386 24.7567 19.1186 24.6655 18.9564 24.5034C18.7942 24.3412 18.7031 24.1212 18.7031 23.8918V13.5134C18.7031 13.284 18.7942 13.0641 18.9564 12.9019C19.1186 12.7397 19.3386 12.6486 19.568 12.6486H29.9464C30.1757 12.6486 30.3957 12.7397 30.5579 12.9019C30.7201 13.0641 30.8112 13.284 30.8112 13.5134V23.8918C30.8112 24.1212 30.7201 24.3412 30.5579 24.5034C30.3957 24.6655 30.1757 24.7567 29.9464 24.7567ZM20.4329 23.0269H29.0815V14.3783H20.4329V23.0269Z" fill="#959994"/>
<path d="M29.9464 42.054H19.568C19.3386 42.054 19.1186 41.9629 18.9564 41.8007C18.7942 41.6385 18.7031 41.4185 18.7031 41.1892V30.8108C18.7031 30.5814 18.7942 30.3614 18.9564 30.1992C19.1186 30.037 19.3386 29.9459 19.568 29.9459H29.9464C30.1757 29.9459 30.3957 30.037 30.5579 30.1992C30.7201 30.3614 30.8112 30.5814 30.8112 30.8108V41.1892C30.8112 41.4185 30.7201 41.6385 30.5579 41.8007C30.3957 41.9629 30.1757 42.054 29.9464 42.054ZM20.4329 40.3243H29.0815V31.6757H20.4329V40.3243Z" fill="#959994"/>
<path d="M29.9464 59.3513H19.568C19.3386 59.3513 19.1186 59.2602 18.9564 59.098C18.7942 58.9358 18.7031 58.7158 18.7031 58.4865V48.1081C18.7031 47.8787 18.7942 47.6587 18.9564 47.4965C19.1186 47.3343 19.3386 47.2432 19.568 47.2432H29.9464C30.1757 47.2432 30.3957 47.3343 30.5579 47.4965C30.7201 47.6587 30.8112 47.8787 30.8112 48.1081V58.4865C30.8112 58.7158 30.7201 58.9358 30.5579 59.098C30.3957 59.2602 30.1757 59.3513 29.9464 59.3513ZM20.4329 57.6216H29.0815V48.973H20.4329V57.6216Z" fill="#959994"/>
<path d="M52.4324 19.5676H34.7026C34.4733 19.5676 34.2533 19.4765 34.0911 19.3143C33.9289 19.1521 33.8378 18.9321 33.8378 18.7028C33.8378 18.4734 33.9289 18.2534 34.0911 18.0912C34.2533 17.929 34.4733 17.8379 34.7026 17.8379H52.4324C52.6617 17.8379 52.8817 17.929 53.0439 18.0912C53.2061 18.2534 53.2972 18.4734 53.2972 18.7028C53.2972 18.9321 53.2061 19.1521 53.0439 19.3143C52.8817 19.4765 52.6617 19.5676 52.4324 19.5676Z" fill="#959994"/>
<path d="M52.4324 36.8649H34.7026C34.4733 36.8649 34.2533 36.7738 34.0911 36.6116C33.9289 36.4494 33.8378 36.2294 33.8378 36.0001C33.8378 35.7707 33.9289 35.5507 34.0911 35.3885C34.2533 35.2263 34.4733 35.1352 34.7026 35.1352H52.4324C52.6617 35.1352 52.8817 35.2263 53.0439 35.3885C53.2061 35.5507 53.2972 35.7707 53.2972 36.0001C53.2972 36.2294 53.2061 36.4494 53.0439 36.6116C52.8817 36.7738 52.6617 36.8649 52.4324 36.8649Z" fill="#959994"/>
<path d="M52.4324 54.1621H34.7026C34.4733 54.1621 34.2533 54.071 34.0911 53.9088C33.9289 53.7466 33.8378 53.5266 33.8378 53.2972C33.8378 53.0679 33.9289 52.8479 34.0911 52.6857C34.2533 52.5235 34.4733 52.4324 34.7026 52.4324H52.4324C52.6617 52.4324 52.8817 52.5235 53.0439 52.6857C53.2061 52.8479 53.2972 53.0679 53.2972 53.2972C53.2972 53.5266 53.2061 53.7466 53.0439 53.9088C52.8817 54.071 52.6617 54.1621 52.4324 54.1621Z" fill="#959994"/>
<path d="M23.8922 21.0984C23.7783 21.099 23.6655 21.0772 23.5601 21.0342C23.4548 20.9911 23.3589 20.9277 23.2781 20.8476L21.9289 19.4984C21.8479 19.418 21.7835 19.3223 21.7396 19.2169C21.6957 19.1115 21.6731 18.9985 21.6731 18.8843C21.6731 18.7701 21.6957 18.6571 21.7396 18.5517C21.7835 18.4463 21.8479 18.3507 21.9289 18.2703C22.091 18.1092 22.3102 18.0188 22.5387 18.0188C22.7671 18.0188 22.9863 18.1092 23.1484 18.2703L23.8922 19.014L26.3484 16.5578C26.5104 16.3968 26.7296 16.3063 26.9581 16.3063C27.1866 16.3063 27.4058 16.3968 27.5678 16.5578C27.6489 16.6382 27.7132 16.7339 27.7572 16.8393C27.8011 16.9447 27.8237 17.0577 27.8237 17.1719C27.8237 17.2861 27.8011 17.3991 27.7572 17.5045C27.7132 17.6099 27.6489 17.7055 27.5678 17.7859L24.5062 20.8476C24.4254 20.9277 24.3296 20.9911 24.2242 21.0342C24.1188 21.0772 24.006 21.099 23.8922 21.0984Z" fill="#959994"/>
<path d="M23.8922 38.3957C23.7783 38.3963 23.6655 38.3745 23.5601 38.3315C23.4548 38.2884 23.3589 38.225 23.2781 38.1449L21.9289 36.7957C21.8479 36.7153 21.7835 36.6196 21.7396 36.5142C21.6957 36.4088 21.6731 36.2958 21.6731 36.1816C21.6731 36.0674 21.6957 35.9544 21.7396 35.849C21.7835 35.7436 21.8479 35.648 21.9289 35.5676C22.091 35.4065 22.3102 35.3161 22.5387 35.3161C22.7671 35.3161 22.9863 35.4065 23.1484 35.5676L23.8922 36.3114L26.3484 33.8551C26.5104 33.6941 26.7296 33.6036 26.9581 33.6036C27.1866 33.6036 27.4058 33.6941 27.5678 33.8551C27.6489 33.9355 27.7132 34.0312 27.7572 34.1366C27.8011 34.242 27.8237 34.355 27.8237 34.4692C27.8237 34.5834 27.8011 34.6964 27.7572 34.8018C27.7132 34.9072 27.6489 35.0028 27.5678 35.0832L24.5062 38.1449C24.4254 38.225 24.3296 38.2884 24.2242 38.3315C24.1188 38.3745 24.006 38.3963 23.8922 38.3957Z" fill="#959994"/>
<path d="M23.8922 55.693C23.7783 55.6937 23.6655 55.6719 23.5601 55.6288C23.4548 55.5858 23.3589 55.5224 23.2781 55.4422L21.9289 54.093C21.8479 54.0126 21.7835 53.917 21.7396 53.8116C21.6957 53.7062 21.6731 53.5932 21.6731 53.479C21.6731 53.3648 21.6957 53.2518 21.7396 53.1464C21.7835 53.041 21.8479 52.9453 21.9289 52.8649C22.091 52.7038 22.3102 52.6134 22.5387 52.6134C22.7671 52.6134 22.9863 52.7038 23.1484 52.8649L23.8922 53.6087L26.3484 51.1525C26.5104 50.9914 26.7296 50.901 26.9581 50.901C27.1866 50.901 27.4058 50.9914 27.5678 51.1525C27.6489 51.2329 27.7132 51.3286 27.7572 51.4339C27.8011 51.5393 27.8237 51.6524 27.8237 51.7666C27.8237 51.8807 27.8011 51.9938 27.7572 52.0992C27.7132 52.2046 27.6489 52.3002 27.5678 52.3806L24.5062 55.4422C24.4254 55.5224 24.3296 55.5858 24.2242 55.6288C24.1188 55.6719 24.006 55.6937 23.8922 55.693Z" fill="#959994"/>
</svg>
