<svg width="72" height="72" viewBox="0 0 72 72" fill="none" xmlns="http://www.w3.org/2000/svg">
<g clip-path="url(#clip0_1458_1088)">
<path d="M54.4735 44.3246C48.5882 44.3246 43.8174 49.0954 43.8174 54.9807C43.8174 60.8659 48.5882 65.6367 54.4735 65.6367C60.3587 65.6367 65.1295 60.8659 65.1295 54.9807C65.1224 49.0982 60.3559 44.3317 54.4735 44.3246ZM54.4735 63.6993C49.6582 63.6993 45.7548 59.7959 45.7548 54.9807C45.7548 50.1654 49.6582 46.2621 54.4735 46.2621C59.2887 46.2621 63.1921 50.1654 63.1921 54.9807C63.1868 59.7936 59.2864 63.694 54.4735 63.6993Z" fill="#959994"/>
<path d="M27.3487 44.3246H18.6301V34.0697L21.488 36.9271C21.8678 37.2947 22.4723 37.289 22.846 36.9153C23.2197 36.5421 23.2249 35.9376 22.8579 35.5578L18.3462 31.0461C17.9678 30.6682 17.3548 30.6682 16.9764 31.0461L12.4653 35.5578C12.0982 35.9376 12.1034 36.5421 12.4771 36.9153C12.8508 37.289 13.4548 37.2947 13.8351 36.9271L16.6926 34.0697V44.3246H7.97398C7.439 44.3246 7.00525 44.7584 7.00525 45.2933V64.668C7.00525 65.203 7.439 65.6367 7.97398 65.6367H27.3487C27.8836 65.6367 28.3174 65.203 28.3174 64.668V45.2933C28.3174 44.7584 27.8836 44.3246 27.3487 44.3246ZM26.3799 63.6993H8.94272V46.2621H26.3799V63.6993Z" fill="#959994"/>
<path d="M36.1159 12.9723C35.8723 12.7207 35.5124 12.6199 35.1737 12.7084C34.835 12.7968 34.5706 13.0617 34.4817 13.4004C34.3932 13.7391 34.494 14.099 34.7461 14.3422L37.6036 17.2001H28.2681C27.7502 11.5273 22.8621 7.26446 17.1712 7.52367C11.4804 7.78288 7 12.4723 7 18.1689C7 23.8654 11.4804 28.5548 17.1712 28.814C22.8621 29.0733 27.7502 24.8105 28.2681 19.1376H37.6036L34.7461 21.9955C34.494 22.2387 34.3932 22.5986 34.4817 22.9373C34.5706 23.276 34.835 23.5404 35.1737 23.6293C35.5124 23.7178 35.8723 23.617 36.1159 23.3649L40.6271 18.8538C41.0055 18.4754 41.0055 17.8623 40.6271 17.4839L36.1159 12.9723ZM17.6613 26.8875C12.846 26.8875 8.94267 22.9841 8.94267 18.1689C8.94267 13.3536 12.846 9.45026 17.6613 9.45026C22.4766 9.45026 26.3799 13.3536 26.3799 18.1689C26.3747 22.9818 22.4742 26.8823 17.6613 26.8875Z" fill="#959994"/>
<path d="M65.6451 17.419L55.0856 8.79738C54.7289 8.50553 54.2162 8.50553 53.8595 8.79738L43.3004 17.419C43.0753 17.603 42.9447 17.8783 42.9447 18.1687C42.9447 18.4592 43.0753 18.7345 43.3004 18.9185L53.5047 27.2497V39.0798L50.6473 36.2218C50.267 35.8547 49.6629 35.86 49.2892 36.2336C48.9156 36.6073 48.9104 37.2118 49.2774 37.5917L53.7886 42.1033C54.167 42.4812 54.78 42.4812 55.1584 42.1033L59.67 37.5917C60.0371 37.2118 60.0319 36.6073 59.6582 36.2336C59.2845 35.86 58.68 35.8547 58.3002 36.2218L55.4422 39.0798V27.2497L65.6451 18.9185C65.8698 18.7345 66.0004 18.4592 66.0004 18.1687C66.0004 17.8783 65.8698 17.603 65.6451 17.419ZM54.4735 25.5388L45.4469 18.1687L54.4735 10.7987L63.5 18.1687L54.4735 25.5388Z" fill="#959994"/>
</g>
<defs>
<clipPath id="clip0_1458_1088">
<rect width="59" height="59" fill="white" transform="translate(7 7)"/>
</clipPath>
</defs>
</svg>
