<svg width="71" height="71" viewBox="0 0 71 71" fill="none" xmlns="http://www.w3.org/2000/svg">
<g clip-path="url(#clip0_1170_1385)">
<path d="M10.8369 54.0975L8.62102 48.2782L7.25309 42.0062L6.79057 35.503L7.24919 28.9977L8.61311 22.7277L10.825 16.9064M0.648875 29.2626L0.101318 35.503V35.5484M40.8772 70.6244L41.32 70.5414L42.2411 70.2904L45.2398 69.4997L46.157 69.2625L47.007 69.1024L47.4972 68.9363L49.7329 67.9144L52.0615 66.849L52.6941 66.5604L53.0756 66.3864M58.1281 8.11224L57.6754 7.79795L53.0618 4.60562L52.3817 4.37831L51.168 4.1589L50.7984 3.981L47.6 2.43722L46.1412 1.73155L44.9552 1.58725L44.5163 1.46667L42.6246 0.948785L40.3751 0.330089L40.2526 0.298461M70.364 41.7295L70.3739 41.6385L70.9096 35.4911V35.4634L70.3719 29.3357V29.312V29.2428L70.3581 29.1934L68.7668 23.2634L68.749 23.2002L68.7055 23.1073L66.4283 18.2328L66.1081 17.5469L65.0861 17.3136L65.0268 17.2267L61.5913 12.198L59.8123 11.945L57.2207 11.7137L53.886 11.5161L49.9088 11.348L45.4158 11.2235L40.5629 11.1464L35.5242 11.1227L30.4855 11.1504L25.6327 11.2294L21.1377 11.3579M35.5381 70.9031V35.4871V28.7665V22.3067V16.353V6.77403V3.44729V0.0988159H35.3147H34.4548L33.4052 0.124514L31.3415 1.2354L31.2802 1.26901L29.3272 1.3461L26.3028 3.64694L23.7331 3.79124L20.2244 7.17332L17.1407 11.522L14.6006 16.7147L12.7069 22.5815L11.5387 28.9167L11.1433 35.4931L11.5387 42.0694L12.7109 48.4047L14.6105 54.2714L17.1525 59.4661L20.2402 63.8148L23.7469 67.2147L23.8299 67.2661L27.5501 69.5432L29.3015 69.646L31.2545 69.7211L33.3498 69.7665L35.5144 69.7824L37.6888 69.7665L39.7821 69.7191L41.834 67.4558L44.718 67.3491L47.4854 63.9887L50.8102 63.8247L53.8959 59.476L56.438 54.2813L58.3317 48.4126L59.5019 42.0872L59.8972 35.5089L59.5019 28.9325L58.3277 22.6072L56.4281 16.7424L53.8821 11.5497L50.7944 7.20099L47.4696 7.03693L43.7296 6.91438L39.6971 6.83926L35.5183 6.81356L31.3375 6.84124L27.305 6.92031L23.5631 7.04484L20.2382 7.21088L17.4372 7.40854L13.8178 11.7572L11.2263 11.9924L9.44728 12.2474L6.01571 17.2781L5.9564 17.365L3.37083 23.0776L1.78945 29.2053L1.25574 35.5306L1.79341 41.856L3.38666 47.9836L5.94255 53.6725L7.91927 53.8939L10.831 54.0915L13.8079 59.2625L17.1427 59.4602L21.1238 59.6262L25.6169 59.7488L30.4717 59.8239L35.5104 59.8496L40.5471 59.8199L45.4 59.7429L49.8931 59.6163L53.8722 59.4464L57.205 59.2487L60.17 54.0738L63.0798 53.8761L65.0565 53.6547L67.642 47.9402L69.2234 41.8125L69.7591 35.4871L69.2195 29.1618L67.6381 23.0341L65.0486 17.3235L63.0719 17.1002L60.1621 16.9025L56.3965 16.7206L51.8836 16.5704L46.7718 16.4597L41.237 16.3905L35.4886 16.3688L29.7423 16.3945L24.2075 16.4676L19.0937 16.5823L14.5788 16.7345L10.8112 16.9203M10.8231 54.1113L14.5927 54.2912L19.1076 54.4394L24.2213 54.5482L29.7561 54.6154L35.5045 54.6371L41.2528 54.6114L46.7876 54.5403L51.9014 54.4276L56.4143 54.2774L60.17 54.0935M70.3462 29.3535V29.3081L69.2373 29.1657L67.0313 29.0768L63.7499 28.9938L59.4723 28.9187L54.3189 28.8594L48.4599 28.8159L42.1067 28.7882H35.4985L28.8904 28.8001L22.5371 28.8297L16.6782 28.8791L11.5228 28.9424L7.24127 29.0175L3.95791 29.1045L1.74795 29.1954L0.64096 29.2903M68.7194 23.2259L67.646 23.0499L65.523 22.8839L62.382 22.7277L58.2981 22.5913L53.3879 22.4787L47.8155 22.3957L41.7746 22.3443L35.4966 22.3284L29.2165 22.3482L23.1776 22.4036L17.6013 22.4905L12.6911 22.6072L8.60519 22.7475L5.46222 22.9037L3.33526 23.0737L2.25796 23.2476M2.25796 47.8117L3.33724 47.9817L5.46222 48.1457L8.60519 48.2979L12.6911 48.4304L17.6032 48.5411L23.1776 48.6221L29.2185 48.6715L35.4985 48.6873L41.7766 48.6676L47.8155 48.6142L53.3899 48.5272L58.2981 48.4146L62.382 48.2782L65.523 48.124L67.646 47.9579L68.7214 47.788M38.6277 70.8201L38.8451 70.7371L41.6363 69.6697L41.7272 69.6361L43.4766 69.5313L47.1988 67.2502L47.2818 67.2008L49.4562 67.0269L53.5856 63.6132L55.7778 63.3839L59.7964 59.0214L61.5755 58.7703L65.0071 53.7377L65.0664 53.6527L66.0884 53.4215M66.0765 17.5528L65.9856 17.4263L63.4949 13.8821L62.5065 12.4688L62.3524 12.3166L60.1344 10.1146L58.1281 8.11224L57.2979 7.84934L55.7718 7.5983L55.6651 7.51924L51.168 4.1589L49.4463 3.96123L47.2719 3.78728L47.1889 3.73589L43.4647 1.46074L41.7153 1.35796L41.6244 1.32237L38.8352 0.262883L38.6158 0.177882L37.6275 0.138352M31.4996 0.235207L30.7405 0.30044L28.3685 0.952739L26.2178 1.54574L26.0379 1.59516L25.9767 1.62876L21.6615 3.91181L21.5488 3.97111L19.8271 4.16878L15.334 7.52912L15.2252 7.60819L13.6972 7.8612L9.42358 12.2237L8.4787 12.4866M39.5113 70.7727L40.7625 70.3773L43.1346 69.6361L43.4667 69.5313L44.9591 69.4048L45.0204 69.3732L49.3396 67.0862L49.4523 67.0269L51.172 66.8292L55.6671 63.4689L55.7738 63.3898L57.2998 63.1407L61.5755 58.7763L62.5184 58.5153M60.176 54.0856L62.3978 48.2584L63.7617 41.9864L64.2223 35.4812L63.7578 28.9799L62.3899 22.708L60.172 16.8886L57.1951 11.7197L53.5717 7.37099L49.4305 3.96123L49.3178 3.89995L45.0046 1.62283L44.9374 1.58725L43.445 1.46074L43.1089 1.35598L40.7369 0.62066L39.4796 0.225326L38.598 0.171952M30.7267 0.29451L30.1179 0.371597L26.6211 1.27494L25.099 1.67027L24.8401 1.73748L23.3852 2.44117L19.9773 4.09169L19.8231 4.1668L18.6074 4.38621L17.4214 5.2263L13.8494 7.75446L13.6992 7.8612L12.869 8.1241M40.2684 70.7015L42.6404 70.0492L44.5421 69.5254L44.9749 69.4048L46.161 69.2605L47.6139 68.5568L50.8142 67.0051L51.1799 66.8272L52.3956 66.6217L53.5816 65.7796L57.1595 63.2495L57.3078 63.1447L58.138 62.8838M62.5105 12.4787L61.5676 12.2138L57.288 7.86515L57.1377 7.75841L53.5678 5.23816L52.3718 4.39412L51.6128 4.04227L46.9813 1.90747L46.5524 1.80073L45.8942 1.63469L45.4375 1.51807L42.2234 0.727398L40.8515 0.391365L40.2407 0.316251L39.4836 0.249045M30.1219 0.395316L29.6791 0.480318L26.793 1.19389L25.0832 1.62678L24.4229 1.7948L23.994 1.90154L23.5018 2.07153L18.8822 4.22413L18.6074 4.39214L17.9255 4.62144M17.9472 66.4022L18.6292 66.6296L18.9079 66.7976L23.5354 68.9423L24.0276 69.1083L24.8796 69.2684L25.1346 69.3337L25.7968 69.5036L28.7994 70.2943L29.7166 70.5434L30.1574 70.6264M53.0637 4.60562L52.6683 4.4297L52.105 4.17274L49.7329 3.08754L47.4854 2.06165L46.9932 1.89166L46.1432 1.73155L45.2161 1.49435L42.2352 0.703679L41.3042 0.452641L40.8633 0.367646M70.9096 35.5128V35.4852L70.3699 29.3397L70.36 29.2448M37.6452 70.8596L39.7149 69.7448L39.7742 69.7132L41.7272 69.6361L44.7101 67.3431L47.2798 67.2008L50.7905 63.8148L53.5895 63.6171L57.2089 59.2586L59.8004 59.0253L63.0501 53.9453L63.0936 53.8781L65.5368 48.1082L67.0431 41.9133L67.5491 35.4931L67.0392 29.0649L65.5309 22.8661L63.0818 17.0982L63.0383 17.029L59.7865 11.9529L55.7639 7.60423L53.5816 7.36506L50.7826 7.16739L47.2561 3.78333L44.6864 3.64101L41.7015 1.354L39.7485 1.27691L39.6892 1.24528L37.6196 0.134401L36.5699 0.110675H35.7081H35.4847H35.4728M0.652832 41.7492L1.75982 41.8402L3.96978 41.9251L7.25309 42.0062L11.5347 42.0754L16.69 42.1327L22.549 42.1742L28.9022 42.1999H35.5124L42.1206 42.188L48.4718 42.1584L54.3308 42.111L59.4841 42.0517L63.7617 41.9785L67.0431 41.8955L69.2491 41.8085L70.3581 41.6721V41.6267M21.1119 11.356L19.1076 16.5684L17.6052 22.4708L16.6861 28.8673L16.3737 35.503L16.69 42.1406L17.6191 48.5292L19.1214 54.4335L21.1297 59.646L23.5611 63.9947L27.303 64.1152L31.3355 64.1884L35.5163 64.2141L39.6971 64.1864L43.7276 64.1093L47.4676 63.9848L49.899 59.6361L51.9073 54.4217L53.4057 48.5154L54.3308 42.111L54.6431 35.4753L54.3268 28.8376L53.3958 22.451L51.8935 16.5487L49.8832 11.3382L47.4478 6.98949L44.6804 3.62915L41.7964 3.52241L39.7445 1.27691L37.6512 1.23145L35.4768 1.21564L33.3123 1.23145L31.217 1.28087L29.1691 3.5402L27.2912 6.88275L25.6149 11.2314L24.2312 16.4577L23.1954 22.3877L22.547 28.8099L22.3316 35.4931L22.551 42.1742L23.1954 48.6023L24.2371 54.5323L25.6209 59.7587L27.3011 64.1073L29.2027 67.4519L32.3022 67.5151L35.5144 67.5369L38.7246 67.5131L41.8241 67.4479L43.7256 64.1014L45.4039 59.7527L46.7876 54.5244L47.8254 48.5944L48.4659 42.1663L48.6813 35.4832L48.4619 28.802L47.8175 22.3759L46.7758 16.4459L45.3921 11.2215L43.7099 6.87286L41.8062 3.53032L38.7048 3.46706L35.4946 3.44532L32.2844 3.46904L29.1849 3.53625L26.2989 3.64299L23.5433 7.00332L21.1139 11.352L17.1348 11.524L13.7981 11.7216L10.833 16.8946L7.91927 17.116L5.94255 17.3413L4.91664 17.5746L4.6043 18.2466L2.30935 23.1349L2.26582 23.2278L2.254 23.2753L0.662726 29.2211L0.648875 29.2705L0.633046 29.3654L0.101318 35.4654V35.5109L0.642939 41.682V41.7492L0.65679 41.7967L2.25202 47.7464L2.26384 47.7919L2.30737 47.8809L4.6043 52.785L4.91664 53.4511L5.0036 53.5756L7.5081 57.1336L8.49646 58.5312L8.64669 58.6794L10.8844 60.8893L12.8907 62.8818L13.126 63.0459L14.6876 64.1251L17.9571 66.3884L18.3366 66.5624L18.9177 66.7837L19.3902 66.9616L24.0276 69.1004L24.4487 69.2071L25.1168 69.389L25.5457 69.4977L28.7915 70.3002L30.1495 70.6323L30.7603 70.7074L31.5174 70.7727L32.401 70.826L33.3894 70.8656L34.437 70.8893L35.1526 70.8992H35.5203H36.5976L37.6809 69.7744L38.7265 67.529L39.6971 64.1943L40.553 59.8456L41.2627 54.6114L41.7924 48.6616L42.1166 42.196L42.2253 35.4852L42.1107 28.7744L41.7786 22.3245L41.2449 16.3767L40.5333 11.1444L39.6714 6.79577L38.6988 3.46509L37.6531 1.22552L36.5679 0.104746H35.4966H35.4708H34.4014L33.3222 1.22552L32.2784 3.46706L31.3118 6.79775L30.4559 11.1464L29.7502 16.3787L29.2205 22.3265L28.8943 28.7783L28.7856 35.4871L28.8982 42.2078L29.2304 48.6597L29.7621 54.6094L30.4737 59.8437L31.3316 64.1923L32.3002 67.527L33.3459 69.7705L34.4252 70.8952H35.5005H35.8682L36.5857 70.8853L37.6334 70.8596L38.6218 70.8201L39.5054 70.7667L40.2625 70.7015L40.8713 70.6244L42.2352 70.2904L45.477 69.4878L45.9099 69.3771L46.582 69.2071L47.0031 69.1004L51.6444 66.9577L52.3956 66.6217L53.0756 66.3943L57.6932 63.1941L58.1399 62.8838L60.1522 60.8814L62.3761 58.6695L62.5283 58.5193L63.5166 57.1119L66.0132 53.5539L66.1002 53.4274L66.4184 52.7474L68.6956 47.865L68.7391 47.7741L68.755 47.7128L70.3363 41.7828L70.3502 41.7354V41.6721V41.6445L70.8859 35.5168V35.503H69.7729H28.7895H22.3296H16.3737H11.1354H6.78661H3.45581H1.2182H0.101318V35.5267L0.638982 41.6543L0.650854 41.6978V41.7433M12.8789 62.8937L13.7111 63.1546L13.8593 63.2593L17.4431 65.7915L18.6292 66.6276L19.8449 66.843L19.9971 66.9162L23.4207 68.5707L24.8697 69.2724L26.0557 69.4167L26.2336 69.4641L28.3922 70.0571L30.7643 70.7055M8.49053 58.5292L9.43541 58.7901L13.7131 63.1506L15.2411 63.3977L15.3478 63.4768L19.8449 66.8371L21.5666 67.0348L21.6773 67.0941L26.0004 69.389L26.0577 69.4206L27.5501 69.5452L27.6786 69.5847L30.2662 70.3773L31.5155 70.7727M4.91664 53.4432L5.94057 53.6725L5.99988 53.7595L9.43541 58.7901L11.2145 59.0392L15.2351 63.3878L17.4293 63.6151L21.5587 67.0368L23.7331 67.2087L26.3028 67.3491L29.2837 69.64L29.3727 69.6736L32.1658 70.741L32.3812 70.8221M33.338 0.136373L32.3496 0.175909L32.1302 0.258926L29.343 1.32237L29.2521 1.35796L27.5007 1.46272L23.7825 3.73984L23.6995 3.79124L21.5251 3.96518L17.4076 7.37692L15.2134 7.60819L11.1967 11.9687L7.94891 17.0468L7.90542 17.116L5.46222 22.8839L3.96582 29.0847L3.45977 35.5049L3.96582 41.9251L5.47404 48.126L7.91927 53.8939L7.96276 53.9611L11.2145 59.0392L13.8079 59.2684L17.4293 63.6171L20.2303 63.8148L23.5552 63.9789L26.3226 67.3392L29.2066 67.444L31.2565 69.7053L31.3158 69.7369L33.3835 70.8517M32.3773 0.166022L31.4937 0.221368L30.2385 0.616705L27.6569 1.41726L27.5284 1.45877L26.0359 1.58527L24.8499 1.73155L23.998 1.89166L21.0329 3.26544L18.8941 4.21424L18.3228 4.43365L17.9274 4.61155L14.652 6.88077L13.1022 7.9541L12.865 8.12014L10.8528 10.1205L8.62894 12.3324L8.47672 12.4827L7.48836 13.8861L4.99173 17.4441L4.90081 17.5706" stroke="#959994" stroke-width="0.396609" stroke-linecap="round" stroke-linejoin="round"/>
<path d="M7.36522 30.0118C7.87832 30.0118 8.29428 29.5959 8.29428 29.0828C8.29428 28.5697 7.87832 28.1537 7.36522 28.1537C6.85211 28.1537 6.43616 28.5697 6.43616 29.0828C6.43616 29.5959 6.85211 30.0118 7.36522 30.0118Z" fill="#959994"/>
<g opacity="0.6">
<path d="M7.36541 30.5495C8.17546 30.5495 8.83214 29.8928 8.83214 29.0828C8.83214 28.2727 8.17546 27.6161 7.36541 27.6161C6.55536 27.6161 5.89868 28.2727 5.89868 29.0828C5.89868 29.8928 6.55536 30.5495 7.36541 30.5495Z" stroke="#959994" stroke-width="0.396609" stroke-miterlimit="10"/>
</g>
<g opacity="0.3">
<path d="M7.36549 31.3125C8.59694 31.3125 9.59523 30.3142 9.59523 29.0828C9.59523 27.8514 8.59694 26.8531 7.36549 26.8531C6.13403 26.8531 5.13574 27.8514 5.13574 29.0828C5.13574 30.3142 6.13403 31.3125 7.36549 31.3125Z" stroke="#959994" stroke-width="0.396609" stroke-miterlimit="10"/>
</g>
<path d="M29.145 23.7912C29.9059 23.7912 30.5228 23.1743 30.5228 22.4134C30.5228 21.6525 29.9059 21.0357 29.145 21.0357C28.3841 21.0357 27.7672 21.6525 27.7672 22.4134C27.7672 23.1743 28.3841 23.7912 29.145 23.7912Z" fill="#959994"/>
<g opacity="0.6">
<path d="M29.1451 24.5878C30.346 24.5878 31.3195 23.6143 31.3195 22.4135C31.3195 21.2126 30.346 20.2391 29.1451 20.2391C27.9442 20.2391 26.9707 21.2126 26.9707 22.4135C26.9707 23.6143 27.9442 24.5878 29.1451 24.5878Z" stroke="#959994" stroke-width="0.396609" stroke-miterlimit="10"/>
</g>
<g opacity="0.3">
<path d="M29.145 25.7164C30.9693 25.7164 32.4481 24.2376 32.4481 22.4134C32.4481 20.5892 30.9693 19.1104 29.145 19.1104C27.3208 19.1104 25.8419 20.5892 25.8419 22.4134C25.8419 24.2376 27.3208 25.7164 29.145 25.7164Z" stroke="#959994" stroke-width="0.396609" stroke-miterlimit="10"/>
</g>
<path d="M48.3663 43.8089C49.196 43.8089 49.8686 43.1363 49.8686 42.3067C49.8686 41.477 49.196 40.8044 48.3663 40.8044C47.5366 40.8044 46.864 41.477 46.864 42.3067C46.864 43.1363 47.5366 43.8089 48.3663 43.8089Z" fill="#959994"/>
<g opacity="0.6">
<path d="M48.3672 44.6807C49.6784 44.6807 50.7413 43.6178 50.7413 42.3067C50.7413 40.9956 49.6784 39.9327 48.3672 39.9327C47.0561 39.9327 45.9932 40.9956 45.9932 42.3067C45.9932 43.6178 47.0561 44.6807 48.3672 44.6807Z" stroke="#959994" stroke-width="0.396609" stroke-miterlimit="10"/>
</g>
<g opacity="0.3">
<path d="M48.3669 45.9121C50.3582 45.9121 51.9724 44.2979 51.9724 42.3067C51.9724 40.3154 50.3582 38.7012 48.3669 38.7012C46.3756 38.7012 44.7614 40.3154 44.7614 42.3067C44.7614 44.2979 46.3756 45.9121 48.3669 45.9121Z" stroke="#959994" stroke-width="0.396609" stroke-miterlimit="10"/>
</g>
<path d="M64.1156 36.4004C64.5446 36.4004 64.8924 36.0526 64.8924 35.6236C64.8924 35.1945 64.5446 34.8467 64.1156 34.8467C63.6866 34.8467 63.3387 35.1945 63.3387 35.6236C63.3387 36.0526 63.6866 36.4004 64.1156 36.4004Z" fill="#959994"/>
<g opacity="0.6">
<path d="M64.1154 36.8511C64.7933 36.8511 65.3429 36.3015 65.3429 35.6236C65.3429 34.9456 64.7933 34.3961 64.1154 34.3961C63.4374 34.3961 62.8878 34.9456 62.8878 35.6236C62.8878 36.3015 63.4374 36.8511 64.1154 36.8511Z" stroke="#959994" stroke-width="0.396609" stroke-miterlimit="10"/>
</g>
<g opacity="0.3">
<path d="M64.1153 37.4895C65.1459 37.4895 65.9813 36.6541 65.9813 35.6235C65.9813 34.593 65.1459 33.7576 64.1153 33.7576C63.0847 33.7576 62.2493 34.593 62.2493 35.6235C62.2493 36.6541 63.0847 37.4895 64.1153 37.4895Z" stroke="#959994" stroke-width="0.396609" stroke-miterlimit="10"/>
</g>
<path d="M24.1279 55.7026C24.6956 55.7026 25.1558 55.2424 25.1558 54.6747C25.1558 54.107 24.6956 53.6469 24.1279 53.6469C23.5602 53.6469 23.1 54.107 23.1 54.6747C23.1 55.2424 23.5602 55.7026 24.1279 55.7026Z" fill="#959994"/>
<g opacity="0.6">
<path d="M24.128 56.2956C25.0232 56.2956 25.7489 55.5699 25.7489 54.6747C25.7489 53.7795 25.0232 53.0538 24.128 53.0538C23.2328 53.0538 22.5071 53.7795 22.5071 54.6747C22.5071 55.5699 23.2328 56.2956 24.128 56.2956Z" stroke="#959994" stroke-width="0.396609" stroke-miterlimit="10"/>
</g>
<g opacity="0.3">
<path d="M24.1282 57.1396C25.4896 57.1396 26.5932 56.036 26.5932 54.6747C26.5932 53.3134 25.4896 52.2098 24.1282 52.2098C22.7668 52.2098 21.6632 53.3134 21.6632 54.6747C21.6632 56.036 22.7668 57.1396 24.1282 57.1396Z" stroke="#959994" stroke-width="0.396609" stroke-miterlimit="10"/>
</g>
<path d="M56.4273 17.7703C56.9873 17.7703 57.4413 17.3163 57.4413 16.7562C57.4413 16.1962 56.9873 15.7422 56.4273 15.7422C55.8672 15.7422 55.4132 16.1962 55.4132 16.7562C55.4132 17.3163 55.8672 17.7703 56.4273 17.7703Z" fill="#959994"/>
<g opacity="0.6">
<path d="M56.4277 18.3573C57.312 18.3573 58.0288 17.6405 58.0288 16.7562C58.0288 15.8719 57.312 15.1551 56.4277 15.1551C55.5434 15.1551 54.8265 15.8719 54.8265 16.7562C54.8265 17.6405 55.5434 18.3573 56.4277 18.3573Z" stroke="#959994" stroke-width="0.396609" stroke-miterlimit="10"/>
</g>
<g opacity="0.3">
<path d="M56.4276 19.1875C57.7704 19.1875 58.859 18.099 58.859 16.7562C58.859 15.4134 57.7704 14.3249 56.4276 14.3249C55.0848 14.3249 53.9962 15.4134 53.9962 16.7562C53.9962 18.099 55.0848 19.1875 56.4276 19.1875Z" stroke="#959994" stroke-width="0.396609" stroke-miterlimit="10"/>
</g>
</g>
<defs>
<clipPath id="clip0_1170_1385">
<rect width="71" height="71" fill="white"/>
</clipPath>
</defs>
</svg>
