<svg width="72" height="72" viewBox="0 0 72 72" fill="none" xmlns="http://www.w3.org/2000/svg">
<path d="M28.3957 23.7894C27.9931 22.9805 27.3724 22.3002 26.6035 21.8255C25.8347 21.3508 24.9485 21.1004 24.0449 21.1028C22.754 21.1042 21.5164 21.6178 20.6036 22.5307C19.6909 23.4437 19.1776 24.6814 19.1765 25.9724V50.0439H22.3917V25.9735C22.392 25.5351 22.5662 25.1147 22.8762 24.8047C23.1862 24.4947 23.6065 24.3205 24.0449 24.3202C24.3518 24.3192 24.6528 24.404 24.914 24.5651C25.1752 24.7261 25.3862 24.957 25.5231 25.2316L36.3543 46.8287H32.7595L27.1111 35.5745H23.5142L30.7745 50.0407H41.5643L28.3957 23.7894Z" fill="#959994"/>
<path d="M48.7577 21.1028V45.1754C48.7571 45.6136 48.5827 46.0337 48.2727 46.3435C47.9628 46.6532 47.5426 46.8273 47.1044 46.8276C46.7975 46.8286 46.4965 46.7438 46.2353 46.5827C45.9741 46.4217 45.7631 46.1908 45.6262 45.9162L34.7983 24.3191H38.3877L44.0349 35.5734H47.633L40.3716 21.1071H29.5818L42.7493 47.3617C43.1516 48.1708 43.7723 48.8513 44.5411 49.3261C45.31 49.8009 46.1964 50.051 47.1001 50.0483C48.3908 50.0468 49.6283 49.5335 50.541 48.6208C51.4537 47.708 51.9671 46.4706 51.9685 45.1798V21.1071L48.7577 21.1028Z" fill="#959994"/>
<path d="M35.5736 66.9291C52.891 66.9291 66.9294 52.8907 66.9294 35.5733C66.9294 18.256 52.891 4.21753 35.5736 4.21753C18.2563 4.21753 4.21783 18.256 4.21783 35.5733C4.21783 52.8907 18.2563 66.9291 35.5736 66.9291Z" stroke="#959994" stroke-width="1.5" stroke-miterlimit="10"/>
<path d="M54.6218 54.6204C65.1414 44.1009 65.1414 27.0453 54.6218 16.5257C44.1023 6.00614 27.0467 6.00614 16.5271 16.5257C6.00756 27.0453 6.00756 44.1009 16.5271 54.6204C27.0467 65.14 44.1023 65.14 54.6218 54.6204Z" stroke="#959994" stroke-width="1.10345" stroke-miterlimit="10" stroke-dasharray="25.05 3.16"/>
</svg>
