<svg width="72" height="72" viewBox="0 0 72 72" fill="none" xmlns="http://www.w3.org/2000/svg">
<g clip-path="url(#clip0_1458_1054)">
<g clip-path="url(#clip1_1458_1054)">
<path d="M67.4881 37.792L67.4791 37.7986L67.4703 37.8056L67.0139 38.1703L65.9897 38.852L64.802 39.5366L63.4557 40.2182L61.9571 40.8908L60.3148 41.5498L58.5366 42.1906L56.6351 42.8081L54.6213 43.3961L52.5089 43.9507L50.3121 44.4676L49.8158 44.5717L55.352 26.687L56.494 26.7271L57.6936 26.8047L57.6936 26.8048L57.7038 26.8052L58.0615 26.821L58.429 26.8531L59.1609 26.9291L59.1717 26.9302L59.1826 26.9309L59.5599 26.9536L60.9728 27.1224L62.3091 27.3301L63.5538 27.5755L64.6997 27.8588L65.7399 28.179L66.6655 28.5361L67.4619 28.9225L67.9657 29.1937L68.6643 29.6365L69.1948 30.0815L69.6067 30.5767L69.9896 31.0481L70.2564 31.5775L70.4385 32.1803L70.5533 32.7285L70.5128 33.3291L70.4551 33.942L70.2553 34.5607L69.9551 35.128L69.8971 35.2148L69.8846 35.2333L69.8739 35.2529L69.5972 35.7588L69.0468 36.4371L68.3477 37.1084L67.8967 37.4767L67.5912 37.717L67.4881 37.792Z" stroke="#959994"/>
<path d="M5.10311 44.9723L5.09178 44.9675L5.08023 44.9632L4.91261 44.9014L4.59306 44.7697L4.03358 44.5244L3.1582 44.0565L2.47965 43.5811L1.93797 43.0547L1.51728 42.6084L1.15013 42.0687L0.928927 41.4924L0.721104 40.9285L0.674244 40.3543L0.686729 39.7433L0.792866 39.163L1.28685 38.0196L1.70172 37.4061L2.23275 36.8148L2.63516 36.4271L3.30441 35.8287L4.08691 35.241L4.98939 34.6554L6.00516 34.0756L7.12738 33.5049L8.34803 32.9443L9.66484 32.3958L9.99898 32.2805L10.0087 32.2771L10.0183 32.2734L11.0621 31.8644L11.3818 31.7589L11.3818 31.759L11.3922 31.7553L12.5317 31.351L12.8374 31.2554L12.8374 31.2554L12.8417 31.2541L14.0661 30.8592L14.3529 30.7715L15.9329 30.3053L17.5616 29.8632L19.2306 29.4459L20.9498 29.0519L21.3512 28.9674L15.8008 46.7966L14.8913 46.7614L13.0026 46.6268L11.2388 46.4377L9.60918 46.196L8.12194 45.9048L6.78518 45.5665L5.60202 45.1847L5.10311 44.9723Z" stroke="#959994"/>
<path d="M54.2522 7.68493C55.8992 8.00529 56.6894 10.0305 56.011 12.2076L39.9089 64.3443C39.2356 66.5215 37.3561 68.0278 35.7091 67.7074L13.6421 63.4134C11.9964 63.093 11.2061 61.0678 11.8833 58.8907L27.9866 6.75401C28.6587 4.57558 30.5394 3.07052 32.1864 3.39088L54.2522 7.68493Z" stroke="#959994" stroke-width="0.376891" stroke-miterlimit="10"/>
<path d="M54.2526 7.68493C55.8996 8.00529 56.6898 10.0305 56.0114 12.2076L39.9094 64.3443C39.236 66.5215 37.3566 68.0278 35.7095 67.7074L13.6425 63.4134C11.9968 63.093 11.2066 61.0678 11.8837 58.8907L27.987 6.75401C28.6592 4.57558 30.5398 3.07052 32.1869 3.39088L54.2526 7.68493Z" stroke="#959994" stroke-width="1.08696" stroke-miterlimit="10"/>
<path d="M16.983 64.9058L39.0551 69.196C40.7021 69.5164 42.5815 68.0101 43.2549 65.8329L59.3569 13.6963C59.9612 11.7427 59.3871 9.91101 58.0717 9.32431L54.7312 7.83182C54.5775 7.76319 54.4165 7.71219 54.2513 7.67981" stroke="#959994" stroke-width="1.08696" stroke-miterlimit="10"/>
<path d="M16.5033 64.7549L13.1628 63.2625C13.3165 63.3307 13.4775 63.3813 13.6427 63.4132L16.9832 64.9057C16.8181 64.8737 16.6571 64.8232 16.5033 64.7549V64.7549Z" stroke="#959994" stroke-width="1.08696" stroke-miterlimit="10"/>
<path d="M42.9287 9.92492C43.44 10.0242 43.6825 10.6536 43.4764 11.327L40.6296 20.547C40.4211 21.2216 39.8369 21.689 39.3256 21.5897L28.6156 19.508C28.1055 19.4088 27.8618 18.7794 28.0691 18.1047L30.9109 8.88595C31.1194 8.21257 31.7036 7.74397 32.2137 7.84322L42.9287 9.92492ZM40.4487 20.5118L43.2968 11.2943C43.4651 10.7503 43.2666 10.244 42.8558 10.1636L32.1458 8.08192C31.735 8.00151 31.2664 8.37841 31.0968 8.92113L28.2488 18.1399C28.0817 18.6826 28.2789 19.1902 28.6897 19.2706L39.3997 21.3523C39.8105 21.4314 40.2791 21.0545 40.4487 20.5118Z" fill="#959994"/>
<path d="M40.4487 20.5118L43.2968 11.2943C43.4651 10.7503 43.2666 10.244 42.8558 10.1636L32.1458 8.08192C31.735 8.00151 31.2664 8.37841 31.0968 8.92113L28.2488 18.1399C28.0817 18.6826 28.2789 19.1902 28.6897 19.2706L39.3997 21.3523C39.8105 21.4314 40.2791 21.0545 40.4487 20.5118M42.9287 9.92492C43.44 10.0242 43.6825 10.6536 43.4764 11.327L40.6296 20.547C40.4211 21.2216 39.8369 21.689 39.3256 21.5897L28.6156 19.508C28.1055 19.4088 27.8618 18.7794 28.0691 18.1047L30.9109 8.88595C31.1194 8.21257 31.7036 7.74397 32.2137 7.84322L42.9287 9.92492Z" stroke="#959994" stroke-width="0.5"/>
<path d="M51.6481 11.6435C52.0174 11.7151 52.1958 12.1712 52.045 12.6611L48.9495 22.6814C48.7988 23.1714 48.3741 23.5106 48.0048 23.4352L43.2471 22.5105C42.8778 22.4389 42.6994 21.9816 42.8501 21.4929L45.9457 11.4714C46.0964 10.9827 46.5211 10.6422 46.8904 10.7176L51.6481 11.6435ZM48.7699 22.6462L51.8641 12.6259C51.9747 12.2691 51.8453 11.935 51.5739 11.8822L46.8163 10.9576C46.5462 10.9048 46.2359 11.1535 46.1253 11.5103L43.0311 21.5306C42.9205 21.8887 43.0499 22.2228 43.32 22.2756L48.0789 23.2003C48.349 23.253 48.6593 23.0043 48.7699 22.6462Z" fill="#959994"/>
<path d="M48.7699 22.6462L51.8641 12.6259C51.9747 12.2691 51.8453 11.935 51.5739 11.8822L46.8163 10.9576C46.5462 10.9048 46.2359 11.1535 46.1253 11.5103L43.0311 21.5306C42.9205 21.8887 43.0499 22.2228 43.32 22.2756L48.0789 23.2003C48.349 23.253 48.6593 23.0043 48.7699 22.6462M51.6481 11.6435C52.0174 11.7151 52.1958 12.1712 52.045 12.6611L48.9495 22.6814C48.7988 23.1714 48.3741 23.5106 48.0048 23.4352L43.2471 22.5105C42.8778 22.4389 42.6994 21.9816 42.8501 21.4929L45.9457 11.4714C46.0964 10.9827 46.5211 10.6422 46.8904 10.7176L51.6481 11.6435Z" stroke="#959994" stroke-width="0.5"/>
<path d="M39.3645 48.4143C40.0819 48.5537 40.4273 49.4382 40.1346 50.3867L36.6006 61.8253C36.3142 62.7738 35.4863 63.4309 34.7689 63.2927L16.8854 59.8165C16.1681 59.677 15.8226 58.7914 16.1153 57.8441L19.6493 46.4042C19.942 45.4569 20.7637 44.7986 21.481 44.9381L39.3645 48.4143ZM36.421 61.7901L39.9575 50.3515C40.2087 49.5349 39.9123 48.7723 39.2954 48.653L21.4069 45.1755C20.79 45.0499 20.0815 45.6228 19.829 46.4394L16.2962 57.8793C16.045 58.6959 16.3415 59.4572 16.9583 59.5778L34.8431 63.054C35.4599 63.1796 36.1685 62.6067 36.421 61.7901Z" fill="#959994" stroke="#959994" stroke-width="0.5"/>
<path d="M46.9138 25.7055C47.4792 25.8148 47.7518 26.5133 47.5206 27.2621L45.645 33.335C45.4138 34.0825 44.7656 34.6026 44.199 34.4921L25.2577 30.8099C24.6911 30.6993 24.4184 30.0008 24.6496 29.252L26.514 23.1803C26.7451 22.4265 27.3934 21.9115 27.96 22.022L46.9138 25.7055ZM45.4641 33.2999L47.3397 27.2269C47.5307 26.61 47.3071 26.0346 46.8372 25.9429L27.8959 22.2607C27.4286 22.169 26.8909 22.5987 26.7037 23.2155L24.828 29.2872C24.637 29.9041 24.8619 30.4795 25.3305 30.5699L44.2794 34.2534C44.7455 34.3438 45.2844 33.9167 45.4703 33.2999" fill="#959994"/>
<path d="M45.4641 33.2999L47.3397 27.2269C47.5307 26.61 47.3071 26.0346 46.8372 25.9429L27.8959 22.2607C27.4286 22.169 26.8909 22.5987 26.7037 23.2155L24.828 29.2872C24.637 29.9041 24.8619 30.4795 25.3305 30.5699L44.2794 34.2534C44.7455 34.3438 45.2844 33.9167 45.4703 33.2999M46.9138 25.7055C47.4792 25.8148 47.7518 26.5133 47.5206 27.2621L45.645 33.335C45.4138 34.0825 44.7656 34.6026 44.199 34.4921L25.2577 30.8099C24.6911 30.6993 24.4184 30.0008 24.6496 29.252L26.514 23.1803C26.7451 22.4265 27.3934 21.9115 27.96 22.022L46.9138 25.7055Z" stroke="#959994" stroke-width="0.5"/>
<path d="M43.3465 36.6984C43.9118 36.8077 44.1844 37.5062 43.9533 38.255L42.0776 44.328C41.8464 45.0755 41.1982 45.5956 40.6316 45.485L21.6903 41.8028C21.1237 41.6922 20.8511 40.9937 21.0822 40.245L22.9466 34.1732C23.1777 33.4195 23.826 32.9044 24.3926 33.0149L43.3465 36.6984ZM41.8967 44.2928L43.7723 38.2198C43.9633 37.603 43.7397 37.0276 43.2698 36.9359L24.3285 33.2536C23.8612 33.1619 23.3235 33.5916 23.1363 34.2084L21.2606 40.2801C21.0697 40.897 21.2945 41.4724 21.7631 41.5628L40.712 45.2463C41.1781 45.3368 41.717 44.9096 41.903 44.2928" fill="#959994"/>
<path d="M41.8967 44.2928L43.7723 38.2198C43.9633 37.603 43.7397 37.0276 43.2698 36.9359L24.3285 33.2536C23.8612 33.1619 23.3235 33.5916 23.1363 34.2084L21.2606 40.2801C21.0697 40.897 21.2945 41.4724 21.7631 41.5628L40.712 45.2463C41.1781 45.3368 41.717 44.9096 41.903 44.2928M43.3465 36.6984C43.9118 36.8077 44.1844 37.5062 43.9533 38.255L42.0776 44.328C41.8464 45.0755 41.1982 45.5956 40.6316 45.485L21.6903 41.8028C21.1237 41.6922 20.8511 40.9937 21.0822 40.245L22.9466 34.1732C23.1777 33.4195 23.826 32.9044 24.3926 33.0149L43.3465 36.6984Z" stroke="#959994" stroke-width="0.5"/>
<path d="M38.6644 63.0265L54.1622 12.8547C54.7602 10.9199 54.0579 9.12092 52.5943 8.83448L32.9859 5.02537C31.5236 4.74018 29.8527 6.07815 29.2547 8.01286L13.7569 58.1859C13.1602 60.1194 13.8624 61.9184 15.3248 62.2061L34.9319 66.0139C36.3968 66.2991 38.0727 64.9612 38.6644 63.0265Z" stroke="#959994" stroke-width="0.543478" stroke-miterlimit="10"/>
<path d="M34.4397 9.91231C33.8367 9.79548 33.1469 10.3483 32.9007 11.1447L30.6946 18.2856L31.4132 18.4301L33.6218 11.2942C33.706 11.0241 33.9397 10.837 34.1445 10.8759C34.2185 10.8943 34.284 10.9378 34.3298 10.9989C34.3756 11.06 34.3988 11.135 34.3957 11.2113L34.8467 18.0909L34.0402 17.9338L33.8002 14.3433L32.9937 14.1838L33.2977 18.7956L35.7174 19.2668L35.1696 10.9035C35.1344 10.3759 34.8555 9.99774 34.4397 9.91231Z" fill="url(#paint0_linear_1458_1054)"/>
<path d="M39.9847 10.9952L37.7799 18.1361C37.6958 18.4062 37.4621 18.5946 37.2573 18.5544C37.1832 18.536 37.1178 18.4925 37.072 18.4314C37.0262 18.3703 37.0029 18.2953 37.006 18.219L36.5538 11.3395L37.3616 11.4965L37.5965 15.082L38.4043 15.239L38.1003 10.6297L35.6857 10.1636L36.2334 18.5268C36.2686 19.0544 36.5475 19.4326 36.9633 19.513C37.5664 19.6311 38.2561 19.0771 38.5023 18.2818L40.7109 11.1347L39.9847 10.9952Z" fill="url(#paint1_linear_1458_1054)"/>
</g>
</g>
<defs>
<linearGradient id="paint0_linear_1458_1054" x1="33.0351" y1="19.557" x2="35.8631" y2="6.71125" gradientUnits="userSpaceOnUse">
<stop stop-color="#F7F9F6" stop-opacity="0"/>
<stop offset="1" stop-color="#959994" stop-opacity="0.7"/>
</linearGradient>
<linearGradient id="paint1_linear_1458_1054" x1="36.0864" y1="20.2291" x2="38.9144" y2="7.38212" gradientUnits="userSpaceOnUse">
<stop stop-color="#F7F9F6" stop-opacity="0"/>
<stop offset="1" stop-color="#959994" stop-opacity="0.7"/>
</linearGradient>
<clipPath id="clip0_1458_1054">
<rect width="72" height="72" fill="white"/>
</clipPath>
<clipPath id="clip1_1458_1054">
<rect width="77.1739" height="75" fill="white" transform="translate(-3.08698 -1)"/>
</clipPath>
</defs>
</svg>
