<svg width="72" height="72" viewBox="0 0 72 72" fill="none" xmlns="http://www.w3.org/2000/svg">
<g clip-path="url(#clip0_1458_1017)">
<path d="M37.6943 52.8423H34.3052C33.2858 52.8423 32.3954 52.1533 32.1401 51.1662L31.2109 47.5606L28.0055 49.4526C27.1262 49.9701 26.0093 49.8285 25.2885 49.107L22.8925 46.711C22.1716 45.9902 22.0294 44.8736 22.546 43.9949L24.4386 40.7886L20.8342 39.8597C19.8465 39.6041 19.1575 38.7135 19.1575 37.694V34.3052C19.1575 33.2857 19.8465 32.3951 20.8336 32.1398L24.4389 31.2105L22.5469 28.0052C22.0294 27.1255 22.1716 26.0087 22.8928 25.2882L25.2888 22.8921C26.0093 22.1713 27.1265 22.0291 28.0052 22.5462L31.2112 24.4385L32.1401 20.8342C32.3957 19.8465 33.286 19.1574 34.3055 19.1574H37.6946C38.7141 19.1574 39.6044 19.8465 39.8598 20.8336L40.789 24.4388L43.9943 22.5468C44.8734 22.03 45.9905 22.1716 46.7113 22.8921L49.1074 25.2888C49.8288 26.0096 49.971 27.1267 49.453 28.0052L47.561 31.2108L51.1656 32.1398C51.1659 32.1398 51.1662 32.1401 51.1665 32.1401C52.1533 32.3954 52.8427 33.286 52.8427 34.3055V37.6943C52.8427 38.7138 52.1536 39.6044 51.1665 39.8597L47.561 40.7889L49.453 43.9943C49.9707 44.8733 49.8285 45.9905 49.1074 46.7113L46.7113 49.1073C45.9899 49.8288 44.8734 49.9698 43.9949 49.4532L40.789 47.5609L39.8601 51.1656C39.6041 52.1533 38.7138 52.8423 37.6943 52.8423ZM31.6835 45.6781C31.7797 45.6781 31.8762 45.6968 31.9676 45.7345C32.1832 45.8239 32.3441 46.0092 32.4023 46.2351L33.5773 50.7951C33.6631 51.1261 33.9626 51.358 34.3052 51.358H37.6943C38.0369 51.358 38.3365 51.1261 38.4226 50.7942L39.5973 46.2351C39.6555 46.0092 39.8164 45.8239 40.0319 45.7345C40.2475 45.6452 40.4924 45.6624 40.6934 45.7809L44.7484 48.1746C45.0435 48.3485 45.4193 48.3007 45.6616 48.0576L48.0577 45.6618C48.2999 45.4193 48.3483 45.0434 48.174 44.748L45.7809 40.6936C45.6625 40.4926 45.6453 40.248 45.7346 40.0322C45.824 39.8166 46.0092 39.6557 46.2351 39.5975L50.7948 38.4225C51.1259 38.3367 51.3577 38.0372 51.3577 37.6943V34.3055C51.3577 33.9629 51.1262 33.6633 50.7948 33.5772L46.2351 32.4022C46.0092 32.344 45.824 32.1831 45.7346 31.9676C45.6453 31.7517 45.6625 31.5071 45.7809 31.3061L48.1743 27.2511C48.3483 26.9563 48.3005 26.5808 48.0577 26.3385L45.6616 23.9418C45.419 23.6993 45.042 23.6515 44.7478 23.8255L40.6934 26.2189C40.4927 26.337 40.2478 26.3551 40.0319 26.2652C39.8164 26.1758 39.6555 25.9906 39.5973 25.7647L38.4223 21.205C38.3365 20.8739 38.0369 20.6421 37.6943 20.6421H34.3052C33.9626 20.6421 33.6631 20.8739 33.577 21.2058L32.4023 25.7647C32.3441 25.9906 32.1832 26.1758 31.9676 26.2652C31.7518 26.3546 31.5066 26.3367 31.3062 26.2189L27.2512 23.8252C26.9558 23.6512 26.5802 23.6996 26.338 23.9418L23.9419 26.3382C23.6994 26.5805 23.6513 26.9563 23.8252 27.252L26.2186 31.3061C26.3371 31.5071 26.3543 31.7517 26.265 31.9676C26.1756 32.1831 25.9903 32.344 25.7644 32.4022L21.2047 33.5772C20.8737 33.663 20.6418 33.9626 20.6418 34.3055V37.6943C20.6418 38.0372 20.8737 38.3367 21.2056 38.4228L25.7644 39.5975C25.9903 39.6557 26.1756 39.8166 26.265 40.0322C26.3543 40.248 26.3371 40.4926 26.2186 40.6936L23.8249 44.7486C23.6516 45.0434 23.6994 45.4193 23.9419 45.6618L26.338 48.0579C26.5802 48.3001 26.9564 48.3476 27.2518 48.1743L31.3062 45.7809C31.422 45.7129 31.5526 45.6781 31.6835 45.6781Z" fill="#959994"/>
<path d="M34.9309 10.2512C35.2868 10.2366 35.6437 10.2271 35.9993 10.2271C48.0088 10.2271 58.5927 18.7273 61.1651 30.4387C61.2411 30.7854 61.5481 31.022 61.8892 31.022C61.9418 31.022 61.9952 31.0161 62.0489 31.0042C62.4494 30.9164 62.7026 30.5206 62.6145 30.1201C61.3035 24.1509 57.9556 18.7264 53.1875 14.8462C48.3511 10.9102 42.2465 8.74246 35.9993 8.74246C35.7366 8.74246 35.4727 8.75256 35.2093 8.76028L39.248 4.72159C39.5381 4.43184 39.5381 3.96189 39.248 3.67214C38.958 3.38239 38.4883 3.38209 38.1986 3.67214L32.7503 9.12009C32.6111 9.25932 32.533 9.44784 32.533 9.64496C32.533 9.84209 32.6114 10.0306 32.7503 10.1698L38.1986 15.6178C38.3435 15.7627 38.5335 15.8351 38.7235 15.8351C38.9135 15.8351 39.1032 15.7627 39.2483 15.6178C39.5384 15.3277 39.5384 14.8578 39.2483 14.5683L34.9309 10.2512Z" fill="#959994"/>
<path d="M33.7995 56.528C33.5094 56.238 33.0397 56.238 32.75 56.528C32.4602 56.8181 32.46 57.288 32.75 57.5775L36.9104 61.7376C36.6061 61.7483 36.3018 61.7584 35.9987 61.7584C23.9076 61.7584 13.5799 53.5394 10.8834 41.7716C10.7919 41.372 10.395 41.1223 9.99423 41.214C9.59464 41.3055 9.34497 41.7036 9.4367 42.1032C10.7913 48.0163 14.1529 53.3824 18.902 57.2132C23.7217 61.1014 29.7937 63.2428 35.9987 63.2428C36.3158 63.2428 36.6343 63.2321 36.9529 63.2211L32.75 67.4237C32.46 67.7134 32.46 68.1834 32.75 68.4731C32.8949 68.618 33.0849 68.6904 33.2749 68.6904C33.4649 68.6904 33.6546 68.618 33.7998 68.4731L39.248 63.0252C39.3872 62.8859 39.4653 62.6974 39.4653 62.5003C39.4653 62.3032 39.3869 62.1146 39.248 61.9754L33.7995 56.528Z" fill="#959994"/>
<path d="M10.096 39.3215L15.5439 33.8736C15.834 33.5835 15.834 33.1139 15.5439 32.8241C15.2539 32.5344 14.7842 32.5341 14.4945 32.8241L10.2587 37.0599C10.2441 36.7043 10.2334 36.348 10.2334 35.993C10.2334 23.9737 18.7419 13.388 30.4646 10.823C30.8651 10.7354 31.1186 10.3397 31.031 9.93922C30.9434 9.53874 30.548 9.28699 30.1472 9.37278C24.1726 10.6802 18.7434 14.0269 14.859 18.7962C10.9189 23.6344 8.74876 29.7414 8.74876 35.993C8.74876 36.3106 8.76034 36.6295 8.77132 36.9477L4.64743 32.8241C4.35738 32.5341 3.88773 32.5341 3.59798 32.8241C3.30823 33.1142 3.30793 33.5841 3.59798 33.8736L9.04623 39.3215C9.1911 39.4664 9.3811 39.5388 9.5711 39.5388C9.7611 39.5388 9.9511 39.4667 10.096 39.3215Z" fill="#959994"/>
<path d="M68.3997 38.2721L62.9514 32.8241C62.6614 32.5341 62.1917 32.5341 61.902 32.8241L56.454 38.2721C56.164 38.5621 56.164 39.0318 56.454 39.3215C56.7441 39.6113 57.2137 39.6116 57.5035 39.3215L61.7443 35.0806C61.755 35.3849 61.7645 35.6895 61.7645 35.9929C61.7645 48.0119 53.2561 58.5976 41.5334 61.1626C41.1329 61.2502 40.8794 61.6459 40.9669 62.0464C41.0429 62.3934 41.3502 62.6304 41.6913 62.6304C41.7439 62.6304 41.797 62.6244 41.8504 62.6128C47.8251 61.3054 53.2543 57.9587 57.1386 53.1894C61.0787 48.3513 63.2489 42.2442 63.2489 35.9929C63.2489 35.7302 63.2391 35.4666 63.2314 35.2033L67.3499 39.3215C67.4948 39.4664 67.6848 39.5388 67.8748 39.5388C68.0648 39.5388 68.2545 39.4664 68.3997 39.3215C68.6894 39.0318 68.6894 38.5618 68.3997 38.2721Z" fill="#959994"/>
<path d="M33.5146 42.7133C33.8052 42.7133 34.0813 42.5411 34.2003 42.2558L39.1682 30.314C39.3256 29.9358 39.1466 29.5012 38.7678 29.3435C38.3898 29.1865 37.9552 29.3652 37.7973 29.744L32.8294 41.6858C32.672 42.064 32.851 42.4986 33.2298 42.6563C33.3228 42.6949 33.4196 42.7133 33.5146 42.7133Z" fill="#959994"/>
<path d="M45.2188 36.5249C45.5089 36.2349 45.5089 35.7652 45.2188 35.4755L41.3241 31.5808C41.0341 31.2907 40.5644 31.2907 40.2747 31.5808C39.9849 31.8708 39.9846 32.3405 40.2747 32.6302L43.6445 36L40.2744 39.3702C39.9843 39.6602 39.9843 40.1299 40.2744 40.4196C40.4192 40.5645 40.6092 40.6369 40.7992 40.6369C40.9892 40.6369 41.1789 40.5645 41.3241 40.4196L45.2188 36.5249Z" fill="#959994"/>
<path d="M26.7787 35.4752C26.4886 35.7652 26.4886 36.2349 26.7787 36.5246L30.6734 40.4193C30.8183 40.5642 31.0083 40.6366 31.1983 40.6366C31.3883 40.6366 31.578 40.5642 31.7231 40.4193C32.0132 40.1293 32.0132 39.6596 31.7231 39.3699L28.353 36L31.7231 32.6299C32.0132 32.3399 32.0132 31.8702 31.7231 31.5805C31.4331 31.2907 30.9634 31.2904 30.6737 31.5805L26.7787 35.4752Z" fill="#959994"/>
</g>
<defs>
<clipPath id="clip0_1458_1017">
<rect width="72" height="72" fill="white"/>
</clipPath>
</defs>
</svg>
