<svg width="40" height="40" viewBox="0 0 40 40" fill="none" xmlns="http://www.w3.org/2000/svg">
<path d="M36.875 1.875H3.125C2.6279 1.87558 2.15132 2.07331 1.79981 2.42481C1.44831 2.77632 1.25058 3.2529 1.25 3.75V36.25C1.25058 36.7471 1.44831 37.2237 1.79981 37.5752C2.15132 37.9267 2.6279 38.1244 3.125 38.125H36.875C37.3721 38.1244 37.8487 37.9267 38.2002 37.5752C38.5517 37.2237 38.7494 36.7471 38.75 36.25V3.75C38.7494 3.2529 38.5517 2.77632 38.2002 2.42481C37.8487 2.07331 37.3721 1.87558 36.875 1.875ZM3.125 3.125H36.875C37.0407 3.12519 37.1996 3.19109 37.3167 3.30826C37.4339 3.42543 37.4998 3.5843 37.5 3.75V6.875H2.5V3.75C2.50019 3.5843 2.56609 3.42543 2.68326 3.30826C2.80043 3.19109 2.9593 3.12519 3.125 3.125ZM36.875 36.875H3.125C2.9593 36.8748 2.80043 36.8089 2.68326 36.6917C2.56609 36.5746 2.50019 36.4157 2.5 36.25V8.125H37.5V36.25C37.4998 36.4157 37.4339 36.5746 37.3167 36.6917C37.1996 36.8089 37.0407 36.8748 36.875 36.875Z" fill="#04DE00"/>
<path d="M9.375 5.625C9.72018 5.625 10 5.34518 10 5C10 4.65482 9.72018 4.375 9.375 4.375C9.02982 4.375 8.75 4.65482 8.75 5C8.75 5.34518 9.02982 5.625 9.375 5.625Z" fill="#04DE00"/>
<path d="M6.875 5.625C7.22018 5.625 7.5 5.34518 7.5 5C7.5 4.65482 7.22018 4.375 6.875 4.375C6.52982 4.375 6.25 4.65482 6.25 5C6.25 5.34518 6.52982 5.625 6.875 5.625Z" fill="#04DE00"/>
<path d="M4.375 5.625C4.72018 5.625 5 5.34518 5 5C5 4.65482 4.72018 4.375 4.375 4.375C4.02982 4.375 3.75 4.65482 3.75 5C3.75 5.34518 4.02982 5.625 4.375 5.625Z" fill="#04DE00"/>
<path d="M16.875 11.875H23.125C23.2908 11.875 23.4497 11.8092 23.5669 11.6919C23.6842 11.5747 23.75 11.4158 23.75 11.25C23.75 11.0842 23.6842 10.9253 23.5669 10.8081C23.4497 10.6908 23.2908 10.625 23.125 10.625H16.875C16.7092 10.625 16.5503 10.6908 16.4331 10.8081C16.3158 10.9253 16.25 11.0842 16.25 11.25C16.25 11.4158 16.3158 11.5747 16.4331 11.6919C16.5503 11.8092 16.7092 11.875 16.875 11.875Z" fill="#04DE00"/>
<path d="M27.5 13.125H12.5C12.3342 13.125 12.1753 13.1908 12.0581 13.3081C11.9408 13.4253 11.875 13.5842 11.875 13.75V16.25C11.875 16.4158 11.9408 16.5747 12.0581 16.6919C12.1753 16.8092 12.3342 16.875 12.5 16.875H27.5C27.6658 16.875 27.8247 16.8092 27.9419 16.6919C28.0592 16.5747 28.125 16.4158 28.125 16.25V13.75C28.125 13.5842 28.0592 13.4253 27.9419 13.3081C27.8247 13.1908 27.6658 13.125 27.5 13.125ZM26.875 15.625H13.125V14.375H26.875V15.625Z" fill="#04DE00"/>
<path d="M27.5 18.125H12.5C12.3342 18.125 12.1753 18.1908 12.0581 18.3081C11.9408 18.4253 11.875 18.5842 11.875 18.75V21.25C11.875 21.4158 11.9408 21.5747 12.0581 21.6919C12.1753 21.8092 12.3342 21.875 12.5 21.875H27.5C27.6658 21.875 27.8247 21.8092 27.9419 21.6919C28.0592 21.5747 28.125 21.4158 28.125 21.25V18.75C28.125 18.5842 28.0592 18.4253 27.9419 18.3081C27.8247 18.1908 27.6658 18.125 27.5 18.125ZM26.875 20.625H13.125V19.375H26.875V20.625Z" fill="#04DE00"/>
<path d="M27.5 23.125H12.5C12.3342 23.125 12.1753 23.1908 12.0581 23.3081C11.9408 23.4253 11.875 23.5842 11.875 23.75V28.75C11.875 28.9158 11.9408 29.0747 12.0581 29.1919C12.1753 29.3092 12.3342 29.375 12.5 29.375H27.5C27.6658 29.375 27.8247 29.3092 27.9419 29.1919C28.0592 29.0747 28.125 28.9158 28.125 28.75V23.75C28.125 23.5842 28.0592 23.4253 27.9419 23.3081C27.8247 23.1908 27.6658 23.125 27.5 23.125ZM26.875 28.125H13.125V24.375H26.875V28.125Z" fill="#04DE00"/>
<path d="M21.25 30.625H18.75C18.2527 30.625 17.7758 30.8225 17.4242 31.1742C17.0725 31.5258 16.875 32.0027 16.875 32.5C16.875 32.9973 17.0725 33.4742 17.4242 33.8258C17.7758 34.1775 18.2527 34.375 18.75 34.375H21.25C21.7473 34.375 22.2242 34.1775 22.5758 33.8258C22.9275 33.4742 23.125 32.9973 23.125 32.5C23.125 32.0027 22.9275 31.5258 22.5758 31.1742C22.2242 30.8225 21.7473 30.625 21.25 30.625ZM21.25 33.125H18.75C18.5842 33.125 18.4253 33.0592 18.3081 32.9419C18.1908 32.8247 18.125 32.6658 18.125 32.5C18.125 32.3342 18.1908 32.1753 18.3081 32.0581C18.4253 31.9408 18.5842 31.875 18.75 31.875H21.25C21.4158 31.875 21.5747 31.9408 21.6919 32.0581C21.8092 32.1753 21.875 32.3342 21.875 32.5C21.875 32.6658 21.8092 32.8247 21.6919 32.9419C21.5747 33.0592 21.4158 33.125 21.25 33.125Z" fill="#04DE00"/>
</svg>
