<svg width="40" height="40" viewBox="0 0 40 40" fill="none" xmlns="http://www.w3.org/2000/svg">
<path d="M37.59 17.3356C37.2966 16.995 36.9331 16.7216 36.5245 16.5343C36.1158 16.3469 35.6715 16.25 35.2219 16.25H35V13.125C34.9991 12.4049 34.7499 11.7071 34.2945 11.1492C33.8392 10.5914 33.2054 10.2076 32.5 10.0625V4.375C32.5 4.20924 32.4341 4.05027 32.3169 3.93306C32.1997 3.81585 32.0408 3.75 31.875 3.75H30V1.875C30 1.70924 29.9341 1.55027 29.8169 1.43306C29.6997 1.31585 29.5408 1.25 29.375 1.25H8.125C7.95924 1.25 7.80027 1.31585 7.68306 1.43306C7.56585 1.55027 7.5 1.70924 7.5 1.875V6.3125C6.79463 6.45756 6.16084 6.84136 5.70545 7.39922C5.25006 7.95707 5.00091 8.65487 5 9.375V10H4.375C3.5465 10.001 2.75222 10.3306 2.16639 10.9164C1.58055 11.5022 1.25099 12.2965 1.25 13.125V38.125C1.27003 38.2674 1.31963 38.4041 1.39563 38.5262C1.45431 38.5963 1.52765 38.6527 1.61047 38.6913C1.6933 38.73 1.7836 38.75 1.875 38.75H32.2219C32.9681 38.7551 33.6912 38.4909 34.2584 38.0058C34.8255 37.5207 35.1987 36.8474 35.3094 36.1094L38.3125 19.8388C38.3792 19.3941 38.3492 18.9403 38.2245 18.5083C38.0999 18.0763 37.8834 17.6763 37.59 17.3356ZM33.75 13.125V16.25H32.5V11.365C32.8643 11.4938 33.1799 11.732 33.4037 12.0471C33.6274 12.3621 33.7484 12.7386 33.75 13.125ZM31.25 16.25H11.25V5H31.25V16.25ZM8.75 2.5H28.75V3.75H10.625C10.4592 3.75 10.3003 3.81585 10.1831 3.93306C10.0658 4.05027 10 4.20924 10 4.375V16.25H8.75V2.5ZM2.5 13.125C2.5 12.6277 2.69754 12.1508 3.04917 11.7992C3.40081 11.4475 3.87772 11.25 4.375 11.25H5.625C5.79076 11.25 5.94973 11.1842 6.06694 11.0669C6.18415 10.9497 6.25 10.7908 6.25 10.625V9.375C6.2516 8.98859 6.37255 8.61211 6.5963 8.29706C6.82006 7.98202 7.13568 7.7438 7.5 7.615V16.275C6.80435 16.3297 6.14771 16.6183 5.63702 17.0939C5.12632 17.5694 4.79165 18.2038 4.6875 18.8937L2.5 31.1019V13.125ZM37.08 19.6325L34.0762 35.9031C34.0073 36.3462 33.7829 36.7503 33.443 37.0429C33.1032 37.3356 32.6703 37.4976 32.2219 37.5H2.625L5.92375 19.0969C5.99267 18.6538 6.21715 18.2497 6.55696 17.9571C6.89677 17.6644 7.32969 17.5024 7.77812 17.5H35.2219C35.4899 17.4999 35.7549 17.5572 35.9989 17.6682C36.2429 17.7791 36.4603 17.9411 36.6364 18.1432C36.8125 18.3453 36.9432 18.5828 37.0197 18.8398C37.0963 19.0967 37.1168 19.367 37.08 19.6325Z" fill="#828282"/>
<path d="M29.375 8.75H13.125C12.9592 8.75 12.8003 8.81585 12.6831 8.93306C12.5658 9.05027 12.5 9.20924 12.5 9.375C12.5 9.54076 12.5658 9.69973 12.6831 9.81694C12.8003 9.93415 12.9592 10 13.125 10H29.375C29.5408 10 29.6997 9.93415 29.8169 9.81694C29.9342 9.69973 30 9.54076 30 9.375C30 9.20924 29.9342 9.05027 29.8169 8.93306C29.6997 8.81585 29.5408 8.75 29.375 8.75Z" fill="#828282"/>
<path d="M13.125 6.25C12.9592 6.25 12.8003 6.31585 12.6831 6.43306C12.5658 6.55027 12.5 6.70924 12.5 6.875C12.5 7.04076 12.5658 7.19973 12.6831 7.31694C12.8003 7.43415 12.9592 7.5 13.125 7.5H29.375C29.5408 7.5 29.6997 7.43415 29.8169 7.31694C29.9342 7.19973 30 7.04076 30 6.875C30 6.70924 29.9342 6.55027 29.8169 6.43306C29.6997 6.31585 29.5408 6.25 29.375 6.25H13.125Z" fill="#828282"/>
<path d="M29.375 11.25H13.125C12.9592 11.25 12.8003 11.3158 12.6831 11.4331C12.5658 11.5503 12.5 11.7092 12.5 11.875C12.5 12.0408 12.5658 12.1997 12.6831 12.3169C12.8003 12.4342 12.9592 12.5 13.125 12.5H29.375C29.5408 12.5 29.6997 12.4342 29.8169 12.3169C29.9342 12.1997 30 12.0408 30 11.875C30 11.7092 29.9342 11.5503 29.8169 11.4331C29.6997 11.3158 29.5408 11.25 29.375 11.25Z" fill="#828282"/>
<path d="M29.375 13.75H13.125C12.9592 13.75 12.8003 13.8158 12.6831 13.9331C12.5658 14.0503 12.5 14.2092 12.5 14.375C12.5 14.5408 12.5658 14.6997 12.6831 14.8169C12.8003 14.9342 12.9592 15 13.125 15H29.375C29.5408 15 29.6997 14.9342 29.8169 14.8169C29.9342 14.6997 30 14.5408 30 14.375C30 14.2092 29.9342 14.0503 29.8169 13.9331C29.6997 13.8158 29.5408 13.75 29.375 13.75Z" fill="#828282"/>
</svg>
