<svg width="70" height="70" viewBox="0 0 70 70" fill="none" xmlns="http://www.w3.org/2000/svg">
<circle cx="35.8526" cy="11.3526" r="6.54006" stroke="#03A600" stroke-width="2.625"/>
<circle cx="60.981" cy="20.7754" r="6.54006" transform="rotate(-90 60.981 20.7754)" stroke="#03A600" stroke-width="2.625"/>
<circle cx="35.8526" cy="55.8101" r="6.54006" stroke="#03A600" stroke-width="2.625"/>
<path d="M35.8521 39.6221L49.3826 39.6221C55.7878 39.6221 60.9803 34.4296 60.9803 28.0244L60.9803 27.058" stroke="#03A600" stroke-width="2.625"/>
<line x1="36.3521" y1="49.8906" x2="36.3521" y2="18.9636" stroke="#03A600" stroke-width="2.625"/>
<circle cx="17.5" cy="33.25" r="14.4375" transform="rotate(-90 17.5 33.25)" stroke="#03A600" stroke-width="2.625"/>
<path d="M23.6305 28.1493L16.0582 38.1772L11.5087 33.3436C11.4408 33.2715 11.3471 33.2292 11.2481 33.2262C11.1491 33.2232 11.0529 33.2597 10.9808 33.3275C10.9087 33.3954 10.8665 33.4891 10.8635 33.5881C10.8604 33.6871 10.8969 33.7833 10.9648 33.8554L15.8178 39.0112C15.8528 39.0483 15.8949 39.0778 15.9417 39.098C15.9886 39.1181 16.039 39.1285 16.0899 39.1284H16.1101C16.1645 39.1253 16.2175 39.1103 16.2655 39.0845C16.3135 39.0587 16.3553 39.0227 16.3879 38.9791L24.2278 28.5973C24.2872 28.5181 24.3127 28.4185 24.2987 28.3205C24.2847 28.2225 24.2323 28.1341 24.1531 28.0747C24.0739 28.0153 23.9743 27.9898 23.8763 28.0038C23.7783 28.0178 23.6899 28.0701 23.6305 28.1493Z" stroke="#03A600" stroke-width="1.75"/>
</svg>
