<svg width="42" height="42" viewBox="0 0 42 42" fill="none" xmlns="http://www.w3.org/2000/svg">
<g clip-path="url(#clip0_1160_2408)">
<path d="M12.6667 32C7.01 32 1 30.2483 1 27C1 23.7517 7.01 22 12.6667 22C18.3233 22 24.3333 23.7517 24.3333 27C24.3333 30.2483 18.3233 32 12.6667 32ZM12.6667 23.6667C6.47167 23.6667 2.66667 25.6083 2.66667 27C2.66667 28.3917 6.47167 30.3333 12.6667 30.3333C18.8617 30.3333 22.6667 28.3917 22.6667 27C22.6667 25.6083 18.8617 23.6667 12.6667 23.6667Z" fill="#959994"/>
<path d="M12.6667 37C7.01 37 1 35.2483 1 32C1 31.54 1.37333 31.1666 1.83333 31.1666C2.29333 31.1666 2.66667 31.54 2.66667 32C2.66667 33.3916 6.47167 35.3333 12.6667 35.3333C18.8617 35.3333 22.6667 33.3916 22.6667 32C22.6667 31.54 23.04 31.1666 23.5 31.1666C23.96 31.1666 24.3333 31.54 24.3333 32C24.3333 35.2483 18.3233 37 12.6667 37Z" fill="#959994"/>
<path d="M12.6667 42.0001C7.01 42.0001 1 40.2484 1 37.0001V27.0001C1 26.5401 1.37333 26.1667 1.83333 26.1667C2.29333 26.1667 2.66667 26.5401 2.66667 27.0001V37.0001C2.66667 38.3917 6.47167 40.3334 12.6667 40.3334C18.8617 40.3334 22.6667 38.3917 22.6667 37.0001V27.0001C22.6667 26.5401 23.04 26.1667 23.5 26.1667C23.96 26.1667 24.3333 26.5401 24.3333 27.0001V37.0001C24.3333 40.2484 18.3233 42.0001 12.6667 42.0001Z" fill="#959994"/>
<path d="M29.3334 12C23.6767 12 17.6667 10.2483 17.6667 7C17.6667 3.75167 23.6767 2 29.3334 2C34.9901 2 41.0001 3.75167 41.0001 7C41.0001 10.2483 34.9901 12 29.3334 12ZM29.3334 3.66667C23.1384 3.66667 19.3334 5.60833 19.3334 7C19.3334 8.39167 23.1384 10.3333 29.3334 10.3333C35.5284 10.3333 39.3334 8.39167 39.3334 7C39.3334 5.60833 35.5284 3.66667 29.3334 3.66667Z" fill="#959994"/>
<path d="M29.3334 16.9998C23.6767 16.9998 17.6667 15.2482 17.6667 11.9998C17.6667 11.5398 18.0401 11.1665 18.5001 11.1665C18.9601 11.1665 19.3334 11.5398 19.3334 11.9998C19.3334 13.3915 23.1384 15.3332 29.3334 15.3332C35.5284 15.3332 39.3334 13.3915 39.3334 11.9998C39.3334 11.5398 39.7068 11.1665 40.1667 11.1665C40.6268 11.1665 41.0001 11.5398 41.0001 11.9998C41.0001 15.2482 34.9901 16.9998 29.3334 16.9998Z" fill="#959994"/>
<path d="M29.3334 22.0001C23.6767 22.0001 17.6667 20.2484 17.6667 17.0001C17.6667 16.5401 18.0401 16.1667 18.5001 16.1667C18.9601 16.1667 19.3334 16.5401 19.3334 17.0001C19.3334 18.3917 23.1384 20.3334 29.3334 20.3334C35.5284 20.3334 39.3334 18.3917 39.3334 17.0001C39.3334 16.5401 39.7068 16.1667 40.1667 16.1667C40.6268 16.1667 41.0001 16.5401 41.0001 17.0001C41.0001 20.2484 34.9901 22.0001 29.3334 22.0001Z" fill="#959994"/>
<path d="M29.3334 27C28.4668 27 27.6251 26.9633 26.8168 26.8916C26.3584 26.8516 26.0184 26.4466 26.0601 25.9883C26.1018 25.53 26.4951 25.1933 26.9634 25.2316C27.7251 25.2983 28.5168 25.3333 29.3334 25.3333C35.5284 25.3333 39.3334 23.3916 39.3334 22C39.3334 21.54 39.7068 21.1666 40.1668 21.1666C40.6268 21.1666 41.0001 21.54 41.0001 22C41.0001 25.2483 34.9901 27 29.3334 27Z" fill="#959994"/>
<path d="M29.3332 32C28.4532 32 27.5866 31.9616 26.7582 31.8866C26.2999 31.845 25.9616 31.4383 26.0032 30.9816C26.0449 30.5233 26.4366 30.1866 26.9082 30.2266C27.6882 30.2983 28.5032 30.3333 29.3332 30.3333C35.5282 30.3333 39.3332 28.3916 39.3332 27V6.99996C39.3332 6.53996 39.7066 6.16663 40.1666 6.16663C40.6266 6.16663 40.9999 6.53996 40.9999 6.99996V27C40.9999 30.2483 34.9899 32 29.3332 32Z" fill="#959994"/>
<path d="M18.5001 20.335C18.0401 20.335 17.6667 19.9616 17.6667 19.5016V6.99996C17.6667 6.53996 18.0401 6.16663 18.5001 6.16663C18.9601 6.16663 19.3334 6.53996 19.3334 6.99996V19.5016C19.3334 19.9616 18.9601 20.335 18.5001 20.335Z" fill="#959994"/>
</g>
<defs>
<clipPath id="clip0_1160_2408">
<rect width="42" height="42" fill="white"/>
</clipPath>
</defs>
</svg>
