<svg width="72" height="72" viewBox="0 0 72 72" fill="none" xmlns="http://www.w3.org/2000/svg">
<g clip-path="url(#clip0_1458_999)">
<path d="M38.6518 55.5986H32.0552C30.391 55.5986 29.037 56.9525 29.037 58.6167V68.9442C29.037 69.4943 29.4829 69.9403 30.0331 69.9403H40.6736C41.2239 69.9403 41.6697 69.4943 41.6697 68.9442V58.6167C41.6697 56.9525 40.316 55.5986 38.6518 55.5986ZM39.6776 67.9482H31.0292V58.6168C31.0292 58.0511 31.4894 57.591 32.0552 57.591H38.6518C39.2175 57.591 39.6777 58.0511 39.6777 58.6168V67.9482H39.6776Z" fill="#959994"/>
<path d="M53.5144 29.654C53.7147 28.4055 53.8169 27.1339 53.8169 25.8596C53.8169 20.7999 52.2288 16.105 49.5263 12.2444L51.1528 9.34593H64.6259C65.1761 9.34593 65.622 8.89995 65.622 8.34984C65.622 7.79973 65.1761 7.35374 64.6259 7.35374H50.5695C50.2093 7.35374 49.8772 7.54818 49.7009 7.86241L48.2051 10.5281C43.8358 5.35292 37.3042 2.05957 30.0168 2.05957C24.1675 2.05957 18.5451 4.20117 14.1853 8.08966C13.7748 8.45582 13.7388 9.08548 14.1049 9.49601C14.4714 9.90666 15.101 9.94266 15.5114 9.57636C19.5058 6.0138 24.6573 4.05176 30.0169 4.05176C36.9637 4.05176 43.1622 7.31682 47.1586 12.3929L43.0907 19.6418C42.8215 20.1215 42.9922 20.7288 43.4719 20.998C43.626 21.0844 43.7933 21.1256 43.9584 21.1256C44.3069 21.1256 44.6453 20.9423 44.8279 20.6168L48.4332 14.1923C50.5798 17.5684 51.8247 21.5712 51.8247 25.8596C51.8247 27.1079 51.7172 28.3527 51.508 29.5717H46.2199C44.5562 29.5717 43.2024 30.9253 43.2024 32.5892V43.2314C39.651 45.9352 35.4646 47.4504 31.0129 47.6468V25.8596C31.0129 25.3095 30.567 24.8635 30.0168 24.8635H8.2309C8.4341 20.2634 10.0455 15.9447 12.9218 12.3196C13.2638 11.8886 13.1916 11.2621 12.7607 10.9202C12.3298 10.5782 11.7031 10.6501 11.3613 11.0813C7.99582 15.323 6.2168 20.4333 6.2168 25.8596C6.2168 26.4097 6.66265 26.8557 7.21289 26.8557H29.0207V48.6648C29.0207 49.2149 29.4666 49.6609 30.0168 49.6609C34.7806 49.6609 39.2999 48.2901 43.2024 45.6789V68.9439C43.2024 69.4941 43.6483 69.94 44.1985 69.94H54.838C55.3882 69.94 55.8341 69.4941 55.8341 68.9439V61.4653C55.8341 60.9152 55.3882 60.4692 54.838 60.4692C54.2878 60.4692 53.8419 60.9152 53.8419 61.4653V67.9479H45.1946V32.5892C45.1946 32.0238 45.6545 31.5639 46.2199 31.5639H52.8167C53.3821 31.5639 53.842 32.0238 53.842 32.5892V57.4809C53.842 58.031 54.2879 58.477 54.8381 58.477C55.3884 58.477 55.8342 58.031 55.8342 57.4809V32.5892C55.8342 31.1654 54.8428 29.9697 53.5144 29.654Z" fill="#959994"/>
<path d="M66.9823 44.6473H60.3856C58.7215 44.6473 57.3676 46.0012 57.3676 47.6654V68.9442C57.3676 69.4943 57.8134 69.9403 58.3637 69.9403H69.0044C69.5546 69.9403 70.0004 69.4943 70.0004 68.9442V47.6654C70.0004 46.0012 68.6466 44.6473 66.9823 44.6473ZM68.0083 67.9482H59.3599V47.6654C59.3599 47.0997 59.8201 46.6395 60.3857 46.6395H66.9824C67.5482 46.6395 68.0084 47.0997 68.0084 47.6654V67.9482H68.0083Z" fill="#959994"/>
<path d="M25.8 29.0797H2.99609C2.44585 29.0797 2 29.5257 2 30.0758C2 40.4029 8.61154 49.2136 17.8233 52.5005L15.0668 58.4776H4.35012C3.79987 58.4776 3.35402 58.9236 3.35402 59.4737C3.35402 60.0238 3.79987 60.4698 4.35012 60.4698H15.7041C16.0927 60.4698 16.4459 60.2438 16.6087 59.8909L19.7428 53.0951C21.6776 53.6047 23.7074 53.8773 25.8 53.8773C26.3502 53.8773 26.7961 53.4313 26.7961 52.8812V30.0759C26.7961 29.5257 26.3502 29.0797 25.8 29.0797ZM24.8039 51.8626C23.3589 51.7973 21.9504 51.5897 20.5914 51.2553L21.8054 48.6228C22.0357 48.1232 21.8176 47.5315 21.318 47.3011C20.8186 47.0706 20.2267 47.289 19.9964 47.7883L18.6611 50.6838C10.4307 47.8239 4.42555 40.1644 4.01463 31.0718H24.8039V51.8626Z" fill="#959994"/>
<path d="M4.35049 56.1814H12.6259C13.1762 56.1814 13.622 55.7354 13.622 55.1853C13.622 54.6352 13.1762 54.1892 12.6259 54.1892H4.35049C3.80025 54.1892 3.3544 54.6352 3.3544 55.1853C3.3544 55.7354 3.80039 56.1814 4.35049 56.1814Z" fill="#959994"/>
<path d="M54.8123 5.37976H64.6259C65.1761 5.37976 65.622 4.93378 65.622 4.38367C65.622 3.83356 65.1761 3.38757 64.6259 3.38757H54.8123C54.2621 3.38757 53.8163 3.83356 53.8163 4.38367C53.8163 4.93378 54.2622 5.37976 54.8123 5.37976Z" fill="#959994"/>
</g>
<defs>
<clipPath id="clip0_1458_999">
<rect width="68" height="68" fill="white" transform="translate(2 2)"/>
</clipPath>
</defs>
</svg>
