<svg width="25" height="25" viewBox="0 0 25 25" fill="none" xmlns="http://www.w3.org/2000/svg">
<path d="M10.1486 8.42099C9.99763 8.11764 9.76486 7.86255 9.47656 7.68453C9.18826 7.5065 8.85591 7.41263 8.51708 7.41352C8.03297 7.41406 7.56887 7.60664 7.22659 7.94899C6.88432 8.29135 6.69184 8.7555 6.69141 9.23961V18.2664H7.89711V9.24002C7.89722 9.07562 7.96256 8.91799 8.0788 8.80174C8.19505 8.6855 8.35268 8.62015 8.51708 8.62004C8.63215 8.61966 8.74503 8.65147 8.84298 8.71187C8.94093 8.77227 9.02006 8.85885 9.0714 8.96184L13.1331 17.0607H11.785L9.66689 12.8404H8.31804L11.0406 18.2652H15.0868L10.1486 8.42099Z" fill="#04DE00"/>
<path d="M17.7842 7.41351V16.4408C17.784 16.6051 17.7186 16.7626 17.6024 16.8788C17.4861 16.9949 17.3286 17.0602 17.1642 17.0603C17.0492 17.0607 16.9363 17.0289 16.8383 16.9685C16.7404 16.9081 16.6613 16.8215 16.6099 16.7185L12.5495 8.61962H13.8955L16.0132 12.84H17.3625L14.6395 7.41515H10.5933L15.5311 17.2606C15.6819 17.564 15.9147 17.8192 16.203 17.9972C16.4913 18.1753 16.8237 18.2691 17.1626 18.2681C17.6466 18.2675 18.1107 18.075 18.453 17.7328C18.7952 17.3905 18.9877 16.9264 18.9883 16.4424V7.41515L17.7842 7.41351Z" fill="#04DE00"/>
<path d="M12.84 24.5983C19.334 24.5983 24.5984 19.3339 24.5984 12.8399C24.5984 6.34591 19.334 1.08148 12.84 1.08148C6.34597 1.08148 1.08154 6.34591 1.08154 12.8399C1.08154 19.3339 6.34597 24.5983 12.84 24.5983Z" stroke="#04DE00" stroke-width="0.571429" stroke-miterlimit="10"/>
<path d="M19.983 19.9826C23.9278 16.0378 23.9278 9.64192 19.983 5.69709C16.0381 1.75225 9.64228 1.75225 5.69745 5.69709C1.75261 9.64192 1.75261 16.0378 5.69745 19.9826C9.64228 23.9274 16.0381 23.9274 19.983 19.9826Z" stroke="#04DE00" stroke-width="0.571429" stroke-miterlimit="10" stroke-linecap="round" stroke-dasharray="9.39 1.18"/>
</svg>
