<svg width="40" height="40" viewBox="0 0 40 40" fill="none" xmlns="http://www.w3.org/2000/svg">
<path d="M34.5275 37.4843H3.72214C3.0219 37.4836 2.35054 37.2051 1.8554 36.7099C1.36026 36.2148 1.08177 35.5434 1.08105 34.8432V10.3389C1.08105 10.1955 1.138 10.058 1.23938 9.95666C1.34075 9.85529 1.47823 9.79834 1.6216 9.79834H34.5275C35.2277 9.7992 35.899 10.0777 36.3941 10.5728C36.8892 11.068 37.1678 11.7392 37.1686 12.4394V19.6719C37.1686 19.8152 37.1117 19.9527 37.0103 20.0541C36.9089 20.1554 36.7714 20.2124 36.6281 20.2124C36.4847 20.2124 36.3472 20.1554 36.2459 20.0541C36.1445 19.9527 36.0875 19.8152 36.0875 19.6719V12.4394C36.0871 12.0258 35.9226 11.6293 35.6302 11.3368C35.3377 11.0443 34.9412 10.8799 34.5275 10.8794H2.16214V34.8432C2.16271 35.2568 2.32725 35.6532 2.61968 35.9457C2.91211 36.2381 3.30857 36.4026 3.72214 36.4032H34.5275C34.9411 36.4026 35.3376 36.2381 35.63 35.9457C35.9224 35.6532 36.087 35.2568 36.0875 34.8432V27.6113C36.0875 27.468 36.1445 27.3305 36.2459 27.2291C36.3472 27.1277 36.4847 27.0708 36.6281 27.0708C36.7714 27.0708 36.9089 27.1277 37.0103 27.2291C37.1117 27.3305 37.1686 27.468 37.1686 27.6113V34.8432C37.1678 35.5434 36.8892 36.2147 36.3941 36.7098C35.899 37.2049 35.2277 37.4834 34.5275 37.4843Z" fill="#04DE00"/>
<path d="M37.4741 28.1492H31.1439C29.9482 28.1492 28.8016 27.6743 27.9561 26.8288C27.1107 25.9834 26.6357 24.8367 26.6357 23.6411C26.6357 22.4455 27.1107 21.2988 27.9561 20.4534C28.8016 19.608 29.9482 19.133 31.1439 19.133H37.4741C37.8572 19.1336 38.2245 19.2861 38.4954 19.557C38.7662 19.828 38.9186 20.1953 38.919 20.5784V26.7027C38.919 27.0861 38.7668 27.4538 38.4959 27.725C38.225 27.9962 37.8575 28.1488 37.4741 28.1492ZM31.1439 20.2162C30.6938 20.2162 30.2482 20.3049 29.8324 20.4771C29.4166 20.6493 29.0388 20.9018 28.7206 21.22C28.4023 21.5382 28.1499 21.916 27.9777 22.3318C27.8055 22.7476 27.7168 23.1932 27.7168 23.6433C27.7168 24.0933 27.8055 24.5389 27.9777 24.9547C28.1499 25.3705 28.4023 25.7483 28.7206 26.0665C29.0388 26.3848 29.4166 26.6372 29.8324 26.8094C30.2482 26.9817 30.6938 27.0703 31.1439 27.0703H37.4741C37.5222 27.0702 37.5698 27.0606 37.6141 27.0421C37.6585 27.0236 37.6987 26.9964 37.7325 26.9623C37.7664 26.9281 37.7931 26.8876 37.8112 26.843C37.8292 26.7985 37.8383 26.7508 37.8379 26.7027V20.5784C37.8378 20.4819 37.7994 20.3894 37.7312 20.3211C37.6631 20.2529 37.5706 20.2144 37.4741 20.2141L31.1439 20.2162Z" fill="#04DE00"/>
<path d="M1.62151 10.8795C1.49355 10.8794 1.36975 10.834 1.27214 10.7513C1.17452 10.6686 1.10941 10.5539 1.0884 10.4277C1.06738 10.3015 1.09182 10.1719 1.15737 10.062C1.22292 9.95213 1.32533 9.86905 1.44637 9.82757L22.162 2.73082C22.7539 2.52793 23.3857 2.46927 24.0048 2.55972C24.624 2.65016 25.2126 2.8871 25.7217 3.25084C26.2308 3.61457 26.6457 4.09458 26.932 4.65097C27.2182 5.20735 27.3675 5.82404 27.3675 6.44974V10.3389C27.3675 10.4823 27.3105 10.6198 27.2091 10.7211C27.1078 10.8225 26.9703 10.8795 26.8269 10.8795C26.6836 10.8795 26.5461 10.8225 26.4447 10.7211C26.3433 10.6198 26.2864 10.4823 26.2864 10.3389V6.44974C26.2863 5.99612 26.178 5.54906 25.9705 5.14572C25.7629 4.74238 25.4621 4.3944 25.093 4.13071C24.7239 3.86702 24.2972 3.69524 23.8483 3.62963C23.3995 3.56403 22.9414 3.6065 22.5123 3.75352L1.79664 10.8503C1.74029 10.8697 1.6811 10.8795 1.62151 10.8795Z" fill="#04DE00"/>
<path d="M31.3556 25.5822C30.9717 25.5821 30.5965 25.4681 30.2773 25.2548C29.9582 25.0414 29.7095 24.7382 29.5626 24.3835C29.4158 24.0288 29.3774 23.6386 29.4524 23.2621C29.5274 22.8856 29.7123 22.5398 29.9838 22.2684C30.2552 21.9969 30.6011 21.8121 30.9776 21.7373C31.3542 21.6624 31.7444 21.7009 32.0991 21.8478C32.4537 21.9948 32.7568 22.2435 32.9701 22.5627C33.1834 22.8819 33.2972 23.2572 33.2972 23.6411C33.2968 24.1559 33.0921 24.6494 32.728 25.0134C32.364 25.3773 31.8703 25.5819 31.3556 25.5822ZM31.3556 22.7816C31.1855 22.7816 31.0192 22.8321 30.8777 22.9266C30.7363 23.0211 30.6261 23.1555 30.561 23.3127C30.4959 23.4698 30.4789 23.6428 30.5121 23.8096C30.5454 23.9764 30.6273 24.1297 30.7477 24.2499C30.868 24.3702 31.0213 24.4521 31.1881 24.4852C31.355 24.5183 31.5279 24.5012 31.6851 24.436C31.8422 24.3708 31.9765 24.2605 32.0709 24.119C32.1653 23.9775 32.2157 23.8112 32.2156 23.6411C32.2154 23.4131 32.1248 23.1945 31.9635 23.0333C31.8022 22.8722 31.5836 22.7816 31.3556 22.7816Z" fill="#04DE00"/>
</svg>
