<svg width="150" height="107" viewBox="0 0 150 107" fill="none" xmlns="http://www.w3.org/2000/svg">
<g clip-path="url(#clip0_1170_4302)">
<path d="M95.3125 75.199L98.627 74.5038L104.116 73.2123L109.397 71.8259L114.436 70.3546L119.197 68.8085L123.656 67.2018L127.781 65.5465L131.554 63.8529L134.955 62.131L137.971 60.3929L140.594 58.6467L141.77 57.7069L142.045 57.5068L142.831 56.8884L143.999 55.9344L145.829 54.1781L147.316 52.345L148.058 50.9889L148.238 50.7201L149.064 49.1579L149.636 47.3874L149.794 45.712L149.907 44.0325L149.576 42.45L149.076 40.7968L148.304 39.2648L147.263 37.9835L146.164 36.6617L144.697 35.4309L142.854 34.2628L141.54 33.5554L139.491 32.561L137.102 31.6394L134.442 30.8209L131.532 30.1014L128.385 29.481L125.018 28.9575L121.449 28.5311L120.475 28.4725L118.645 28.2825L117.696 28.1996L116.78 28.1592L113.781 27.9652L109.975 27.8318L95.3125 75.199Z" fill="#959994"/>
<path d="M54.4409 33.1211L39.7358 80.357L36.5041 80.2317L31.7688 79.8941L27.3387 79.4192L23.236 78.8109L19.4788 78.0752L16.0855 77.2163L13.0539 76.2381L11.7625 75.6884L11.3239 75.5267L10.4953 75.1851L9.04822 74.5505L6.76444 73.3298L4.93539 72.0485L3.49843 70.6519L2.36664 69.4514L1.31772 67.9094L0.713429 66.335L0.13541 64.7666L0 63.1073L0.0343578 61.4258L0.341557 59.7463L1.6714 56.6683L2.81532 54.9767L4.22196 53.4104L5.27089 52.3998L6.9908 50.8618L9.01184 49.344L11.3199 47.8464L13.9008 46.3731L16.7383 44.9301L19.8143 43.5174L23.143 42.1309L24.01 41.8318L26.6354 40.8031L27.462 40.5302L30.3157 39.5177L31.0978 39.2732L34.1496 38.2889L34.8772 38.0666L38.8223 36.9025L42.8947 35.797L47.0661 34.7541L51.3608 33.7698L54.4409 33.1211Z" fill="#959994"/>
<path d="M12.3245 61.1591L12.3023 61.2621L12.3003 61.2682L12.3084 61.2015L12.3245 61.1591Z" fill="url(#paint0_linear_1170_4302)"/>
<path d="M105.191 7.27371C107.841 7.78907 109.112 11.047 108.021 14.5495L82.1172 98.4229C81.0339 101.925 78.0104 104.349 75.3608 103.833L39.8611 96.9253C37.2136 96.4099 35.9423 93.152 37.0317 89.6495L62.9375 5.77611C64.0187 2.27162 67.0442 -0.149594 69.6938 0.365773L105.191 7.27371Z" stroke="#959994" stroke-width="0.606314" stroke-miterlimit="10"/>
<path d="M105.191 7.27371C107.841 7.78907 109.112 11.047 108.021 14.5495L82.1172 98.4229C81.0339 101.925 78.0104 104.349 75.3608 103.833L39.8611 96.9253C37.2136 96.4099 35.9423 93.152 37.0317 89.6495L62.9375 5.77611C64.0187 2.27162 67.0442 -0.149594 69.6938 0.365773L105.191 7.27371Z" stroke="#959994" stroke-width="0.606314" stroke-miterlimit="10"/>
<path d="M45.2354 99.3261L80.7431 106.228C83.3927 106.743 86.4162 104.32 87.4995 100.818L113.403 16.9443C114.375 13.8016 113.452 10.8549 111.336 9.91105L105.962 7.51005C105.714 7.39964 105.455 7.3176 105.19 7.2655" stroke="#959994" stroke-width="0.606314" stroke-miterlimit="10"/>
<path d="M44.4628 99.0834L39.0889 96.6824C39.3362 96.7921 39.5952 96.8735 39.8609 96.9249L45.2349 99.3259C44.9692 99.2745 44.7102 99.1931 44.4628 99.0834V99.0834Z" stroke="#959994" stroke-width="0.606314" stroke-miterlimit="10"/>
<path d="M86.974 10.8769C87.7965 11.0366 88.1866 12.0491 87.8551 13.1324L83.2754 27.9649C82.9399 29.0502 82.0002 29.802 81.1776 29.6423L63.9482 26.2935C63.1276 26.1338 62.7356 25.1213 63.069 24.0359L67.6406 9.20552C67.9761 8.12224 68.9159 7.36839 69.7365 7.52805L86.974 10.8769ZM82.9844 27.9083L87.5661 13.0799C87.8369 12.2047 87.5176 11.3903 86.8567 11.2609L69.6273 7.91205C68.9664 7.7827 68.2126 8.38902 67.9398 9.26211L63.358 24.0925C63.0892 24.9656 63.4065 25.7821 64.0674 25.9115L81.2968 29.2604C81.9577 29.3877 82.7116 28.7814 82.9844 27.9083Z" fill="#959994"/>
<path d="M101 13.642C101.594 13.7572 101.881 14.4908 101.638 15.279L96.6586 31.3989C96.4161 32.1871 95.733 32.7327 95.1388 32.6115L87.4851 31.124C86.8909 31.0088 86.6039 30.2731 86.8464 29.4869L91.8263 13.3651C92.0688 12.5789 92.7519 12.0312 93.3461 12.1524L101 13.642ZM96.3696 31.3423L101.347 15.2224C101.525 14.6484 101.317 14.1108 100.881 14.0259L93.2269 12.5385C92.7924 12.4536 92.2932 12.8537 92.1153 13.4277L87.1375 29.5476C86.9596 30.1236 87.1678 30.6612 87.6023 30.7461L95.258 32.2335C95.6926 32.3184 96.1918 31.9183 96.3696 31.3423Z" fill="#959994"/>
<path d="M81.238 72.796C82.392 73.0204 82.9478 74.4432 82.4769 75.9691L76.7917 94.3707C76.3309 95.8966 74.999 96.9536 73.845 96.7313L45.0754 91.139C43.9214 90.9147 43.3656 89.4899 43.8365 87.966L49.5217 69.5624C49.9926 68.0385 51.3144 66.9795 52.4684 67.2038L81.238 72.796ZM76.5027 94.3141L82.1919 75.9125C82.5961 74.5988 82.1192 73.372 81.1268 73.18L52.3492 67.5858C51.3568 67.3837 50.217 68.3053 49.8107 69.619L44.1275 88.0226C43.7233 89.3363 44.2003 90.561 45.1926 90.7551L73.9642 96.3473C74.9566 96.5494 76.0964 95.6278 76.5027 94.3141Z" fill="#959994"/>
<path d="M93.3844 36.2638C94.2939 36.4396 94.7324 37.5633 94.3606 38.7679L91.3432 48.5376C90.9713 49.7401 89.9284 50.5769 89.0169 50.399L58.5456 44.4753C57.6341 44.2975 57.1956 43.1738 57.5674 41.9692L60.5667 32.2015C60.9385 30.9889 61.9814 30.1603 62.8929 30.3381L93.3844 36.2638ZM91.0521 48.481L94.0695 38.7113C94.3767 37.719 94.017 36.7933 93.2611 36.6458L62.7898 30.7221C62.038 30.5746 61.173 31.2658 60.8718 32.2581L57.8544 42.0258C57.5472 43.0181 57.909 43.9438 58.6628 44.0893L89.1463 50.015C89.8961 50.1605 90.7631 49.4734 91.0622 48.481" fill="#959994"/>
<path d="M80.112 96.303L105.044 15.5905C106.006 12.4781 104.876 9.58395 102.521 9.12315L70.9769 2.99534C68.6244 2.53656 65.9364 4.68897 64.9744 7.80138L40.0428 88.5159C39.0828 91.6263 40.2125 94.5204 42.565 94.9832L74.1075 101.109C76.464 101.568 79.1601 99.4154 80.112 96.303Z" stroke="#959994" stroke-width="0.202105" stroke-miterlimit="10"/>
<path d="M73.3177 10.8572C72.3476 10.6693 71.238 11.5585 70.8419 12.8399L67.293 24.3275L68.449 24.5599L72.002 13.0804C72.1374 12.6459 72.5133 12.3447 72.8428 12.4074C72.962 12.437 73.0673 12.5069 73.1409 12.6052C73.2145 12.7035 73.252 12.8243 73.247 12.947L73.9725 24.0142L72.675 23.7616L72.289 17.9855L70.9915 17.7288L71.4806 25.148L75.3731 25.9059L74.4919 12.4518C74.4353 11.603 73.9867 10.9947 73.3177 10.8572Z" fill="url(#paint1_linear_1170_4302)"/>
<path d="M82.2363 12.5995L78.6894 24.0871C78.554 24.5217 78.1781 24.8248 77.8486 24.7602C77.7294 24.7305 77.6241 24.6606 77.5505 24.5623C77.4769 24.464 77.4394 24.3433 77.4444 24.2205L76.7169 13.1533L78.0164 13.4059L78.3943 19.174L79.6939 19.4266L79.2048 12.0114L75.3203 11.2616L76.2015 24.7157C76.2581 25.5645 76.7068 26.1729 77.3757 26.3022C78.3458 26.4922 79.4554 25.6009 79.8515 24.3216L83.4045 12.8239L82.2363 12.5995Z" fill="url(#paint2_linear_1170_4302)"/>
<path d="M12.0154 51.8823L11.8174 57.8202L19.2912 66.7552L27.8645 62.8324L41.2438 67.0099L58.065 66.4136L65.6621 69.3644L72.7297 68.4024L76.5111 65.484L84.2072 65.8154L103.583 66.6784L113.472 68.8066L120.582 69.9687L136.726 55.0655L133.29 38.7981L114.862 35.5927L101.162 35.3259L92.833 37.6825L90.2461 42.5916L82.2832 36.5204L73.5583 38.7435L58.5298 37.25L51.6946 37.7148L51.2298 46.6074L43.9318 48.1333L36.5994 44.0528L36.367 35.8898L16.1626 35.7584L11.8841 43.9861L12.0154 51.8823Z" fill="#959994"/>
<path d="M20.0307 42.6378V39.2869H26.5405C27.5288 39.2869 27.9856 38.7796 27.9856 38.0338C27.9856 37.2881 27.5288 36.7565 26.5405 36.7565H17.8864V45.4167H26.8538C27.8421 45.4167 28.3231 44.863 28.3231 44.0202C28.3231 43.1774 27.8421 42.6459 26.8538 42.6459L20.0307 42.6378ZM13.4502 49.863V32.3446H26.4112C30.049 32.3446 32.5107 33.8867 32.5107 36.9485C32.5107 38.9696 31.5689 39.9619 30.8938 40.4429C31.5082 40.8193 32.0151 41.3478 32.3656 41.9772C32.716 42.6067 32.8983 43.3159 32.8947 44.0364C32.8947 47.7712 30.4128 49.8691 26.9407 49.8691L13.4502 49.863Z" fill="#959994"/>
<path d="M50.0573 32.3446H54.3965V42.1305C54.3965 47.555 51.6257 50.1096 44.6106 50.1096C37.5956 50.1096 34.8247 47.555 34.8247 42.1305V32.3446H39.4286V42.1305C39.4286 44.8064 40.5604 45.7219 44.7541 45.7219C48.9478 45.7219 50.0573 44.8104 50.0573 42.1305V32.3446Z" fill="#959994"/>
<path d="M71.7131 49.863L67.6144 45.1863H63.2752V41.4555H69.5667C71.038 41.4555 71.9293 40.5399 71.9293 39.1171C71.9293 37.6943 71.038 36.7788 69.5667 36.7788H61.1309V49.863H56.6846V32.3446H69.5566C73.7745 32.3446 76.2826 34.9235 76.2826 38.9494C76.2826 41.8172 74.9326 43.7453 72.7862 44.6083L78.0167 49.863H71.7131Z" fill="#959994"/>
<path d="M83.3057 39.3539V49.8634H79.0615V34.7257C79.0615 33.1089 79.9306 32.0984 81.2847 32.0984C81.9355 32.0984 82.3922 32.3146 82.9945 32.8684L93.6009 42.6321V32.1226H97.8451V47.4826C97.8451 49.0994 96.9538 50.1099 95.622 50.1099C94.9712 50.1099 94.4902 49.8937 93.9101 49.3379L83.3057 39.3539Z" fill="#959994"/>
<path d="M106.906 42.6378V39.2869H115.825V42.6378H106.906ZM100.325 49.863V32.3446H116.494V36.7788H104.759V45.4167H116.55V49.863H100.325Z" fill="#959994"/>
<path d="M133.709 49.863L129.612 45.1863H125.273V41.4555H131.564C133.036 41.4555 133.927 40.5399 133.927 39.1171C133.927 37.6943 133.036 36.7788 131.564 36.7788H123.129V49.863H118.692V32.3446H131.564C135.782 32.3446 138.288 34.9235 138.288 38.9494C138.288 41.8172 136.94 43.7453 134.794 44.6083L140.025 49.863H133.709Z" fill="#959994"/>
<path d="M20.9965 66.8136V62.5229H27.0455C28.5411 62.5229 29.4324 61.7044 29.4324 60.4271C29.4324 59.1498 28.5411 58.3292 27.0455 58.3292H18.8502V71.4175H14.416V53.9052H27.0455C31.2897 53.9052 33.7958 56.387 33.7958 60.2917C33.7958 64.1963 31.2877 66.8237 27.0455 66.8237L20.9965 66.8136Z" fill="#959994"/>
<path d="M48.7879 71.4175V64.4146H42.0639V60.6433H48.7879V53.9052H53.2484V71.4276L48.7879 71.4175ZM35.4834 71.4175V53.9052H39.9519V71.4276L35.4834 71.4175Z" fill="#959994"/>
<path d="M68.5297 66.9593C71.1328 66.9593 72.9416 65.1747 72.9416 62.6929C72.9416 60.211 71.1086 58.3294 68.5297 58.3294H64.1198C61.6117 58.3294 59.7563 60.1848 59.7563 62.6929C59.7563 65.201 61.5632 66.9593 64.1198 66.9593H68.5297ZM64.1198 71.4177C59.0328 71.4177 55.2959 67.5616 55.2959 62.4766C55.2959 57.3169 59.0328 53.8953 64.1198 53.8953H68.5297C73.7602 53.8953 77.3758 57.3896 77.3758 62.4766C77.3758 67.5636 73.6652 71.4177 68.5297 71.4177H64.1198Z" fill="#959994"/>
<path d="M83.5723 60.9088V71.4182H79.3281V56.2806C79.3281 54.6637 80.1972 53.6532 81.5513 53.6532C82.2021 53.6532 82.6588 53.8715 83.2611 54.4252L93.8675 64.1869V53.6774H98.1117V69.0374C98.1117 70.6542 97.2204 71.6648 95.8886 71.6648C95.2378 71.6648 94.7568 71.4465 94.1767 70.8927L83.5723 60.9088Z" fill="#959994"/>
<path d="M107.17 64.1862V60.8373H116.089V64.1862H107.17ZM100.583 71.4175V53.9052H116.752V58.3393H105.03V66.9692H116.812V71.4276L100.583 71.4175Z" fill="#959994"/>
<path d="M118.975 71.4177V66.9593H132.314C133.349 66.9593 133.977 66.4762 133.977 65.6092C133.977 64.7422 133.349 64.1945 132.314 64.1945H124.5C120.909 64.1945 118.692 62.1229 118.692 59.0853C118.692 56.1204 120.765 53.9033 124.553 53.9033H137.304V58.3375H124.549C123.825 58.3375 123.32 58.7417 123.32 59.5905C123.32 60.4394 123.825 60.8456 124.549 60.8456H132.314C136.154 60.8456 138.195 62.4624 138.195 66.0276C138.195 69.1117 136.267 71.4258 132.314 71.4258L118.975 71.4177Z" fill="#959994"/>
<path d="M19.4648 43.2041V39.8532H25.9726C26.9609 39.8532 27.4196 39.348 27.4196 38.6002C27.4196 37.8524 26.9609 37.3229 25.9726 37.3229H17.3164V45.977H26.2838C27.2721 45.977 27.7551 45.4232 27.7551 44.5784C27.7551 43.7336 27.2721 43.2041 26.2838 43.2041H19.4648ZM12.8843 50.4354V32.913H25.8533C29.4912 32.913 31.9508 34.455 31.9508 37.5169C31.9508 39.538 31.011 40.5283 30.334 41.0113C30.9482 41.3874 31.455 41.9154 31.8055 42.5446C32.1559 43.1737 32.3383 43.8825 32.3348 44.6027C32.3348 48.3396 29.851 50.4354 26.3808 50.4354H12.8843Z" fill="#959994"/>
<path d="M49.4993 32.913H53.8385V42.6989C53.8385 48.1213 51.0656 50.678 44.0506 50.678C37.0355 50.678 34.2646 48.1213 34.2646 42.6989V32.913H38.8686V42.6989C38.8686 45.3747 40.0024 46.2903 44.1961 46.2903C48.3897 46.2903 49.4993 45.3747 49.4993 42.6989V32.913Z" fill="#959994"/>
<path d="M71.1451 50.4354L67.0464 45.7587H62.7092V42.0238H69.0007C70.47 42.0238 71.3613 41.1083 71.3613 39.6855C71.3613 38.2627 70.47 37.3471 69.0007 37.3471H60.5669V50.4354H56.1206V32.913H68.9926C73.2106 32.913 75.7167 35.4918 75.7167 39.5177C75.7167 42.3856 74.3666 44.3137 72.2223 45.1767L77.4527 50.4314L71.1451 50.4354Z" fill="#959994"/>
<path d="M82.7398 39.9254V50.4348H78.4956V35.2972C78.4956 33.6803 79.3626 32.6698 80.7188 32.6698C81.3695 32.6698 81.8283 32.8881 82.4306 33.4418L93.037 43.2035V32.6941H97.2812V48.054C97.2812 49.6708 96.3879 50.6814 95.0581 50.6814C94.4053 50.6814 93.9243 50.4631 93.3463 49.9093L82.7398 39.9254Z" fill="#959994"/>
<path d="M106.337 43.2041V39.8532H115.256V43.2041H106.337ZM99.7568 50.4354V32.913H115.925V37.3471H104.193V45.977H115.98V50.4354H99.7568Z" fill="#959994"/>
<path d="M133.142 50.4354L129.044 45.7587H124.707V42.0238H130.996C132.467 42.0238 133.359 41.1083 133.359 39.6855C133.359 38.2627 132.467 37.3471 130.996 37.3471H122.56V50.4354H118.126V32.913H130.996C135.216 32.913 137.722 35.4918 137.722 39.5177C137.722 42.3856 136.372 44.3137 134.228 45.1767L139.458 50.4314L133.142 50.4354Z" fill="#959994"/>
<path d="M20.4287 67.3815V63.0908H26.4797C27.9732 63.0908 28.8645 62.2703 28.8645 60.993C28.8645 59.7157 27.9732 58.8971 26.4797 58.8971H18.2843V71.9854H13.8481V54.4609H26.4797C30.7239 54.4609 33.228 56.9448 33.228 60.8495C33.228 64.7541 30.7219 67.3815 26.4797 67.3815H20.4287Z" fill="#959994"/>
<path d="M48.2221 71.9854V64.9704H41.4961V61.2112H48.2221V54.4609H52.6846V71.9854H48.2221ZM34.9155 71.9854V54.4609H39.376V71.9854H34.9155Z" fill="#959994"/>
<path d="M67.9638 67.525C70.5669 67.525 72.3737 65.7424 72.3737 63.2585C72.3737 60.7747 70.5426 58.8971 67.9638 58.8971H63.5518C61.0457 58.8971 59.1884 60.7525 59.1884 63.2585C59.1884 65.7646 60.9972 67.525 63.5518 67.525H67.9638ZM63.5518 71.9854C58.4669 71.9854 54.73 68.1293 54.73 63.0423C54.73 57.8846 58.4669 54.4609 63.5518 54.4609H67.9638C73.1943 54.4609 76.8099 57.9553 76.8099 63.0423C76.8099 68.1293 73.0972 71.9854 67.9638 71.9854H63.5518Z" fill="#959994"/>
<path d="M83.0005 61.476V71.9855H78.7563V56.8478C78.7563 55.231 79.6234 54.2205 80.9795 54.2205C81.6303 54.2205 82.0891 54.4367 82.6913 54.9925L93.3079 64.7541V54.2447H97.5521V69.6047C97.5521 71.2215 96.6608 72.232 95.3289 72.232C94.6781 72.232 94.1951 72.0158 93.6171 71.462L83.0005 61.476Z" fill="#959994"/>
<path d="M106.602 64.7541V61.4032H115.521V64.7541H106.602ZM100.021 71.9854V54.4609H116.19V58.8971H104.458V67.525H116.244V71.9854H100.021Z" fill="#959994"/>
<path d="M118.413 71.985V67.5246H131.752C132.789 67.5246 133.415 67.0436 133.415 66.1765C133.415 65.3095 132.789 64.7618 131.752 64.7618H123.935C120.343 64.7618 118.124 62.6882 118.124 59.6506C118.124 56.6857 120.198 54.4686 123.985 54.4686H136.736V58.8967H123.983C123.26 58.8967 122.752 59.3009 122.752 60.1498C122.752 60.9986 123.26 61.4028 123.983 61.4028H131.744C135.584 61.4028 137.625 63.0197 137.625 66.5848C137.625 69.6709 135.697 71.985 131.744 71.985H118.413Z" fill="#959994"/>
<path d="M18.8969 43.7716V40.4207H25.4007C26.3889 40.4207 26.8457 39.9134 26.8457 39.1676C26.8457 38.4219 26.3889 37.8903 25.4007 37.8903H16.7526V46.5424H25.72C26.7083 46.5424 27.1893 45.9887 27.1893 45.1459C27.1893 44.3031 26.7083 43.7716 25.72 43.7716H18.8969ZM12.3164 51.0029V33.4784H25.2855C28.9233 33.4784 31.3829 35.0205 31.3829 38.0823C31.3829 40.1034 30.4432 41.0957 29.7661 41.5767C30.3804 41.9531 30.8873 42.4816 31.2378 43.111C31.5883 43.7405 31.7706 44.4497 31.7669 45.1701C31.7669 48.905 29.2851 51.0029 25.8129 51.0029H12.3164Z" fill="#959994"/>
<path d="M48.9319 33.4784H53.2711V43.2643C53.2711 48.6888 50.4982 51.2434 43.4852 51.2434C36.4722 51.2434 33.6973 48.6888 33.6973 43.2643V33.4784H38.3012V43.2643C38.3012 45.9402 39.435 46.8577 43.6287 46.8577C47.8224 46.8577 48.9319 45.9402 48.9319 43.2643V33.4784Z" fill="#959994"/>
<path d="M70.5769 51.0029L66.4803 46.3262H62.1411V42.5872H68.4326C69.9039 42.5872 70.7952 41.6717 70.7952 40.2489C70.7952 38.8261 69.9039 37.9126 68.4326 37.9126H59.9967V51.0009H55.5605V33.4784H68.4326C72.6505 33.4784 75.1586 36.0572 75.1586 40.0832C75.1586 42.951 73.8086 44.8811 71.6622 45.7421L76.8927 50.9968L70.5769 51.0029Z" fill="#959994"/>
<path d="M82.1719 40.4938V51.0033H77.9277V35.8656C77.9277 34.2488 78.7968 33.2383 80.1509 33.2383C80.8017 33.2383 81.2584 33.4545 81.8607 34.0083L92.4671 43.772V33.2625H96.7113V48.6225C96.7113 50.2393 95.8201 51.2498 94.4882 51.2498C93.8374 51.2498 93.3544 51.0336 92.7764 50.4798L82.1719 40.4938Z" fill="#959994"/>
<path d="M105.772 43.7716V40.4207H114.691V43.7716H105.772ZM99.1914 51.0029V33.4784H115.36V37.9146H103.626V46.5424H115.412V51.0029H99.1914Z" fill="#959994"/>
<path d="M132.575 51.0029L128.474 46.3262H124.139V42.5872H130.431C131.9 42.5872 132.793 41.6717 132.793 40.2489C132.793 38.8261 131.9 37.9126 130.431 37.9126H121.995V51.0009H117.561V33.4784H130.433C134.651 33.4784 137.157 36.0572 137.157 40.0832C137.157 42.951 135.809 44.8811 133.662 45.7421L138.893 50.9968L132.575 51.0029Z" fill="#959994"/>
<path d="M19.863 67.9497V63.657H25.912C27.4076 63.657 28.2989 62.8385 28.2989 61.5612C28.2989 60.2839 27.4076 59.4633 25.912 59.4633H17.7207V72.5516H13.2744V55.0292H25.9039C30.1481 55.0292 32.6542 57.511 32.6542 61.4157C32.6542 65.3203 30.1461 67.9497 25.9039 67.9497H19.863Z" fill="#959994"/>
<path d="M47.6546 72.5516V65.5386H40.9306V61.7876H47.6546V55.0292H52.1151V72.5516H47.6546ZM34.3501 72.5516V55.0292H38.8085V72.5516H34.3501Z" fill="#959994"/>
<path d="M67.3962 68.0932C69.9993 68.0932 71.8081 66.3107 71.8081 63.8268C71.8081 61.3429 69.9751 59.4633 67.3962 59.4633H62.9923C60.4842 59.4633 58.6289 61.3207 58.6289 63.8268C58.6289 66.3329 60.4297 68.0932 62.9923 68.0932H67.3962ZM62.9923 72.5516C57.9054 72.5516 54.1685 68.6955 54.1685 63.6105C54.1685 58.4508 57.9054 55.0292 62.9923 55.0292H67.4023C72.6327 55.0292 76.2484 58.5236 76.2484 63.6105C76.2484 68.6975 72.5377 72.5516 67.4023 72.5516H62.9923Z" fill="#959994"/>
<path d="M82.4366 62.0425V72.552H78.1924V57.4143C78.1924 55.7975 79.0614 54.787 80.4155 54.787C81.0663 54.787 81.5231 55.0053 82.1253 55.559L92.7318 65.3207V54.8112H96.976V70.1712C96.976 71.788 96.0847 72.7985 94.7528 72.7985C94.1021 72.7985 93.619 72.5803 93.041 72.0265L82.4366 62.0425Z" fill="#959994"/>
<path d="M106.04 65.3203V61.9715H114.959V65.3203H106.04ZM99.46 72.5516V55.0292H115.628V59.4633H103.89V68.0932H115.679V72.5516H99.46Z" fill="#959994"/>
<path d="M117.848 72.5516V68.0932H131.186C132.223 68.0932 132.85 67.6102 132.85 66.7432C132.85 65.8761 132.223 65.3284 131.186 65.3284H123.367C119.784 65.3203 117.561 63.2488 117.561 60.2111C117.561 57.2463 119.634 55.0292 123.422 55.0292H136.172V59.4633H123.422C122.698 59.4633 122.193 59.8676 122.193 60.7164C122.193 61.5652 122.698 61.9715 123.422 61.9715H131.182C135.022 61.9715 137.066 63.5883 137.066 67.1534C137.066 70.2375 135.136 72.5516 131.182 72.5516H117.848Z" fill="#959994"/>
<path d="M18.3266 44.3379V40.987H24.8344C25.8227 40.987 26.2815 40.4818 26.2815 39.734C26.2815 38.9862 25.8227 38.4567 24.8344 38.4567H16.1843V47.1108H25.1517C26.14 47.1108 26.623 46.557 26.623 45.7122C26.623 44.8674 26.14 44.3379 25.1517 44.3379H18.3266ZM11.7461 51.5692V34.0468H24.7131C28.351 34.0468 30.8126 35.5888 30.8126 38.6507C30.8126 40.6717 29.8729 41.6621 29.1958 42.1451C29.81 42.5211 30.3168 43.0492 30.6673 43.6783C31.0178 44.3075 31.2001 45.0163 31.1966 45.7365C31.1966 49.4734 28.7128 51.5692 25.2426 51.5692H11.7461Z" fill="#959994"/>
<path d="M48.3655 34.0468H52.7027V43.8327C52.7027 49.2551 49.9318 51.8117 42.9168 51.8117C35.9017 51.8117 33.1309 49.2571 33.1309 43.8327V34.0468H37.7287V43.8327C37.7287 46.5085 38.8605 47.4241 43.0562 47.4241C47.2519 47.4241 48.3594 46.5085 48.3594 43.8327L48.3655 34.0468Z" fill="#959994"/>
<path d="M70.0115 51.5692L65.9128 46.8945H61.5777V43.1576H67.8672C69.3385 43.1576 70.2298 42.2421 70.2298 40.8193C70.2298 39.3965 69.3385 38.4809 67.8672 38.4809H59.4293V51.5692H54.9951V34.0468H67.8651C72.0851 34.0468 74.5912 36.6256 74.5912 40.6515C74.5912 43.5194 73.2411 45.4475 71.0968 46.3105L76.3273 51.5652L70.0115 51.5692Z" fill="#959994"/>
<path d="M81.606 41.0591V51.5686H77.3618V36.4309C77.3618 34.8141 78.2288 33.8036 79.585 33.8036C80.2357 33.8036 80.6945 34.0219 81.2968 34.5756L91.8931 44.3373V33.8278H96.1373V49.1878C96.1373 50.8046 95.244 51.8151 93.9142 51.8151C93.2634 51.8151 92.7824 51.5969 92.2044 51.0431L81.606 41.0591Z" fill="#959994"/>
<path d="M105.204 44.3379V40.987H114.124V44.3379H105.204ZM98.623 51.5692V34.0468H114.791V38.4809H103.059V47.1108H114.846V51.5692H98.623Z" fill="#959994"/>
<path d="M132.009 51.5692L127.91 46.8945H123.571V43.1576H129.863C131.334 43.1576 132.225 42.2421 132.225 40.8193C132.225 39.3965 131.334 38.4809 129.863 38.4809H121.427V51.5692H116.98V34.0468H129.853C134.07 34.0468 136.579 36.6256 136.579 40.6515C136.579 43.5194 135.228 45.4475 133.082 46.3105L138.315 51.5652L132.009 51.5692Z" fill="#959994"/>
<path d="M19.2952 68.5153V64.2246H25.3462C26.8398 64.2246 27.7311 63.4061 27.7311 62.1267C27.7311 60.8474 26.8398 60.0309 25.3462 60.0309H17.1509V73.1192H12.7046V55.5947H25.3361C29.5803 55.5947 32.0844 58.0786 32.0844 61.9833C32.0844 65.8879 29.5783 68.5153 25.3361 68.5153H19.2952Z" fill="#959994"/>
<path d="M47.0883 73.1192V66.1042H40.3562V62.345H47.0822V55.5947H51.5407V73.1192H47.0883ZM33.7817 73.1192V55.5947H38.2402V73.1192H33.7817Z" fill="#959994"/>
<path d="M66.832 68.6588C69.4351 68.6588 71.2419 66.8743 71.2419 64.3904C71.2419 61.9065 69.4108 60.029 66.832 60.029H62.418C59.9119 60.029 58.0546 61.8843 58.0546 64.3904C58.0546 66.8965 59.8634 68.6588 62.418 68.6588H66.832ZM62.42 73.1173C57.333 73.1173 53.5981 69.2611 53.5981 64.1741C53.5981 59.0164 57.333 55.5928 62.42 55.5928H66.832C72.0624 55.5928 75.6781 59.0892 75.6781 64.1741C75.6781 69.2591 71.9634 73.1193 66.832 73.1193L62.42 73.1173Z" fill="#959994"/>
<path d="M81.8707 62.6099V73.1194H77.6265V57.9817C77.6265 56.3649 78.4935 55.3544 79.8496 55.3544C80.5004 55.3544 80.9592 55.5706 81.5614 56.1264L92.1679 65.8881V55.3786H96.4121V70.7386C96.4121 72.3554 95.5188 73.3659 94.1889 73.3659C93.5382 73.3659 93.0572 73.1497 92.4791 72.5959L81.8707 62.6099Z" fill="#959994"/>
<path d="M105.468 65.8879V62.537H114.387V65.8879H105.468ZM98.8877 73.1192V55.5947H115.056V60.0309H103.324V68.6588H115.111V73.1172L98.8877 73.1192Z" fill="#959994"/>
<path d="M117.279 73.1189V68.6584H130.618C131.655 68.6584 132.281 68.1754 132.281 67.3084C132.281 66.4414 131.655 65.8936 130.618 65.8936H122.801C119.209 65.8936 116.99 63.8201 116.99 60.7824C116.99 57.8196 119.064 55.6005 122.851 55.6005H135.602V60.0367H122.849C122.126 60.0367 121.618 60.4409 121.618 61.2897C121.618 62.1385 122.126 62.5428 122.849 62.5428H130.61C134.45 62.5428 136.491 64.1596 136.491 67.7247C136.491 70.8109 134.563 73.1249 130.61 73.1249L117.279 73.1189Z" fill="#959994"/>
<path d="M17.7631 44.9054V41.5545H24.2729C25.2612 41.5545 25.718 41.0492 25.718 40.3014C25.718 39.5536 25.2612 39.0241 24.2729 39.0241H15.6188V47.6782H24.5923C25.5805 47.6782 26.0616 47.1225 26.0616 46.2797C26.0616 45.4369 25.5805 44.9054 24.5923 44.9054H17.7631ZM11.1826 52.1367V34.6122H24.1517C27.7896 34.6122 30.2492 36.1563 30.2492 39.2161C30.2492 41.2372 29.3094 42.2295 28.6323 42.7125C29.2465 43.0886 29.7533 43.6167 30.1038 44.2458C30.4543 44.8749 30.6366 45.5838 30.6332 46.3039C30.6332 50.0388 28.1513 52.1367 24.6792 52.1367H11.1826Z" fill="#959994"/>
<path d="M47.7981 34.6122H52.1373V44.4062C52.1373 49.8307 49.3644 52.3853 42.3514 52.3853C35.3384 52.3853 32.5635 49.8226 32.5635 44.4062V34.6122H37.1674V44.4062C37.1674 47.082 38.3012 47.9996 42.4949 47.9996C46.6886 47.9996 47.7981 47.082 47.7981 44.4062V34.6122Z" fill="#959994"/>
<path d="M69.4431 52.1367L65.3465 47.46H61.0073V43.7251H67.2988C68.7681 43.7251 69.6614 42.8075 69.6614 41.3867C69.6614 39.9659 68.7681 39.0484 67.2988 39.0484H58.863V52.1367H54.4268V34.6122H67.2988C71.5167 34.6122 74.0228 37.191 74.0228 41.217C74.0228 44.0848 72.6748 46.0149 70.5284 46.8759L75.7589 52.1306L69.4431 52.1367Z" fill="#959994"/>
<path d="M81.0381 41.6277V52.1372H76.7939V36.9996C76.7939 35.3827 77.661 34.3722 79.0171 34.3722C79.6679 34.3722 80.1266 34.5884 80.7289 35.1422L91.3354 44.9059V34.3964H95.5796V49.7564C95.5796 51.3732 94.6883 52.3837 93.3564 52.3837C92.7056 52.3837 92.2226 52.1675 91.6446 51.6137L81.0381 41.6277Z" fill="#959994"/>
<path d="M104.638 44.9054V41.5545H113.557V44.9054H104.638ZM98.0576 52.1367V34.6122H114.226V39.0484H102.492V47.6782H114.279V52.1367H98.0576Z" fill="#959994"/>
<path d="M131.441 52.1367L127.345 47.46H123.005V43.7251H129.297C130.766 43.7251 131.659 42.8075 131.659 41.3867C131.659 39.9659 130.766 39.0484 129.297 39.0484H120.859V52.1367H116.425V34.6122H129.297C133.515 34.6122 136.021 37.191 136.021 41.217C136.021 44.0848 134.671 46.0149 132.526 46.8759L137.757 52.1306L131.441 52.1367Z" fill="#959994"/>
<path d="M18.7314 69.0835V64.7928H24.7824C26.278 64.7928 27.1693 63.9723 27.1693 62.695C27.1693 61.4177 26.278 60.5971 24.7824 60.5971H16.583V73.6854H12.1367V56.163H24.7683C29.0124 56.163 31.5185 58.6448 31.5185 62.5495C31.5185 66.4541 29.0104 69.0835 24.7683 69.0835H18.7314Z" fill="#959994"/>
<path d="M46.5209 73.6854V66.6724H39.7968V62.9112H46.5209V56.163H50.9813V73.6854H46.5209ZM33.2163 73.6854V56.163H37.6747V73.6854H33.2163Z" fill="#959994"/>
<path d="M66.2621 69.227C68.8652 69.227 70.6741 67.4444 70.6741 64.9606C70.6741 62.4767 68.841 60.5971 66.2621 60.5971H61.8502C59.3441 60.5971 57.4888 62.4545 57.4888 64.9606C57.4888 67.4667 59.2956 69.227 61.8502 69.227H66.2621ZM61.8502 73.6854C56.7652 73.6854 53.0283 69.8293 53.0283 64.7443C53.0283 59.5846 56.7652 56.163 61.8502 56.163H66.2621C71.4926 56.163 75.1082 59.6573 75.1082 64.7443C75.1082 69.8313 71.3956 73.6854 66.2621 73.6854H61.8502Z" fill="#959994"/>
<path d="M81.3028 63.178V73.6875H77.0586V58.5539C77.0586 56.937 77.9276 55.9265 79.2817 55.9265C79.9345 55.9265 80.3913 56.1428 80.9936 56.6965L91.6 66.4602V55.9508H95.8442V71.3107C95.8442 72.9275 94.9529 73.9381 93.6211 73.9381C92.9703 73.9381 92.4873 73.7198 91.9092 73.166L81.3028 63.178Z" fill="#959994"/>
<path d="M104.902 66.4561V63.1053H113.821V66.4561H104.902ZM98.3218 73.6854V56.163H114.49V60.5971H102.756V69.227H114.543V73.6854H98.3218Z" fill="#959994"/>
<path d="M116.713 73.6855V69.227H130.052C131.089 69.227 131.716 68.746 131.716 67.877C131.716 67.0079 131.089 66.4623 130.052 66.4623H122.233C118.641 66.4623 116.424 64.3887 116.424 61.351C116.424 58.3862 118.496 56.1691 122.285 56.1691H135.036V60.6032H122.281C121.558 60.6032 121.053 61.0074 121.053 61.8563C121.053 62.7051 121.558 63.1114 122.281 63.1114H130.042C133.882 63.1114 135.923 64.7282 135.923 68.2933C135.923 71.3774 133.995 73.6915 130.042 73.6915L116.713 73.6855Z" fill="#959994"/>
<path d="M17.1972 45.4735V42.1226H23.705C24.6933 42.1226 25.1521 41.6153 25.1521 40.8675C25.1521 40.1197 24.6933 39.5902 23.705 39.5902H15.0509V48.2464H24.0183C25.0065 48.2464 25.4896 47.6926 25.4896 46.8478C25.4896 46.003 25.0065 45.4755 24.0183 45.4755L17.1972 45.4735ZM10.6167 52.7048V35.1803H23.5817C27.2196 35.1803 29.6812 36.7224 29.6812 39.7842C29.6812 41.8053 28.7414 42.7976 28.0644 43.2786C28.6786 43.6547 29.1854 44.1828 29.5359 44.8119C29.8863 45.441 30.0687 46.1499 30.0652 46.87C30.0652 50.6069 27.5814 52.7048 24.1112 52.7048H10.6167Z" fill="#959994"/>
<path d="M47.2278 35.1803H51.565V44.9662C51.565 50.3907 48.7941 52.9453 41.7791 52.9453C34.764 52.9453 31.9932 50.3907 31.9932 44.9662V35.1803H36.5971V44.9662C36.5971 47.6421 37.7289 48.5576 41.9246 48.5576C46.1203 48.5576 47.2278 47.64 47.2278 44.9662V35.1803Z" fill="#959994"/>
<path d="M68.8773 52.7048L64.7786 48.0281H60.4394V44.2912H66.7309C68.2022 44.2912 69.0935 43.3756 69.0935 41.9528C69.0935 40.53 68.2022 39.6145 66.7309 39.6145H58.2951V52.7048H53.8589V35.1803H66.7309C70.9509 35.1803 73.457 37.7592 73.457 41.7851C73.457 44.6529 72.1069 46.581 69.9626 47.444L75.193 52.6987L68.8773 52.7048Z" fill="#959994"/>
<path d="M80.4722 42.1929V52.7024H76.228V37.5647C76.228 35.9479 77.0951 34.9374 78.4512 34.9374C79.102 34.9374 79.5607 35.1557 80.163 35.7094L90.7674 45.4731V34.9637H95.0116V50.3236C95.0116 51.9404 94.1183 52.951 92.7885 52.951C92.1377 52.951 91.6567 52.7327 91.0787 52.1789L80.4722 42.1929Z" fill="#959994"/>
<path d="M104.07 45.4735V42.1226H112.989V45.4735H104.07ZM97.4893 52.7048V35.1803H113.658V39.6145H101.925V48.2464H113.72V52.7068L97.4893 52.7048Z" fill="#959994"/>
<path d="M130.875 52.7048L126.776 48.0281H122.437V44.2912H128.728C130.2 44.2912 131.091 43.3756 131.091 41.9528C131.091 40.53 130.2 39.6145 128.728 39.6145H120.293V52.7048H115.856V35.1803H128.728C132.946 35.1803 135.455 37.7592 135.455 41.7851C135.455 44.6529 134.104 46.581 131.958 47.444L137.191 52.6987L130.875 52.7048Z" fill="#959994"/>
<path d="M18.1616 69.6487V65.3581H24.2126C25.7061 65.3581 26.5974 64.5395 26.5974 63.2602C26.5974 61.9809 25.7061 61.1644 24.2126 61.1644H16.0152V74.2527H11.5811V56.7343H24.2126C28.4568 56.7343 30.9609 59.2181 30.9609 63.1228C30.9609 67.0274 28.4548 69.6548 24.2126 69.6548L18.1616 69.6487Z" fill="#959994"/>
<path d="M45.955 74.2527V67.2437H39.229V63.4845H45.955V56.7343H50.4134V74.2587L45.955 74.2527ZM32.6484 74.2527V56.7343H37.1069V74.2587L32.6484 74.2527Z" fill="#959994"/>
<path d="M65.6962 69.7947C68.2993 69.7947 70.1061 68.0101 70.1061 65.5283C70.1061 63.0464 68.2751 61.1648 65.6962 61.1648H61.2843C58.7782 61.1648 56.9208 63.0202 56.9208 65.5283C56.9208 68.0364 58.7398 69.7947 61.2843 69.7947H65.6962ZM61.2843 74.2531C56.1973 74.2531 52.4624 70.397 52.4624 65.31C52.4624 60.1523 56.1973 56.7286 61.2843 56.7286H65.6962C70.9267 56.7286 74.5423 60.225 74.5423 65.31C74.5423 70.3949 70.8297 74.2531 65.6962 74.2531H61.2843Z" fill="#959994"/>
<path d="M80.7369 63.7437V74.2531H76.4927V59.1155C76.4927 57.4987 77.3597 56.4882 78.7158 56.4882C79.3666 56.4882 79.8254 56.7044 80.4277 57.2602L91.0341 67.0219V56.5124H95.2783V71.8724C95.2783 73.4892 94.385 74.4997 93.0551 74.4997C92.4044 74.4997 91.9234 74.2835 91.3453 73.7297L80.7369 63.7437Z" fill="#959994"/>
<path d="M104.334 67.0214V63.6705H113.253V67.0214H104.334ZM97.7539 74.2527V56.7343H113.922V61.1705H102.2V69.8003H113.987V74.2587L97.7539 74.2527Z" fill="#959994"/>
<path d="M116.145 74.2536V69.7952H129.484C130.521 69.7952 131.148 69.3121 131.148 68.4451C131.148 67.5781 130.521 67.0304 129.484 67.0304H121.667C118.074 67.0304 115.856 64.9568 115.856 61.9212C115.856 58.9563 117.93 56.7372 121.717 56.7372H134.47V61.1734H121.717C120.996 61.1734 120.489 61.5776 120.489 62.4264C120.489 63.2753 120.996 63.6795 121.717 63.6795H129.484C133.324 63.6795 135.366 65.2963 135.366 68.8614C135.366 71.9476 133.438 74.2617 129.484 74.2617L116.145 74.2536Z" fill="#959994"/>
<path d="M13.4502 49.863V32.3446H26.4112C30.049 32.3446 32.5107 33.8867 32.5107 36.9485C32.5107 38.9696 31.5689 39.9619 30.8938 40.4429C31.5082 40.8193 32.0151 41.3478 32.3656 41.9772C32.716 42.6067 32.8983 43.3159 32.8947 44.0364C32.8947 47.7712 30.4128 49.8691 26.9407 49.8691L13.4502 49.863ZM20.0307 42.6317V39.2869H26.5405C27.5288 39.2869 27.9856 38.7796 27.9856 38.0338C27.9856 37.2881 27.5288 36.7565 26.5405 36.7565H17.8864V45.4167H26.8538C27.8421 45.4167 28.3231 44.863 28.3231 44.0202C28.3231 43.1774 27.8421 42.6459 26.8538 42.6459L20.0307 42.6317Z" fill="#F7F9F6" stroke="#959994" stroke-width="0.404209" stroke-miterlimit="10"/>
<path d="M50.0573 32.3446H54.3965V42.1305C54.3965 47.555 51.6257 50.1096 44.6106 50.1096C37.5956 50.1096 34.8247 47.555 34.8247 42.1305V32.3446H39.4286V42.1305C39.4286 44.8064 40.5604 45.7219 44.7541 45.7219C48.9478 45.7219 50.0573 44.8104 50.0573 42.1305V32.3446Z" fill="#F7F9F6" stroke="#959994" stroke-width="0.404209" stroke-miterlimit="10"/>
<path d="M71.7131 49.863L67.6144 45.1863H63.2752V41.4555H69.5667C71.038 41.4555 71.9293 40.5399 71.9293 39.1171C71.9293 37.6943 71.038 36.7788 69.5667 36.7788H61.1309V49.863H56.6846V32.3446H69.5566C73.7745 32.3446 76.2826 34.9235 76.2826 38.9494C76.2826 41.8172 74.9326 43.7453 72.7862 44.6083L78.0167 49.863H71.7131Z" fill="#F7F9F6" stroke="#959994" stroke-width="0.404209" stroke-miterlimit="10"/>
<path d="M83.3057 39.3539V49.8634H79.0615V34.7257C79.0615 33.1089 79.9306 32.0984 81.2847 32.0984C81.9355 32.0984 82.3922 32.3146 82.9945 32.8684L93.6009 42.6321V32.1226H97.8451V47.4826C97.8451 49.0994 96.9538 50.1099 95.622 50.1099C94.9712 50.1099 94.4902 49.8937 93.9101 49.3379L83.3057 39.3539Z" fill="#F7F9F6" stroke="#959994" stroke-width="0.404209" stroke-miterlimit="10"/>
<path d="M100.325 49.863V32.3446H116.494V36.7788H104.759V45.4167H116.55V49.863H100.325ZM106.704 42.6317V39.2869H115.825V42.6378L106.704 42.6317Z" fill="#F7F9F6" stroke="#959994" stroke-width="0.404209" stroke-miterlimit="10"/>
<path d="M133.709 49.863L129.612 45.1863H125.273V41.4555H131.564C133.036 41.4555 133.927 40.5399 133.927 39.1171C133.927 37.6943 133.036 36.7788 131.564 36.7788H123.129V49.863H118.692V32.3446H131.564C135.782 32.3446 138.288 34.9235 138.288 38.9494C138.288 41.8172 136.94 43.7453 134.794 44.6083L140.025 49.863H133.709Z" fill="#F7F9F6" stroke="#959994" stroke-width="0.404209" stroke-miterlimit="10"/>
<path d="M20.9965 66.8136V62.5229H27.0455C28.5411 62.5229 29.4324 61.7044 29.4324 60.4271C29.4324 59.1498 28.5411 58.3292 27.0455 58.3292H18.8502V71.4175H14.416V53.9052H27.0455C31.2897 53.9052 33.7958 56.387 33.7958 60.2917C33.7958 64.1963 31.2877 66.8237 27.0455 66.8237L20.9965 66.8136Z" fill="#F7F9F6" stroke="#959994" stroke-width="0.404209" stroke-miterlimit="10"/>
<path d="M35.4834 71.4175V53.9052H39.9519V71.4276L35.4834 71.4175ZM48.7879 71.4175V64.4146H42.0639V60.6433H48.7879V53.9052H53.2484V71.4276L48.7879 71.4175Z" fill="#F7F9F6" stroke="#959994" stroke-width="0.404209" stroke-miterlimit="10"/>
<path d="M64.1198 71.4177C59.0328 71.4177 55.2959 67.5616 55.2959 62.4766C55.2959 57.3169 59.0328 53.8953 64.1198 53.8953H68.5297C73.7602 53.8953 77.3758 57.3896 77.3758 62.4766C77.3758 67.5636 73.6652 71.4177 68.5297 71.4177H64.1198ZM68.5297 66.9593C71.1328 66.9593 72.9416 65.1747 72.9416 62.6929C72.9416 60.211 71.1086 58.3294 68.5297 58.3294H64.1198C61.6117 58.3294 59.7563 60.1848 59.7563 62.6929C59.7563 65.201 61.5632 66.9593 64.1198 66.9593H68.5297Z" fill="#F7F9F6" stroke="#959994" stroke-width="0.404209" stroke-miterlimit="10"/>
<path d="M83.5723 60.9088V71.4182H79.3281V56.2806C79.3281 54.6637 80.1972 53.6532 81.5513 53.6532C82.2021 53.6532 82.6588 53.8715 83.2611 54.4252L93.8675 64.1869V53.6774H98.1117V69.0374C98.1117 70.6542 97.2204 71.6648 95.8886 71.6648C95.2378 71.6648 94.7568 71.4465 94.1767 70.8927L83.5723 60.9088Z" fill="#F7F9F6" stroke="#959994" stroke-width="0.404209" stroke-miterlimit="10"/>
<path d="M100.583 71.4175V53.9052H116.752V58.3393H105.03V66.9692H116.812V71.4276L100.583 71.4175ZM106.962 64.1862V60.8373H116.083V64.1862H106.962Z" fill="#F7F9F6" stroke="#959994" stroke-width="0.404209" stroke-miterlimit="10"/>
<path d="M118.975 71.4177V66.9593H132.314C133.349 66.9593 133.977 66.4762 133.977 65.6092C133.977 64.7422 133.349 64.1945 132.314 64.1945H124.5C120.909 64.1945 118.692 62.1229 118.692 59.0853C118.692 56.1204 120.765 53.9033 124.553 53.9033H137.304V58.3375H124.549C123.825 58.3375 123.32 58.7417 123.32 59.5905C123.32 60.4394 123.825 60.8456 124.549 60.8456H132.314C136.154 60.8456 138.195 62.4624 138.195 66.0276C138.195 69.1117 136.267 71.4258 132.314 71.4258L118.975 71.4177Z" fill="#F7F9F6" stroke="#959994" stroke-width="0.404209" stroke-miterlimit="10"/>
<path d="M53.5942 33.7411V40.7642" stroke="#959994" stroke-width="0.202105" stroke-miterlimit="10"/>
<path d="M53.0908 33.7411V39.6567" stroke="#959994" stroke-width="0.202105" stroke-miterlimit="10"/>
<path d="M80.3794 44.4891V48.3615" stroke="#959994" stroke-width="0.202105" stroke-miterlimit="10"/>
<path d="M79.876 44.4891V49.1658" stroke="#959994" stroke-width="0.202105" stroke-miterlimit="10"/>
<path d="M16.021 55.1017V58.974" stroke="#959994" stroke-width="0.202105" stroke-miterlimit="10"/>
<path d="M15.5176 55.1017V61.949" stroke="#959994" stroke-width="0.202105" stroke-miterlimit="10"/>
<path d="M101.461 54.8495V61.1814" stroke="#959994" stroke-width="0.202105" stroke-miterlimit="10"/>
<path d="M52.4443 54.6836V59.5604" stroke="#959994" stroke-width="0.202105" stroke-miterlimit="10"/>
<path d="M122.233 44.1943V49.0711" stroke="#959994" stroke-width="0.202105" stroke-miterlimit="10"/>
<path d="M136.481 54.6289V57.6888" stroke="#959994" stroke-width="0.202105" stroke-miterlimit="10"/>
<path d="M80.2114 65.2499V70.7249" stroke="#959994" stroke-width="0.202105" stroke-miterlimit="10"/>
<path d="M14.394 33.5673V40.7662" stroke="#959994" stroke-width="0.202105" stroke-miterlimit="10"/>
</g>
<defs>
<linearGradient id="paint0_linear_1170_4302" x1="3.19556" y1="61.2136" x2="151.272" y2="61.2136" gradientUnits="userSpaceOnUse">
<stop stop-color="#10E80C"/>
<stop offset="1" stop-color="#231F20"/>
</linearGradient>
<linearGradient id="paint1_linear_1170_4302" x1="71.0582" y1="26.3728" x2="75.6075" y2="5.7076" gradientUnits="userSpaceOnUse">
<stop stop-color="#F7F9F6" stop-opacity="0"/>
<stop offset="1" stop-color="#959994" stop-opacity="0.7"/>
</linearGradient>
<linearGradient id="paint2_linear_1170_4302" x1="75.965" y1="27.4542" x2="80.5144" y2="6.787" gradientUnits="userSpaceOnUse">
<stop stop-color="#F7F9F6" stop-opacity="0"/>
<stop offset="1" stop-color="#959994" stop-opacity="0.7"/>
</linearGradient>
<clipPath id="clip0_1170_4302">
<rect width="149.905" height="106.6" fill="white"/>
</clipPath>
</defs>
</svg>
