<svg width="112" height="112" viewBox="0 0 112 112" fill="none" xmlns="http://www.w3.org/2000/svg">
<g clip-path="url(#clip0_1454_21863)">
<circle cx="56" cy="56" r="55.5" fill="url(#paint0_linear_1454_21863)" stroke="#B9BEB7"/>
<path d="M97.7658 48.7995C97.7671 48.7801 97.7671 48.7605 97.7658 48.741L97.7517 48.645L95.8453 41.5148L95.8312 41.468C95.8254 41.4381 95.8159 41.409 95.8031 41.3814L92.6764 34.6936L88.4185 28.6402C88.4028 28.611 88.3831 28.5842 88.3599 28.5606L83.1628 23.4107L77.1085 19.2089L70.4101 16.1518L69.8082 15.9458L64.1684 14.5413L63.0396 14.2369L62.5172 14.1386L61.7888 14.0473L60.8801 13.9677L59.8238 13.9022L58.6294 13.853L57.3834 13.8249L56.0905 13.8109L54.8024 13.8249L53.5541 13.8554L52.383 13.9046L51.3525 13.9677L50.4672 14.045H50.4086L49.706 14.1363L49.1205 14.244L42.401 15.9434L41.7592 16.1611L36.3045 18.7009L35.5878 18.9795L35.1663 19.1738C35.1334 19.1841 35.1025 19.1999 35.0749 19.2206L29.1073 23.3569C29.0781 23.3726 29.0513 23.3923 29.0276 23.4154L24.0202 28.4061L23.8633 28.5629C23.8392 28.5834 23.818 28.607 23.8001 28.6331L19.5843 34.6444C19.5744 34.6551 19.5658 34.6669 19.5585 34.6796L16.4693 41.2971L16.4319 41.3791C16.4166 41.4056 16.4048 41.4339 16.3967 41.4633L14.4973 48.5608V48.5889C14.4887 48.6098 14.4831 48.6319 14.4809 48.6544L14.4598 48.7902L13.8274 56.0468V56.0889C13.8251 56.1123 13.8251 56.1358 13.8274 56.1592L14.4692 63.4532L14.4832 63.5188C14.4813 63.5398 14.4813 63.561 14.4832 63.582L16.3897 70.6865V70.7099C16.3962 70.7388 16.4056 70.767 16.4178 70.7941L19.1768 76.6954L19.5328 77.4539C19.5443 77.4836 19.5593 77.5118 19.5773 77.5381L23.793 83.5307C23.8087 83.5604 23.8293 83.5873 23.8539 83.6103L29.0323 88.7601C29.053 88.7856 29.0775 88.8077 29.1049 88.8257L35.0749 92.9549C35.1005 92.976 35.1289 92.9933 35.1592 93.0064L35.6277 93.2218L36.2975 93.4769L41.778 96.0261L42.4057 96.2392L48.0595 97.6437L49.172 97.9433L49.7177 98.0463L50.4203 98.1329L51.3572 98.2148L52.4111 98.278L53.5564 98.3248L56.1163 98.3717L58.6575 98.3225L59.8285 98.2757L60.8544 98.2125L61.7678 98.1329L62.4962 98.0439L63.0864 97.9339L64.1708 97.6366L68.0118 96.6862L69.8222 96.2181L70.4382 96.0121L77.0265 93.0017H77.0734L77.1202 92.9549L82.596 89.1628L83.0949 88.814C83.124 88.7993 83.1502 88.7795 83.1722 88.7555L88.1936 83.7648L88.3482 83.6103C88.3717 83.5891 88.3929 83.5656 88.4115 83.5401L92.5382 77.6622L92.6225 77.5405C92.6428 77.5165 92.6593 77.4897 92.6717 77.4609L95.7492 70.8714L95.7844 70.7918C95.7996 70.7653 95.8114 70.737 95.8195 70.7075L97.7213 63.6031V63.575C97.7213 63.5516 97.733 63.5305 97.7377 63.5094L98.3864 56.1217V56.0749L97.7658 48.7995ZM58.2546 97.6203L58.8448 97.007L59.7208 96.9882L58.5497 97.6132L58.2546 97.6203ZM57.2288 14.5202L57.8284 15.1382H56.4489V14.5225L57.2288 14.5202ZM58.531 14.5459L59.688 15.1662L58.8167 15.1475L58.2265 14.5389L58.531 14.5459ZM56.4489 15.8311L58.4397 15.8451L59.3531 17.7927L56.4512 17.774L56.4489 15.8311ZM60.6108 90.3964L59.674 93.6431L56.484 93.6666V90.4385L60.6108 90.3964ZM62.3861 85.2465L67.3303 85.1669L65.6159 89.6145L61.5102 89.6941L62.3861 85.2465ZM75.0334 78.8466L72.9255 84.3149L68.3046 84.4436L69.759 78.9637L75.0334 78.8466ZM64.4307 56.419H71.3751L71.1409 63.6335L64.3113 63.6639L64.4307 56.419ZM72.9091 27.8256L75.017 33.2891L69.7473 33.1744L68.2858 27.6991L72.9091 27.8256ZM77.7338 71.1312L78.7269 64.2749L84.1137 64.2117L82.8466 71.0095L77.7338 71.1312ZM82.8396 41.1216L84.0996 47.91L78.7128 47.8492L77.7127 40.9928L82.8396 41.1216ZM84.6219 55.7144H79.1274L78.7854 48.5608L84.191 48.624L84.6219 55.7144ZM78.7901 63.5726L79.1274 56.419H84.6219L84.198 63.5094L78.7901 63.5726ZM84.8163 47.9334L83.5563 41.145L87.6854 41.2831L89.1562 48.0083L84.8163 47.9334ZM77.5769 40.2999L75.9773 34.0218L80.6123 34.1739L82.6335 40.4146L77.5769 40.2999ZM78.0711 48.5561L78.413 55.7168H72.066L71.8318 48.5093L78.0711 48.5561ZM72.066 56.419H78.413L78.0758 63.5797L71.8341 63.6288L72.066 56.419ZM77.5886 71.8382L82.6452 71.7211L80.6287 77.9641L75.9937 78.1187L77.5886 71.8382ZM89.7535 56.4167L89.2593 63.4228L84.8889 63.4977L85.3129 56.4167H89.7535ZM85.3035 55.7144L84.8726 48.6357L89.2406 48.7106L89.7417 55.7144H85.3035ZM83.3666 40.4357L81.3477 34.2067L85.074 34.387L87.4324 40.5715L83.3666 40.4357ZM81.083 33.4904L78.4224 28.0713L81.5819 28.2633L84.6969 33.666L81.083 33.4904ZM75.7548 33.3102L73.6469 27.8583L77.6284 28.0245L80.2961 33.4623L75.7548 33.3102ZM75.2372 33.9984L76.8392 40.2859L70.9839 40.1993L69.8738 33.879L75.2372 33.9984ZM76.9867 40.9905L77.9868 47.8538L71.7709 47.807L71.0682 40.9015L76.9867 40.9905ZM64.2832 48.4812L71.1127 48.5093L71.347 55.7214H64.4026L64.2832 48.4812ZM77.9938 64.2866L76.9984 71.1499L71.087 71.2412L71.7755 64.3357L77.9938 64.2866ZM76.8485 71.8545L75.2535 78.1444L69.8902 78.2638L70.9956 71.9435L76.8485 71.8545ZM80.3008 78.6828L77.6612 84.1182L73.6914 84.2868L75.7993 78.8303L80.3008 78.6828ZM84.7109 78.4791L81.6241 83.8842L78.4646 84.0784L81.1182 78.6524L84.7109 78.4791ZM81.3641 77.9361L83.3759 71.7047L87.4418 71.5713L85.0997 77.7558L81.3641 77.9361ZM83.5446 70.9978L84.7976 64.2093L89.1375 64.1344L87.6737 70.862L83.5446 70.9978ZM89.8542 48.0271L88.388 41.3159L91.3906 41.4657L93.0066 48.1067L89.8542 48.0271ZM88.1936 40.6042L85.8515 34.4408L88.5356 34.6327L91.1353 40.7494L88.1936 40.6042ZM78.0453 27.3433L74.914 22.9332L77.3404 23.1087L81.0198 27.5259L78.0453 27.3433ZM73.3611 27.142L70.8809 22.7178L74.0169 22.8723L77.1647 27.3012L73.3611 27.142ZM68.0704 26.9922L66.3512 22.5587L70.0565 22.6804L72.5414 27.128L68.0704 26.9922ZM62.4985 84.5466L63.2433 79.0503L69.033 78.9778L67.5762 84.4623L62.4985 84.5466ZM68.0891 85.1553L72.5625 85.0288L70.0799 89.4764L66.3747 89.6005L68.0891 85.1553ZM77.1834 84.8416L74.0404 89.2681L70.9066 89.4249L73.3799 84.9961L77.1834 84.8416ZM93.0347 64.0338L91.4257 70.6771L88.4232 70.8246L89.8823 64.1134L93.0347 64.0338ZM89.976 63.4088L90.4678 56.4167H93.7046L93.1612 63.3269L89.976 63.4088ZM90.4702 55.7144L89.9689 48.727L93.1542 48.8066L93.7046 55.7168L90.4702 55.7144ZM85.5518 33.7105L82.4508 28.3265L84.6781 28.5255L88.114 33.8837L85.5518 33.7105ZM81.9894 27.5891L78.3404 23.2071L79.9471 23.378L84.0083 27.7694L81.9894 27.5891ZM70.4359 21.9922L67.7729 18.7524L69.8808 18.8695L73.2721 22.1326L70.4359 21.9922ZM66.0398 21.8447L64.1918 18.6073L66.822 18.7033L69.5014 21.9594L66.0398 21.8447ZM65.5877 22.5469L67.3092 26.9945L62.3627 26.9173L61.4844 22.4697L65.5877 22.5469ZM67.5527 27.6968L69.0142 33.1791L63.2246 33.1088L62.4774 27.6172L67.5527 27.6968ZM69.1758 33.8837L70.2883 40.204L63.8733 40.1501L63.3019 33.8111L69.1758 33.8837ZM70.389 40.9062L71.0917 47.8141L64.2996 47.786L63.9436 40.8524L70.389 40.9062ZM71.0917 64.3475L70.389 71.2576L63.9225 71.3138L64.2738 64.3779L71.0917 64.3475ZM70.3024 71.9599L69.1946 78.2802L63.3206 78.3551L63.885 72.0137L70.3024 71.9599ZM56.484 79.0948L62.5407 79.069L61.7959 84.5654L56.4863 84.5958L56.484 79.0948ZM61.6764 85.27L60.7981 89.7176L56.4863 89.7456V85.298L61.6764 85.27ZM65.2528 90.3355L63.4049 93.5893L60.4094 93.6525L61.3462 90.4104L65.2528 90.3355ZM69.5342 90.2021L66.8571 93.4629L64.227 93.5612L66.0702 90.3168L69.5342 90.2021ZM73.3167 90.0265L69.9253 93.3037L67.8174 93.4208L70.4804 90.1764L73.3167 90.0265ZM78.0781 84.8135L81.0526 84.6309L77.3708 89.034L74.9444 89.2072L78.0781 84.8135ZM84.0364 84.3851L79.9799 88.7859L78.3732 88.9521L82.0175 84.5677L84.0364 84.3851ZM82.4813 83.8209L85.5752 78.437L88.1515 78.2568L84.718 83.6173L82.4813 83.8209ZM85.889 77.7137L88.2311 71.5479L91.1658 71.4051L88.573 77.5241L85.889 77.7137ZM93.7631 48.1348L92.1447 41.5148L93.9294 41.6553L95.6345 48.2096L93.7631 48.1348ZM91.9363 40.8009L89.36 34.7147L90.9128 34.8902L93.6554 40.9296L91.9363 40.8009ZM89.0017 33.975L85.5986 28.6683L86.8001 28.8391L90.421 34.1341L89.0017 33.975ZM77.6706 22.4416L73.7734 19.23L74.5345 19.3189L78.8908 22.5703L77.6706 22.4416ZM74.3636 22.2075L71.0003 18.9725L72.4922 19.0918L76.4597 22.369L74.3636 22.2075ZM61.3298 21.7745L60.393 18.5371L63.3909 18.6003L65.2434 21.847L61.3298 21.7745ZM56.484 72.0488L63.1871 72.0278L62.6227 78.3715L56.484 78.3995V72.0488ZM76.4808 89.8393L72.5203 93.1164L71.0261 93.2358L74.387 89.9938L76.4808 89.8393ZM78.9189 89.6216L74.5603 92.88L73.7968 92.969L77.694 89.748L78.9189 89.6216ZM93.6578 71.2459L90.9269 77.2572L89.3741 77.4328L91.9504 71.3466L93.6578 71.2459ZM92.1635 70.6584L93.7678 64.0431L95.6415 63.9682L93.9435 70.5226L92.1635 70.6584ZM93.8709 63.3362L94.4119 56.4494H96.3559L95.782 63.259L93.8709 63.3362ZM94.4142 55.7472L93.8639 48.8604L95.775 48.94L96.3559 55.7472H94.4142ZM85.0646 27.8911L81.083 23.5746L81.7693 23.6846L86.0342 28.0292L85.0646 27.8911ZM80.2656 22.7412L77.3778 20.5853L80.4835 22.7763L80.2656 22.7412ZM70.1618 18.2164L66.993 16.2805L67.2061 16.2992L70.9535 18.2796L70.1618 18.2164ZM67.1171 18.0478L64.5783 16.1003L65.4191 16.1494L68.677 18.1064L67.1171 18.0478ZM63.7328 17.9214L61.9645 15.9762L63.33 16.03L65.9063 18.001L63.7328 17.9214ZM60.126 17.8442L59.2172 15.9013L60.9808 15.9411L62.7632 17.898L60.126 17.8442ZM59.6365 18.5464L60.5733 21.7885L56.4419 21.7628V18.5254L59.6365 18.5464ZM60.763 22.4908L61.6436 26.9384L56.4536 26.915V22.4674L60.763 22.4908ZM61.7654 27.6406L62.5126 33.1346L56.4559 33.1112V27.6149L61.7654 27.6406ZM62.5945 33.8368L63.166 40.1782L56.4606 40.1618V33.8134L62.5945 33.8368ZM63.2152 40.8805L63.5735 47.8164H56.4629V40.8126L63.2152 40.8805ZM63.597 48.5187L63.7211 55.7753H56.4606V48.5187H63.597ZM63.7211 56.4775L63.6016 63.7342H56.47V56.4775H63.7211ZM63.5782 64.4364L63.2269 71.3747L56.4723 71.3957V64.4481L63.5782 64.4364ZM56.4746 94.4461L59.3742 94.425L58.4631 96.3773L56.4723 96.3936L56.4746 94.4461ZM60.1517 94.4156L62.7913 94.3594L61.0089 96.3234L59.2453 96.3632L60.1517 94.4156ZM63.7609 94.336L65.9297 94.2565L63.3534 96.2345L61.9856 96.2883L63.7609 94.336ZM67.1452 94.2096L68.6933 94.123L65.4472 96.1127L64.6041 96.1619L67.1452 94.2096ZM70.9792 93.9755L67.2319 95.9629L67.0141 95.9817L70.1853 94.0387L70.9792 93.9755ZM80.4998 89.4718L77.324 91.719L80.2774 89.5092L80.4998 89.4718ZM81.0854 88.6665L85.0669 84.3406L86.0319 84.2048L81.7927 88.4863L81.0854 88.6665ZM85.6056 83.5564L89.0064 78.2451L90.4257 78.0859L86.8095 83.3879L85.6056 83.5564ZM97.0819 49.1179L97.6698 55.787H97.0538L96.4776 49.043L97.0819 49.1179ZM96.3793 48.3197L94.6742 41.7489L95.1942 41.8332L96.9343 48.3197H96.3793ZM94.4541 41.063L91.7583 35.1173L92.1096 35.1969L94.885 41.1333L94.4541 41.063ZM91.3508 34.2582L87.8377 29.1083L87.9056 29.1271L91.5428 34.298L91.3508 34.2582ZM61.2385 15.2248L61.0464 15.1194L61.3275 15.2271L61.2385 15.2248ZM56.477 97.66V97.0397L57.8612 97.028L57.2592 97.653L56.477 97.66ZM61.3649 96.9578L61.0581 97.0772L61.2689 96.9625L61.3649 96.9578ZM91.5522 77.8658L87.9196 83.0438L87.847 83.0625L91.3601 77.9127L91.5522 77.8658ZM91.763 77.098L94.4564 71.1476L94.8897 71.0774L92.119 77.0185L91.763 77.098ZM94.6906 70.3985L96.3746 63.898L96.946 63.8301L95.2082 70.3166L94.6906 70.3985ZM96.4823 63.1794L97.0514 56.433H97.6698L97.0866 63.1045L96.4823 63.1794ZM53.9662 14.5623L53.3807 15.1709L52.5071 15.1897L53.6618 14.5693L53.9662 14.5623ZM55.7463 14.5342V15.1499H54.3644L54.9616 14.5295L55.7463 14.5342ZM55.7767 94.3899V96.3374L53.7883 96.3234L52.8772 94.3712L55.7767 94.3899ZM52.8491 17.8161L53.7578 15.8685L55.7463 15.8521V17.795L52.8491 17.8161ZM37.2015 33.3172L39.3094 27.8513L43.9327 27.7202L42.4783 33.1978L37.2015 33.3172ZM47.8112 55.7355H40.8669L41.1011 48.5233L47.933 48.4906L47.8112 55.7355ZM36.9767 78.1655L35.377 71.8779L41.2323 71.9622L42.3425 78.2825L36.9767 78.1655ZM29.5804 40.4451L31.5946 34.2044L36.2296 34.0475L34.637 40.3257L29.5804 40.4451ZM28.1306 47.9545L29.386 41.152L34.5058 41.0303L33.5127 47.8866L28.1306 47.9545ZM33.4472 48.5912L33.1122 55.7448H27.6154L28.0393 48.6544L33.4472 48.5912ZM33.4472 63.5984L28.0369 63.5398L27.6083 56.4494H33.1052L33.4472 63.5984ZM33.5104 64.3006L34.5081 71.157L29.3907 71.0423L28.1353 64.221L33.5104 64.3006ZM34.1498 63.5984L33.8078 56.4377H40.1573L40.3915 63.6452L34.1498 63.5984ZM40.1573 55.7331H33.8078L34.1451 48.5748L40.3891 48.5233L40.1573 55.7331ZM22.4627 55.7331L22.9569 48.727L27.3273 48.6497L26.9057 55.7284L22.4627 55.7331ZM26.9127 56.4354L27.3437 63.5141L22.971 63.4439L22.4698 56.4401L26.9127 56.4354ZM27.4233 64.2187L28.681 71.0072L24.5495 70.8737L23.081 64.1461L27.4233 64.2187ZM34.651 71.8499L36.2507 78.1304L31.6133 77.9782L29.5921 71.7375L34.651 71.8499ZM35.2295 71.1593L34.2294 64.2936L40.4477 64.3381L41.1503 71.2459L35.2295 71.1593ZM47.9377 63.6686L41.1058 63.6405L40.8716 56.4284H47.8182L47.9377 63.6686ZM34.2247 47.8655L35.2178 41.0022L41.1316 40.9109L40.443 47.8164L34.2247 47.8655ZM35.3677 40.2976L36.9626 34.0101L42.3284 33.8907L41.2253 40.211L35.3677 40.2976ZM31.9061 33.4787L34.5667 28.0409L38.5482 27.87L36.4404 33.3242L31.9061 33.4787ZM24.765 40.5926L27.1071 34.408L30.8357 34.2254L28.8239 40.4544L24.765 40.5926ZM28.667 41.1614L27.4139 47.9498L23.0717 48.0271L24.5332 41.2995L28.667 41.1614ZM28.8426 71.7211L30.8615 77.9501L27.1305 77.7722L24.7744 71.5877L28.8426 71.7211ZM36.4568 78.842L38.5647 84.2985L34.5831 84.1346L31.9178 78.6945L36.4568 78.842ZM42.4877 78.9754L43.9444 84.4553L39.3235 84.3289L37.2156 78.8607L42.4877 78.9754ZM44.1412 27.0086L39.6678 27.1373L42.1457 22.6897L45.8533 22.5657L44.1412 27.0086ZM35.0445 27.327L38.1829 22.8957L41.3213 22.7366L38.848 27.1631L35.0445 27.327ZM27.4959 33.6941L30.6015 28.2914L33.7634 28.0948L31.1121 33.5185L27.4959 33.6941ZM19.1932 48.1371L20.8022 41.4938L23.8071 41.344L22.3503 48.0551L19.1932 48.1371ZM22.2566 48.7597L21.7624 55.7495H18.5233L19.0667 48.8393L22.2566 48.7597ZM21.7624 56.4518L22.2613 63.4416L19.0737 63.3643L18.5233 56.4541L21.7624 56.4518ZM22.355 64.1461L23.8188 70.855L20.8139 70.7099L19.1979 64.0689L22.355 64.1461ZM24.0132 71.569L26.3553 77.7324L23.6689 77.5452L21.0715 71.4262L24.0132 71.569ZM31.1262 78.6758L33.7844 84.0972L30.6226 83.9076L27.5123 78.5002L31.1262 78.6758ZM38.8691 85.0241L41.3447 89.453L38.2087 89.2985L35.0632 84.865L38.8691 85.0241ZM44.1622 85.1716L45.8767 89.6192L42.1715 89.4998L39.6865 85.0522L44.1622 85.1716ZM44.6752 84.4694L43.2161 78.9824L49.0057 79.0526L49.7528 84.549L44.6752 84.4694ZM43.0544 78.2802L41.9443 71.9599L48.3616 72.0137L48.9284 78.3551L43.0544 78.2802ZM41.8436 71.2576L41.141 64.3475L47.9471 64.3755L48.3031 71.3115L41.8436 71.2576ZM41.141 47.8164L41.8295 40.9062L48.296 40.8477L47.9471 47.7813L41.141 47.8164ZM41.9302 40.204L43.0334 33.8837L48.9097 33.8064L48.3452 40.1478L41.9302 40.204ZM43.1973 33.1814L44.6518 27.6991L49.7271 27.6149L48.9846 33.1065L43.1973 33.1814ZM44.8953 26.9922L46.6074 22.5446L50.7154 22.465L49.8418 26.9126L44.8953 26.9922ZM42.6961 21.9758L45.3708 18.7173L47.9986 18.6213L46.1601 21.8587L42.6961 21.9758ZM38.9113 22.1514L42.3003 18.8742L44.4082 18.7571L41.7499 21.9968L38.9113 22.1514ZM37.2718 22.9542L34.1474 27.3644L31.173 27.5493L34.8454 23.1298L37.2718 22.9542ZM24.0835 33.9235L27.5123 28.5629L29.742 28.3616L26.6481 33.7456L24.0835 33.9235ZM26.3366 34.4642L23.9945 40.63L21.0575 40.7751L23.6478 34.6585L26.3366 34.4642ZM26.6645 78.4557L29.7607 83.8397L27.5334 83.6407L24.0975 78.2802L26.6645 78.4557ZM34.1592 84.8228L37.2905 89.2353L34.8618 89.0621L31.1847 84.6426L34.1592 84.8228ZM41.771 90.174L44.4363 93.4184L42.3143 93.3014L38.9206 90.0242L41.771 90.174ZM46.1694 90.3191L48.015 93.5612L45.3848 93.4676L42.7265 90.2044L46.1694 90.3191ZM46.6214 89.6169L44.9023 85.1693L49.8489 85.2442L50.7271 89.6918L46.6214 89.6169ZM46.9657 21.8283L48.8113 18.5816L51.8068 18.5184L50.87 21.7534L46.9657 21.8283ZM37.8316 22.1982L35.7237 22.3503L39.6818 19.0731L41.1761 18.9537L37.8316 22.1982ZM28.1798 27.7858L32.2316 23.3896L33.8406 23.2188L30.1987 27.6008L28.1798 27.7858ZM18.5561 40.946L21.2894 34.9043L22.8445 34.7287L20.2682 40.8149L18.5561 40.946ZM20.0527 41.5312L18.4484 48.1464L16.5747 48.2237L18.2727 41.6693L20.0527 41.5312ZM18.3453 48.8534L17.8043 55.7378H15.858L16.4319 48.9306L18.3453 48.8534ZM17.802 56.4401L18.3524 63.3269L16.4365 63.2519L15.8557 56.4424L17.802 56.4401ZM18.4531 64.0338L20.0644 70.649L18.2774 70.5109L16.5724 63.9565L18.4531 64.0338ZM20.2799 71.3677L22.8562 77.4539L21.2987 77.2806L18.5819 71.2436L20.2799 71.3677ZM23.2122 78.1959L26.6153 83.5049L25.4091 83.3364L21.807 78.032L23.2122 78.1959ZM30.2198 84.5677L33.8641 88.9521L32.255 88.7859L28.1985 84.3898L30.2198 84.5677ZM37.8526 89.968L41.2135 93.2054L39.7193 93.0884L35.7565 89.8112L37.8526 89.968ZM48.8371 93.5776L46.9868 90.3262L50.8911 90.3964L51.8279 93.6385L48.8371 93.5776ZM50.4461 84.5536L49.699 79.0573L55.7556 79.0784V84.5864L50.4461 84.5536ZM49.6193 78.3551L49.0502 72.009L55.7556 72.0254V78.3761L49.6193 78.3551ZM48.9987 71.3068L48.6427 64.3685H55.7533V71.3162L48.9987 71.3068ZM48.6193 63.6663L48.4951 56.4096H55.7556V63.6663H48.6193ZM48.4951 55.7074L48.6146 48.4508H55.7463V55.7074H48.4951ZM48.638 47.7485L48.9893 40.8126L55.7439 40.7915V47.7368L48.638 47.7485ZM49.0385 40.1103L49.603 33.769L55.7416 33.7409V40.1103H49.0385ZM49.706 33.0878L50.4508 27.5915L55.7603 27.5634V33.0597L49.706 33.0878ZM50.5702 26.8892L51.4438 22.4416L55.758 22.4135V26.8611L50.5702 26.8892ZM51.6241 21.7394L52.561 18.4973L55.7486 18.4739V21.7113L51.6241 21.7394ZM52.0762 17.802L49.4366 17.8582L51.2143 15.8989L52.9802 15.8592L52.0762 17.802ZM48.467 17.8816L46.2982 17.9636L48.8745 15.9902L50.2423 15.9364L48.467 17.8816ZM45.0827 18.0104L43.5346 18.097L46.776 16.112L47.6192 16.0628L45.0827 18.0104ZM41.2487 18.2445L44.996 16.2665H45.0077L45.2232 16.2477L42.0567 18.1859L41.2487 18.2445ZM38.4382 19.2159L34.5433 22.4322L33.3207 22.561L37.6723 19.3049L38.4382 19.2159ZM26.1867 28.0152L30.4469 23.6706L31.1496 23.5559L27.168 27.8771L26.1867 28.0152ZM26.6176 28.6636L23.2216 33.9726L21.7976 34.1341L25.4138 28.8345L26.6176 28.6636ZM27.1727 84.2797L31.1543 88.601L30.4516 88.4886L26.1867 84.144L27.1727 84.2797ZM34.569 89.7199L38.4663 92.9362L37.6981 92.8473L33.3394 89.5911L34.569 89.7199ZM42.0755 93.9685L45.2466 95.9091L45.0265 95.8904L41.2791 93.903L42.0755 93.9685ZM45.1085 94.1347L47.6496 96.087L46.8041 96.0378L43.558 94.0505L45.1085 94.1347ZM48.4928 94.2611L50.2634 96.2087L48.8933 96.1572L46.317 94.1815L48.4928 94.2611ZM52.1019 94.336L53.0083 96.2836L51.2424 96.2462L49.4624 94.2822L52.1019 94.336ZM55.7814 90.4198V93.6619L52.5914 93.6408L51.6546 90.3964L55.7814 90.4198ZM55.7814 89.7176L51.4672 89.6918L50.5913 85.2442L55.7814 85.27V89.7176ZM50.863 15.206L51.1511 15.096L50.9543 15.2014L50.863 15.206ZM31.7187 22.7483L34.8571 20.5291L31.9389 22.7108L31.7187 22.7483ZM20.856 34.2582L20.6664 34.3004L24.2989 29.1271L24.3715 29.106L20.856 34.2582ZM20.4579 35.0681L17.7668 41.0162L17.3289 41.0888L20.0996 35.1501L20.4579 35.0681ZM17.5303 41.7676L15.8486 48.2565L15.2819 48.3033L17.0103 41.8519L17.5303 41.7676ZM15.7409 48.9704L15.1695 55.7331H14.5488L15.1367 49.0219L15.7409 48.9704ZM15.1695 56.4354L15.7456 63.1981L15.139 63.1489L14.5488 56.4354H15.1695ZM15.8533 63.9121L17.5443 70.4009L17.0197 70.319L15.2866 63.8652L15.8533 63.9121ZM17.7739 71.1476L20.472 77.098L20.1136 77.0185L17.3382 71.0797L17.7739 71.1476ZM20.8725 77.908L24.3856 83.0578L24.313 83.0368L20.6734 77.8612L20.8725 77.908ZM31.9623 89.4437L34.9484 91.6745L31.7374 89.4085L31.9623 89.4437ZM50.9824 96.9344L51.1979 97.0514L50.8817 96.9297L50.9824 96.9344ZM53.4065 96.9882L53.9944 97.6015H53.6875L52.5165 96.9765L53.4065 96.9882ZM55.772 97.007V97.6273H54.9898L54.3878 97.0023L55.772 97.007Z" fill="url(#paint1_linear_1454_21863)"/>
</g>
<defs>
<linearGradient id="paint0_linear_1454_21863" x1="56" y1="0" x2="56" y2="112" gradientUnits="userSpaceOnUse">
<stop stop-color="#E0E6DE"/>
<stop offset="1" stop-color="#E0E6DE" stop-opacity="0"/>
</linearGradient>
<linearGradient id="paint1_linear_1454_21863" x1="56.1061" y1="13.8109" x2="56.1061" y2="98.3717" gradientUnits="userSpaceOnUse">
<stop stop-color="#717470"/>
<stop offset="1" stop-color="#717470" stop-opacity="0"/>
</linearGradient>
<clipPath id="clip0_1454_21863">
<rect width="112" height="112" fill="white"/>
</clipPath>
</defs>
</svg>
