<svg width="1002" height="171" viewBox="0 0 1002 171" fill="none" xmlns="http://www.w3.org/2000/svg">
<path d="M1001.02 169.197L921.571 127.935H875.02H828.479H781.929H735.388H688.838H642.287L623.997 98.1945L610.176 75.7359L599.371 58.1856L590.698 44.0725L583.576 32.4937L577.623 22.8228L572.575 14.6229H550.778H528.981H507.174H485.377H463.58H441.783L436.076 22.8228L429.357 32.4937L421.303 44.0725L411.499 58.1856L399.299 75.7359L383.681 98.1945L363.014 127.935H316.463H269.913H223.372H176.821H130.271H83.7303L0.982544 169.197" stroke="#03BC00" stroke-linecap="round" stroke-linejoin="round"/>
<path d="M56.5419 169.197L130.272 127.935L183.434 98.1944H223.481H263.529H303.587H343.634L364.154 75.7358H399.301H434.447H469.593H504.739H539.885H575.031H610.178H645.324L664.046 98.1944H704.094H744.152H784.199H824.247L875.021 127.935L945.461 169.197" stroke="#03BC00" stroke-linecap="round" stroke-linejoin="round"/>
<path d="M112.098 169.197L176.821 127.935L223.479 98.1945L258.714 75.7359L286.257 58.1856H317.563H348.878L364.84 44.0725H393.071H421.302H449.533H477.764H506.004H534.235H562.466H590.697H618.928H647.159L661.991 58.1856H693.307H724.622L750.761 75.7359L784.198 98.1945L828.479 127.935L889.901 169.197" stroke="#03BC00" stroke-linecap="round" stroke-linejoin="round"/>
<path d="M83.7313 127.935L143.376 98.1945H183.433L223.56 75.7359H258.716H293.862H329.008H364.154L380.195 58.1856L393.073 44.0725L403.652 32.4937H429.358H455.055H480.761H506.468H532.164H557.871H583.577H609.274L618.93 44.0725L630.688 58.1856L645.324 75.7359H680.47H715.616H750.762H785.908L824.247 98.1945H864.305L921.572 127.935" stroke="#03BC00" stroke-linecap="round" stroke-linejoin="round"/>
<path d="M167.656 169.197L223.372 127.935L263.527 98.1946L293.86 75.736L317.563 58.1857L336.609 44.0726L352.247 32.4938H377.944L388.897 22.8229H412.491H436.076H459.67H483.255H506.849H530.444H554.029H577.623H601.208H624.802H648.397H671.981L686.382 32.4938H712.088L731.852 44.0726H760.083L787.243 58.1857" stroke="#03BC00" stroke-linecap="round" stroke-linejoin="round"/>
<path d="M1001.02 169.197H945.46H889.902H834.344H778.786H723.228H667.679H612.111L595.747 127.935L583.939 98.1943L575.03 75.7358L568.056 58.1854L562.467 44.0724L557.87 32.4935L554.029 22.8227L550.778 14.6228L547.978 7.57354L545.552 1.45642H526.633H507.704H488.776H469.857L466.939 7.57354L463.58 14.6228L459.671 22.8227L455.054 32.4935L449.533 44.0724L442.815 58.1854L434.445 75.7358L423.739 98.1943L409.554 127.935L389.889 169.197H334.331H278.773H223.215H167.657H112.099H56.5406H0.982544" stroke="#03BC00" stroke-linecap="round" stroke-linejoin="round"/>
<path d="M612.112 169.197H556.564H501.006H445.448H389.89" stroke="#03BC00" stroke-linecap="round" stroke-linejoin="round"/>
<path d="M223.216 169.197L269.914 127.935L303.586 98.1943L329.008 75.7357L348.879 58.1854H380.195H411.5H442.815H474.131H505.436H536.751H568.057H599.372H630.687H661.993L680.47 75.7357L704.094 98.1943L735.389 127.935L778.787 169.197" stroke="#03BC00" stroke-linecap="round" stroke-linejoin="round"/>
<path d="M143.376 98.1943L188.414 75.7357H223.56L254.944 58.1854H286.259L308.38 44.0723H336.611H364.842L377.946 32.4935H403.652L412.493 22.8226L419.988 14.6227H441.784L446.686 7.57349H466.941H487.205H507.46H527.725H547.979H568.244L572.576 14.6227H594.373L601.209 22.8226L609.274 32.4935H634.98L647.161 44.0723H675.392H703.623L724.624 58.1854H755.939L785.909 75.7357H821.055L864.305 98.1943" stroke="#03BC00" stroke-linecap="round" stroke-linejoin="round"/>
<path d="M278.774 169.197L316.464 127.935L343.634 98.1943H383.682H423.74H463.788H503.835H543.893H583.941H623.998H664.046L688.839 127.935L723.229 169.197" stroke="#03BC00" stroke-linecap="round" stroke-linejoin="round"/>
<path d="M334.33 169.197L363.013 127.935H409.554H456.104H502.645H549.195H595.746H642.287L667.679 169.197" stroke="#03BC00" stroke-linecap="round" stroke-linejoin="round"/>
<path d="M188.413 75.7357L223.628 58.1854H254.943L280.149 44.0724H308.38L326.542 32.4935H352.249L365.303 22.8227H388.898L398.19 14.6228H419.987L426.421 7.57354L432.01 1.45642H450.929H469.858" stroke="#03BC00" stroke-linecap="round" stroke-linejoin="round"/>
<path d="M223.628 58.1854L251.917 44.0724H280.148L300.835 32.4935H326.542L341.718 22.8227H365.303L376.383 14.6228H398.19L406.156 7.57354H426.42H446.685L450.928 1.45642" stroke="#03BC00" stroke-linecap="round" stroke-linejoin="round"/>
<path d="M445.448 169.197L456.106 127.935L463.787 98.1943L469.592 75.7358L474.131 58.1854L477.765 44.0724L480.761 32.4935L483.256 22.8227L485.378 14.6228L487.205 7.57354L488.776 1.45642" stroke="#03BC00" stroke-linecap="round" stroke-linejoin="round"/>
<path d="M251.919 44.0724L275.13 32.4935H300.837L318.125 22.8227H341.719L354.587 14.6228H376.384L385.903 7.57354L394.164 1.45642H413.082H432.011" stroke="#03BC00" stroke-linecap="round" stroke-linejoin="round"/>
<path d="M275.129 32.4935L294.539 22.8227H318.124L332.789 14.6228H354.586L365.637 7.57354H385.901H406.156L413.081 1.45642" stroke="#03BC00" stroke-linecap="round" stroke-linejoin="round"/>
<path d="M640.177 1.45642H659.095H678.024L689.802 7.57354L703.367 14.6228" stroke="#03BC00" stroke-linecap="round" stroke-linejoin="round"/>
<path d="M545.553 1.45642H564.482L568.244 7.57354H588.499L594.373 14.6228H616.17L624.804 22.8227L634.98 32.4935H660.687L675.392 44.0724L693.308 58.1854L715.616 75.7358L744.152 98.1943L781.93 127.935L834.345 169.197" stroke="#03BC00" stroke-linecap="round" stroke-linejoin="round"/>
<path d="M602.328 1.45642H621.247H640.176L649.282 7.57354L659.772 14.6228H681.569L695.577 22.8227H719.161L737.795 32.4935" stroke="#03BC00" stroke-linecap="round" stroke-linejoin="round"/>
<path d="M564.481 1.45642H583.4H602.329L608.763 7.57354L616.169 14.6228H637.976L648.398 22.8227L660.686 32.4935H686.383L703.622 44.0724H731.853L755.939 58.1854H787.244L821.054 75.7357" stroke="#03BC00" stroke-linecap="round" stroke-linejoin="round"/>
<path d="M294.538 22.8227L310.991 14.6228H332.788L345.381 7.57354L356.314 1.45642H375.233H394.162" stroke="#03BC00" stroke-linecap="round" stroke-linejoin="round"/>
<path d="M310.992 14.6228L325.117 7.57354H345.381H365.636L375.233 1.45642" stroke="#03BC00" stroke-linecap="round" stroke-linejoin="round"/>
<path d="M325.118 7.57354L337.387 1.45642H356.315" stroke="#03BC00" stroke-linecap="round" stroke-linejoin="round"/>
<path d="M659.094 1.45642L669.536 7.57354H689.801" stroke="#03BC00" stroke-linecap="round" stroke-linejoin="round"/>
<path d="M621.246 1.45642L629.016 7.57354H649.281H669.535L681.568 14.6228H703.365L719.161 22.8227" stroke="#03BC00" stroke-linecap="round" stroke-linejoin="round"/>
<path d="M583.399 1.45642L588.497 7.57354H608.762H629.017L637.975 14.6228H659.772L671.982 22.8227H695.576L712.088 32.4935H737.795L760.083 44.0724" stroke="#03BC00" stroke-linecap="round" stroke-linejoin="round"/>
<path d="M526.634 1.45642L527.724 7.57354L528.982 14.6228L530.445 22.8227L532.164 32.4935L534.237 44.0724L536.752 58.1854L539.885 75.7358L543.893 98.1943L549.197 127.935L556.564 169.197" stroke="#03BC00" stroke-linecap="round" stroke-linejoin="round"/>
<path d="M507.703 1.45642L507.458 7.57354L507.173 14.6228L506.849 22.8227L506.466 32.4935L506.004 44.0724L505.434 58.1854L504.737 75.7358L503.833 98.1943L502.644 127.935L501.004 169.197" stroke="#03BC00" stroke-linecap="round" stroke-linejoin="round"/>
</svg>
