<svg width="20" height="20" viewBox="0 0 20 20" fill="none" xmlns="http://www.w3.org/2000/svg">
<g clip-path="url(#clip0_2488_12420)">
<path d="M11.811 3.35572C11.811 3.35572 9.33533 1.8605 6.28146 1.8605C3.22759 1.8605 0.751953 3.35572 0.751953 3.35572C0.751953 3.35572 3.22759 4.86975 6.28146 4.86975C9.33533 4.86975 11.811 3.35572 11.811 3.35572Z" stroke="#717470" stroke-width="1.25" stroke-miterlimit="10" stroke-linecap="round" stroke-linejoin="round"/>
<path d="M0.751953 7.77669C0.751953 7.77669 2.9284 8.7532 5.71723 8.87695" stroke="#717470" stroke-width="1.25" stroke-miterlimit="10" stroke-linecap="round" stroke-linejoin="round"/>
<path d="M11.8105 6.52673V3.35761" stroke="#717470" stroke-width="1.25" stroke-miterlimit="10" stroke-linecap="round" stroke-linejoin="round"/>
<path d="M0.751953 11.5013C0.751953 11.5013 2.36288 12.2356 4.58875 12.5195" stroke="#717470" stroke-width="1.25" stroke-miterlimit="10" stroke-linecap="round" stroke-linejoin="round"/>
<path d="M0.751953 3.33329V15.7459C0.751953 15.7459 2.45418 16.4322 4.77683 16.6666" stroke="#717470" stroke-width="1.25" stroke-miterlimit="10" stroke-linecap="round" stroke-linejoin="round"/>
<path d="M18.5043 9.70301C18.5043 9.70301 16.0287 8.19839 12.9748 8.19839C9.92095 8.19839 7.44531 9.70301 7.44531 9.70301C7.44531 9.70301 9.92095 11.2076 12.9748 11.2076C16.0287 11.2076 18.5043 9.70301 18.5043 9.70301Z" stroke="#717470" stroke-width="1.25" stroke-miterlimit="10" stroke-linecap="round" stroke-linejoin="round"/>
<path d="M18.5043 13.7186C18.5043 13.7186 16.0287 14.847 12.9748 14.847C9.92095 14.847 7.44531 13.7186 7.44531 13.7186" stroke="#717470" stroke-width="1.25" stroke-miterlimit="10" stroke-linecap="round" stroke-linejoin="round"/>
<path d="M18.5043 9.70379V17.368C18.5043 17.368 16.0287 18.5059 12.9748 18.5059C9.92095 18.5059 7.44531 17.368 7.44531 17.368V9.70379" stroke="#717470" stroke-width="1.25" stroke-miterlimit="10" stroke-linecap="round" stroke-linejoin="round"/>
</g>
<defs>
<clipPath id="clip0_2488_12420">
<rect width="20" height="20" fill="white"/>
</clipPath>
</defs>
</svg>
