<svg width="20" height="20" viewBox="0 0 20 20" fill="none" xmlns="http://www.w3.org/2000/svg">
<g clip-path="url(#clip0_2488_12412)">
<g clip-path="url(#clip1_2488_12412)">
<path d="M18.1463 5.08004C17.2766 3.58995 16.0969 2.41025 14.607 1.54066C13.1168 0.671032 11.49 0.236328 9.72534 0.236328C7.96093 0.236328 6.33357 0.671165 4.84371 1.54066C3.35362 2.4102 2.17401 3.58995 1.30433 5.08004C0.434793 6.57008 0 8.19721 0 9.9614C0 12.0806 0.618282 13.9862 1.85516 15.6788C3.0919 17.3715 4.68958 18.5427 6.64808 19.1927C6.87605 19.235 7.04482 19.2053 7.15455 19.1042C7.26432 19.003 7.31914 18.8762 7.31914 18.7245C7.31914 18.6991 7.31697 18.4713 7.31276 18.0407C7.30841 17.61 7.30637 17.2344 7.30637 16.9138L7.0151 16.9642C6.82939 16.9982 6.59512 17.0127 6.31228 17.0086C6.02958 17.0046 5.73609 16.975 5.43223 16.9199C5.12823 16.8653 4.84548 16.7387 4.58376 16.5403C4.32216 16.3419 4.13646 16.0822 4.02668 15.7616L3.90005 15.4702C3.81565 15.2762 3.68277 15.0607 3.50123 14.8245C3.31969 14.588 3.13612 14.4278 2.95041 14.3434L2.86175 14.2799C2.80267 14.2377 2.74785 14.1868 2.69715 14.1278C2.6465 14.0688 2.60858 14.0097 2.58326 13.9505C2.55789 13.8913 2.57891 13.8427 2.64655 13.8046C2.71419 13.7665 2.83642 13.748 3.01379 13.748L3.26696 13.7859C3.43581 13.8197 3.64467 13.9208 3.8938 14.0897C4.1428 14.2585 4.34749 14.478 4.50791 14.748C4.70218 15.0942 4.93623 15.3581 5.21073 15.5396C5.48501 15.7211 5.76155 15.8117 6.04009 15.8117C6.31863 15.8117 6.5592 15.7906 6.76189 15.7486C6.96436 15.7064 7.15433 15.6429 7.33169 15.5586C7.40767 14.9927 7.61453 14.558 7.9521 14.2542C7.47096 14.2036 7.03839 14.1274 6.65416 14.0262C6.27015 13.9248 5.87332 13.7602 5.46394 13.5321C5.05434 13.3042 4.71455 13.0213 4.44449 12.6838C4.17438 12.3461 3.9527 11.9027 3.77977 11.3541C3.60675 10.8053 3.52021 10.1722 3.52021 9.45467C3.52021 8.43299 3.85375 7.56359 4.52069 6.84595C4.20826 6.07785 4.23776 5.21678 4.60926 4.26283C4.85409 4.18677 5.21716 4.24385 5.6983 4.43372C6.17953 4.62369 6.53187 4.78642 6.75568 4.92134C6.97949 5.05622 7.15881 5.17052 7.2939 5.26322C8.07918 5.0438 8.88955 4.93407 9.72525 4.93407C10.561 4.93407 11.3715 5.0438 12.1568 5.26322L12.638 4.95944C12.9671 4.75675 13.3556 4.571 13.8028 4.40214C14.2502 4.23338 14.5924 4.1869 14.8289 4.26296C15.2086 5.21695 15.2425 6.07798 14.9299 6.84609C15.5968 7.56372 15.9305 8.43335 15.9305 9.4548C15.9305 10.1723 15.8437 10.8074 15.6709 11.3605C15.4979 11.9136 15.2743 12.3565 15.0001 12.6901C14.7255 13.0237 14.3835 13.3044 13.9741 13.5322C13.5647 13.7602 13.1677 13.9247 12.7837 14.0261C12.3995 14.1275 11.9669 14.2037 11.4858 14.2544C11.9246 14.6341 12.1441 15.2336 12.1441 16.0524V18.7241C12.1441 18.8759 12.1969 19.0026 12.3025 19.1039C12.408 19.2049 12.5747 19.2347 12.8026 19.1923C14.7614 18.5424 16.3591 17.3711 17.5958 15.6784C18.8324 13.9859 19.4509 12.0802 19.4509 9.96105C19.4504 8.19708 19.0154 6.57008 18.1463 5.08004Z" fill="#717470"/>
</g>
</g>
<defs>
<clipPath id="clip0_2488_12412">
<rect width="20" height="20" fill="white"/>
</clipPath>
<clipPath id="clip1_2488_12412">
<rect width="19.451" height="19.451" fill="white"/>
</clipPath>
</defs>
</svg>
