<svg width="20" height="20" viewBox="0 0 20 20" fill="none" xmlns="http://www.w3.org/2000/svg">
<g clip-path="url(#clip0_2488_12474)">
<path d="M17.5 14.0367V15.4184C17.5 15.7194 17.3644 16.0044 17.1308 16.1943L14.7756 18.1091C14.5973 18.254 14.3746 18.3332 14.1448 18.3332H3.5C2.94772 18.3332 2.5 17.8855 2.5 17.3332V2.6665C2.5 2.11422 2.94772 1.6665 3.5 1.6665H16.5C17.0523 1.6665 17.5 2.11422 17.5 2.6665V14.1665" stroke="#717470" stroke-width="1.5" stroke-miterlimit="10" stroke-linecap="round" stroke-linejoin="round"/>
<path d="M5 5H6.66667" stroke="#717470" stroke-width="1.5" stroke-miterlimit="10" stroke-linecap="round" stroke-linejoin="round"/>
<path d="M9.16797 5L13.3346 5" stroke="#717470" stroke-width="1.5" stroke-miterlimit="10" stroke-linecap="round" stroke-linejoin="round"/>
<path d="M11.668 7.5H15.0013" stroke="#717470" stroke-width="1.5" stroke-miterlimit="10" stroke-linecap="round" stroke-linejoin="round"/>
<path d="M11.668 12.5H15.0013" stroke="#717470" stroke-width="1.5" stroke-miterlimit="10" stroke-linecap="round" stroke-linejoin="round"/>
<path d="M5 15H11.6667" stroke="#717470" stroke-width="1.5" stroke-miterlimit="10" stroke-linecap="round" stroke-linejoin="round"/>
<path d="M5 7.5H9.16667" stroke="#717470" stroke-width="1.5" stroke-miterlimit="10" stroke-linecap="round" stroke-linejoin="round"/>
<path d="M5 10H5.83333" stroke="#717470" stroke-width="1.5" stroke-miterlimit="10" stroke-linecap="round" stroke-linejoin="round"/>
<path d="M8.33398 10L15.0007 10" stroke="#717470" stroke-width="1.5" stroke-miterlimit="10" stroke-linecap="round" stroke-linejoin="round"/>
<path d="M5 12.5H9.16667" stroke="#717470" stroke-width="1.5" stroke-miterlimit="10" stroke-linecap="round" stroke-linejoin="round"/>
</g>
<defs>
<clipPath id="clip0_2488_12474">
<rect width="20" height="20" fill="white"/>
</clipPath>
</defs>
</svg>
