<svg width="20" height="20" viewBox="0 0 20 20" fill="none" xmlns="http://www.w3.org/2000/svg">
<g clip-path="url(#clip0_2488_12457)">
<path d="M11.666 9.99976C13.9171 9.10543 14.4149 5.06078 16.666 4.16642" stroke="#717470" stroke-width="1.5" stroke-miterlimit="10"/>
<path d="M3.33398 4.16642C5.96026 5.06078 6.54101 9.10539 9.16732 9.99976" stroke="#717470" stroke-width="1.5" stroke-miterlimit="10"/>
<path d="M3.54199 4.96851C3.54199 5.24465 3.31813 5.46851 3.04199 5.46851H1.90625C1.63011 5.46851 1.40625 5.24465 1.40625 4.96851V3.83277C1.40625 3.55663 1.63011 3.33277 1.90625 3.33277H3.04199C3.31813 3.33277 3.54199 3.55663 3.54199 3.83277V4.96851Z" fill="#717470" stroke="#717470" stroke-width="1.8" stroke-miterlimit="10"/>
<path d="M11.3467 11.0103C11.3467 11.2864 11.1228 11.5103 10.8467 11.5103H9.71094C9.43479 11.5103 9.21094 11.2864 9.21094 11.0103V9.87452C9.21094 9.59837 9.4348 9.37452 9.71094 9.37452H10.8467C11.1228 9.37452 11.3467 9.59837 11.3467 9.87452V11.0103Z" fill="#717470" stroke="#717470" stroke-width="1.8" stroke-miterlimit="10"/>
<path d="M19.1514 4.96851C19.1514 5.24465 18.9275 5.46851 18.6514 5.46851H17.5156C17.2395 5.46851 17.0156 5.24465 17.0156 4.96851V3.83277C17.0156 3.55663 17.2395 3.33277 17.5156 3.33277H18.6514C18.9275 3.33277 19.1514 3.55663 19.1514 3.83277V4.96851Z" fill="#717470" stroke="#717470" stroke-width="1.8" stroke-miterlimit="10"/>
<path d="M4.63574 16.2544C4.63574 16.5305 4.41188 16.7544 4.13574 16.7544H3C2.72386 16.7544 2.5 16.5305 2.5 16.2544V15.1187C2.5 14.8425 2.72386 14.6187 3 14.6187H4.13574C4.41188 14.6187 4.63574 14.8425 4.63574 15.1187V16.2544Z" fill="#717470" stroke="#717470" stroke-width="1.8" stroke-miterlimit="10"/>
<path d="M17.9697 16.2544C17.9697 16.5305 17.7459 16.7544 17.4697 16.7544H16.334C16.0578 16.7544 15.834 16.5305 15.834 16.2544V15.1187C15.834 14.8425 16.0578 14.6187 16.334 14.6187H17.4697C17.7459 14.6187 17.9697 14.8425 17.9697 15.1187V16.2544Z" fill="#717470" stroke="#717470" stroke-width="1.8" stroke-miterlimit="10"/>
<path d="M5 15.8333H15.8333" stroke="#717470" stroke-width="1.5" stroke-miterlimit="10"/>
</g>
<defs>
<clipPath id="clip0_2488_12457">
<rect width="20" height="20" fill="white"/>
</clipPath>
</defs>
</svg>
