<svg width="20" height="20" viewBox="0 0 20 20" fill="none" xmlns="http://www.w3.org/2000/svg">
<g clip-path="url(#clip0_2521_12135)">
<path d="M10.0006 18.5455C14.7202 18.5455 18.5462 14.7195 18.5462 9.99991C18.5462 5.28033 14.7202 1.45435 10.0006 1.45435C5.28106 1.45435 1.45508 5.28033 1.45508 9.99991C1.45508 14.7195 5.28106 18.5455 10.0006 18.5455Z" stroke="#717470" stroke-width="1.5" stroke-miterlimit="10" stroke-linecap="round" stroke-linejoin="round"/>
<path fill-rule="evenodd" clip-rule="evenodd" d="M10.7493 1.66663C10.7493 1.25241 10.4136 0.916626 9.99935 0.916626C9.58514 0.916626 9.24935 1.25241 9.24935 1.66663V2.49996C9.24935 2.91417 9.58514 3.24996 9.99935 3.24996C10.4136 3.24996 10.7493 2.91417 10.7493 2.49996V1.66663ZM1.66602 9.24996C1.2518 9.24996 0.916016 9.58575 0.916016 9.99996C0.916016 10.4142 1.2518 10.75 1.66602 10.75H2.49935C2.91356 10.75 3.24935 10.4142 3.24935 9.99996C3.24935 9.58575 2.91356 9.24996 2.49935 9.24996H1.66602ZM9.99935 16.75C10.4136 16.75 10.7493 17.0857 10.7493 17.5V18.3333C10.7493 18.7475 10.4136 19.0833 9.99935 19.0833C9.58514 19.0833 9.24935 18.7475 9.24935 18.3333V17.5C9.24935 17.0857 9.58514 16.75 9.99935 16.75ZM17.4993 9.24996C17.0851 9.24996 16.7493 9.58575 16.7493 9.99996C16.7493 10.4142 17.0851 10.75 17.4993 10.75H18.3327C18.7469 10.75 19.0827 10.4142 19.0827 9.99996C19.0827 9.58575 18.7469 9.24996 18.3327 9.24996H17.4993ZM15.2385 5.58329C15.0314 5.22457 15.1543 4.76588 15.513 4.55877L16.2347 4.14211C16.5934 3.935 17.0521 4.05791 17.2592 4.41663C17.4663 4.77535 17.3434 5.23404 16.9847 5.44114L16.263 5.85781C15.9043 6.06492 15.4456 5.94201 15.2385 5.58329ZM4.42871 4.55877C4.78743 4.76588 4.91034 5.22457 4.70323 5.58329C4.49612 5.94201 4.03743 6.06492 3.67871 5.85781L2.95702 5.44114C2.5983 5.23404 2.4754 4.77535 2.6825 4.41663C2.88961 4.05791 3.3483 3.935 3.70702 4.14211L4.42871 4.55877ZM15.2385 14.625C15.0314 14.9837 15.1543 15.4424 15.513 15.6495L16.2347 16.0661C16.5934 16.2733 17.0521 16.1503 17.2592 15.7916C17.4663 15.4329 17.3434 14.9742 16.9847 14.7671L16.263 14.3504C15.9043 14.1433 15.4456 14.2662 15.2385 14.625ZM4.42871 15.6495C4.78743 15.4424 4.91034 14.9837 4.70323 14.625C4.49612 14.2662 4.03743 14.1433 3.67871 14.3504L2.95702 14.7671C2.5983 14.9742 2.4754 15.4329 2.6825 15.7916C2.88961 16.1503 3.3483 16.2733 3.70702 16.0661L4.42871 15.6495Z" fill="#717470"/>
<path d="M9.99805 9.16667L9.99805 5" stroke="#717470" stroke-width="1.5" stroke-miterlimit="10" stroke-linecap="round" stroke-linejoin="round"/>
<path d="M10.8327 10H14.166" stroke="#717470" stroke-width="1.5" stroke-miterlimit="10" stroke-linecap="round" stroke-linejoin="round"/>
<path d="M9.9987 10.8333C9.53846 10.8333 9.16536 10.4602 9.16536 9.99996C9.16536 9.53972 9.53846 9.16663 9.9987 9.16663C10.4589 9.16663 10.832 9.53972 10.832 9.99996C10.832 10.4602 10.4589 10.8333 9.9987 10.8333Z" fill="#717470" stroke="#717470" stroke-miterlimit="10" stroke-linecap="round" stroke-linejoin="round"/>
</g>
<defs>
<clipPath id="clip0_2521_12135">
<rect width="20" height="20" fill="white"/>
</clipPath>
</defs>
</svg>
