<svg width="18" height="18" viewBox="0 0 18 18" fill="none" xmlns="http://www.w3.org/2000/svg">
<g clip-path="url(#clip0_1442_14086)">
<circle cx="9" cy="9" r="9" fill="#CBD1C9"/>
<path fill-rule="evenodd" clip-rule="evenodd" d="M5.88764 7.73459C5.97017 7.73995 6.04756 7.77651 6.10411 7.83685C6.16066 7.89719 6.19213 7.97679 6.19213 8.05949C6.19213 8.14219 6.16066 8.22179 6.10411 8.28213C6.04756 8.34247 5.97017 8.37903 5.88764 8.38439H4.12155C4.51933 8.79609 4.9959 9.12351 5.52289 9.34714C6.04987 9.57076 6.61648 9.68602 7.18895 9.68604H7.73444C8.10072 10.4552 8.88561 11.0096 9.7926 11.0096C9.83534 11.0096 9.87766 11.0012 9.91714 10.9848C9.95662 10.9684 9.99249 10.9444 10.0227 10.9142C10.0529 10.884 10.0769 10.8481 10.0932 10.8086C10.1095 10.7691 10.1179 10.7267 10.1178 10.684V9.86046C10.316 9.97987 10.4799 10.1484 10.5938 10.3498C10.7076 10.5512 10.7675 10.7786 10.7676 11.0099C10.7672 11.3551 10.6299 11.6859 10.3858 11.93C10.1417 12.174 9.81079 12.3112 9.46565 12.3116H9.23924C9.05502 11.9233 8.76477 11.5951 8.40198 11.3648C8.03919 11.1345 7.61867 11.0115 7.18895 11.0099C7.13004 11.0099 7.07221 11.0258 7.02165 11.056C6.97109 11.0863 6.92969 11.1297 6.90188 11.1816C6.87406 11.2336 6.86088 11.2921 6.86374 11.3509C6.86659 11.4098 6.88538 11.4667 6.91809 11.5157C7.26919 12.0441 7.45648 12.6644 7.45648 13.2988C7.45648 13.9331 7.26919 14.5534 6.91809 15.0818C6.8855 15.1308 6.86681 15.1877 6.86402 15.2465C6.86122 15.3054 6.87442 15.3638 6.90221 15.4157C6.93 15.4676 6.97134 15.511 7.02184 15.5413C7.07233 15.5715 7.13008 15.5875 7.18895 15.5876C7.61856 15.5862 8.03901 15.4633 8.40178 15.2331C8.76456 15.003 9.05488 14.675 9.23924 14.287H9.46701C11.9793 14.287 14.045 12.2008 14.045 9.68741C14.045 7.17405 11.9793 5.13129 9.46701 5.13129H3.26211C3.21937 5.13124 3.17704 5.13962 3.13754 5.15595C3.09804 5.17227 3.06214 5.19622 3.03191 5.22643C3.00167 5.25663 2.97768 5.2925 2.96131 5.33198C2.94495 5.37147 2.93652 5.41379 2.93652 5.45653C2.93664 6.26463 3.16973 7.05557 3.60787 7.73459H5.88764ZM8.26078 6.98766C8.19978 6.92666 8.16551 6.84393 8.16551 6.75767C8.16551 6.6714 8.19978 6.58867 8.26078 6.52767C8.32178 6.46667 8.40451 6.43241 8.49077 6.43241C8.57704 6.43241 8.65977 6.46667 8.72077 6.52767C8.95417 6.76146 9.08527 7.07831 9.08527 7.40866C9.08527 7.73902 8.95417 8.05587 8.72077 8.28966C8.65973 8.35066 8.57695 8.38491 8.49065 8.38487C8.40436 8.38484 8.32161 8.35053 8.26061 8.28949C8.19961 8.22844 8.16536 8.14567 8.16539 8.05937C8.16542 7.97307 8.19974 7.89032 8.26078 7.82932C8.37216 7.71759 8.4347 7.56626 8.4347 7.40849C8.4347 7.25073 8.37216 7.0994 8.26078 6.98766ZM6.95879 6.98766C6.89779 6.92662 6.86354 6.84384 6.86357 6.75755C6.8636 6.67125 6.89791 6.5885 6.95896 6.5275C7.02 6.4665 7.10278 6.43225 7.18907 6.43228C7.27537 6.43232 7.35812 6.46663 7.41912 6.52767C7.65252 6.76146 7.78361 7.07831 7.78361 7.40866C7.78361 7.73902 7.65252 8.05587 7.41912 8.28966C7.35762 8.34848 7.27554 8.38089 7.19045 8.37995C7.10535 8.379 7.02401 8.34478 6.96384 8.28461C6.90366 8.22443 6.86944 8.14309 6.86849 8.05799C6.86755 7.9729 6.89996 7.89082 6.95879 7.82932C7.07033 7.71768 7.13298 7.56631 7.13298 7.40849C7.13298 7.25067 7.07033 7.09931 6.95879 6.98766ZM5.88764 6.43294C5.95204 6.43294 6.01498 6.45203 6.06853 6.48781C6.12207 6.52359 6.1638 6.57443 6.18844 6.63393C6.21308 6.69342 6.21953 6.75888 6.20697 6.82204C6.19441 6.8852 6.1634 6.94321 6.11786 6.98875C6.07233 7.03428 6.01432 7.06529 5.95116 7.07785C5.888 7.09041 5.82254 7.08397 5.76305 7.05932C5.70355 7.03468 5.6527 6.99295 5.61693 6.93941C5.58115 6.88587 5.56206 6.82292 5.56206 6.75852C5.56201 6.71575 5.5704 6.6734 5.58675 6.63387C5.6031 6.59435 5.62708 6.55844 5.65732 6.5282C5.68756 6.49796 5.72347 6.47398 5.76299 6.45763C5.80251 6.44128 5.84487 6.43289 5.88764 6.43294V6.43294Z" fill="#717470"/>
<path fill-rule="evenodd" clip-rule="evenodd" d="M14.0351 6.91242C14.0766 6.16902 14.3876 5.46623 14.9099 4.93566C14.9838 4.8627 15.0342 4.76941 15.0548 4.66767C15.0755 4.56593 15.0653 4.46036 15.0257 4.36442C14.986 4.26847 14.9187 4.1865 14.8324 4.12896C14.746 4.07142 14.6444 4.04091 14.5406 4.04133H12.8812C12.137 4.04746 11.4076 4.24977 10.7666 4.62786C12.0214 5.12341 13.1606 5.91207 14.0351 6.91139V6.91242Z" fill="#717470"/>
<path d="M5.88764 7.73459C5.97017 7.73995 6.04756 7.77651 6.10411 7.83685C6.16066 7.89719 6.19213 7.97679 6.19213 8.05949C6.19213 8.14219 6.16066 8.22179 6.10411 8.28213C6.04756 8.34247 5.97017 8.37903 5.88764 8.38439H4.12155C4.51933 8.79609 4.9959 9.12351 5.52289 9.34714C6.04987 9.57076 6.61648 9.68602 7.18895 9.68604H7.73444C8.10072 10.4552 8.88561 11.0096 9.7926 11.0096C9.83534 11.0096 9.87766 11.0012 9.91714 10.9848C9.95662 10.9684 9.99249 10.9444 10.0227 10.9142C10.0529 10.884 10.0769 10.8481 10.0932 10.8086C10.1095 10.7691 10.1179 10.7267 10.1178 10.684V9.86046C10.316 9.97987 10.4799 10.1484 10.5938 10.3498C10.7076 10.5512 10.7675 10.7786 10.7676 11.0099C10.7672 11.3551 10.6299 11.6859 10.3858 11.93C10.1417 12.174 9.81079 12.3112 9.46565 12.3116H9.23924C9.05502 11.9233 8.76477 11.5951 8.40198 11.3648C8.03919 11.1345 7.61867 11.0115 7.18895 11.0099C7.13004 11.0099 7.07221 11.0258 7.02165 11.056C6.97109 11.0863 6.92969 11.1297 6.90188 11.1816C6.87406 11.2336 6.86088 11.2921 6.86374 11.3509C6.86659 11.4098 6.88538 11.4667 6.91809 11.5157C7.26919 12.0441 7.45648 12.6644 7.45648 13.2988C7.45648 13.9331 7.26919 14.5534 6.91809 15.0818C6.8855 15.1308 6.86681 15.1877 6.86402 15.2465C6.86122 15.3054 6.87442 15.3638 6.90221 15.4157C6.93 15.4676 6.97134 15.511 7.02184 15.5413C7.07233 15.5715 7.13008 15.5875 7.18895 15.5876C7.61856 15.5862 8.03901 15.4633 8.40178 15.2331C8.76456 15.003 9.05488 14.675 9.23924 14.287H9.46701C11.9793 14.287 14.045 12.2008 14.045 9.68741C14.045 7.17405 11.9793 5.13129 9.46701 5.13129H3.26211C3.21937 5.13124 3.17704 5.13962 3.13754 5.15595C3.09804 5.17227 3.06214 5.19622 3.03191 5.22643C3.00167 5.25663 2.97768 5.2925 2.96131 5.33198C2.94495 5.37147 2.93652 5.41379 2.93652 5.45653C2.93664 6.26463 3.16973 7.05557 3.60787 7.73459H5.88764ZM8.26078 6.98766C8.19978 6.92666 8.16551 6.84393 8.16551 6.75767C8.16551 6.6714 8.19978 6.58867 8.26078 6.52767C8.32178 6.46667 8.40451 6.43241 8.49077 6.43241C8.57704 6.43241 8.65977 6.46667 8.72077 6.52767C8.95417 6.76146 9.08527 7.07831 9.08527 7.40866C9.08527 7.73902 8.95417 8.05587 8.72077 8.28966C8.65973 8.35066 8.57695 8.38491 8.49065 8.38487C8.40436 8.38484 8.32161 8.35053 8.26061 8.28949C8.19961 8.22844 8.16536 8.14567 8.16539 8.05937C8.16542 7.97307 8.19974 7.89032 8.26078 7.82932C8.37216 7.71759 8.4347 7.56626 8.4347 7.40849C8.4347 7.25073 8.37216 7.0994 8.26078 6.98766ZM6.95879 6.98766C6.89779 6.92662 6.86354 6.84384 6.86357 6.75755C6.8636 6.67125 6.89791 6.5885 6.95896 6.5275C7.02 6.4665 7.10278 6.43225 7.18907 6.43228C7.27537 6.43232 7.35812 6.46663 7.41912 6.52767C7.65252 6.76146 7.78361 7.07831 7.78361 7.40866C7.78361 7.73902 7.65252 8.05587 7.41912 8.28966C7.35762 8.34848 7.27554 8.38089 7.19045 8.37995C7.10535 8.379 7.02401 8.34478 6.96384 8.28461C6.90366 8.22443 6.86944 8.14309 6.86849 8.05799C6.86755 7.9729 6.89996 7.89082 6.95879 7.82932C7.07033 7.71768 7.13298 7.56631 7.13298 7.40849C7.13298 7.25067 7.07033 7.09931 6.95879 6.98766ZM5.88764 6.43294C5.95204 6.43294 6.01498 6.45203 6.06853 6.48781C6.12207 6.52359 6.1638 6.57443 6.18844 6.63393C6.21308 6.69342 6.21953 6.75888 6.20697 6.82204C6.19441 6.8852 6.1634 6.94321 6.11786 6.98875C6.07233 7.03428 6.01432 7.06529 5.95116 7.07785C5.888 7.09041 5.82254 7.08397 5.76305 7.05932C5.70355 7.03468 5.6527 6.99295 5.61693 6.93941C5.58115 6.88587 5.56206 6.82292 5.56206 6.75852C5.56201 6.71575 5.5704 6.6734 5.58675 6.63387C5.6031 6.59435 5.62708 6.55844 5.65732 6.5282C5.68756 6.49796 5.72347 6.47398 5.76299 6.45763C5.80251 6.44128 5.84487 6.43289 5.88764 6.43294V6.43294Z" fill="#717470"/>
<path d="M14.0351 6.91242C14.0766 6.16902 14.3876 5.46623 14.9099 4.93566C14.9838 4.8627 15.0342 4.76941 15.0548 4.66767C15.0755 4.56593 15.0653 4.46036 15.0257 4.36442C14.986 4.26847 14.9187 4.1865 14.8324 4.12896C14.746 4.07142 14.6444 4.04091 14.5406 4.04133H12.8812C12.137 4.04746 11.4076 4.24977 10.7666 4.62786C12.0214 5.12341 13.1606 5.91207 14.0351 6.91139V6.91242Z" fill="#717470"/>
</g>
<defs>
<clipPath id="clip0_1442_14086">
<rect width="18" height="18" fill="white"/>
</clipPath>
</defs>
</svg>
