<svg width="18" height="18" viewBox="0 0 18 18" fill="none" xmlns="http://www.w3.org/2000/svg">
<circle cx="9" cy="9" r="9" fill="#CBD1C9"/>
<g clip-path="url(#clip0_1442_14084)">
<path d="M5.3525 8.0637C5.85681 8.92266 6.08025 9.64648 6.10836 9.74262C6.18073 9.76278 6.24976 9.78344 6.31547 9.80461C6.23837 9.57059 6.04608 8.99855 5.90761 8.67837C5.90084 8.66272 5.89721 8.6459 5.89695 8.62885C5.89668 8.61181 5.89977 8.59488 5.90605 8.57903C5.91232 8.56318 5.92166 8.54873 5.93352 8.53649C5.94538 8.52425 5.95954 8.51446 5.97518 8.50769C5.99082 8.50092 6.00765 8.4973 6.02469 8.49703C6.04174 8.49676 6.05866 8.49986 6.07451 8.50613C6.10652 8.5188 6.13218 8.54367 6.14586 8.57527C6.32726 8.99401 6.58547 9.79553 6.59635 9.8294C6.60359 9.85245 6.60422 9.87706 6.59817 9.90045C6.83713 9.98454 7.06863 10.0885 7.29024 10.2113C7.35312 10.1998 7.46953 10.181 7.6207 10.168C7.31987 9.33839 7.65759 8.66264 7.82418 8.40142C6.8603 7.72325 6.50111 6.87185 6.3702 6.26685C6.29288 5.91183 6.27247 5.54678 6.30973 5.18536C5.22763 5.00879 4.52891 4.6366 4.2317 4.07998C4.08157 3.79438 4.03866 3.46446 4.11076 3.14996C3.57833 3.33439 3.19012 3.6319 2.95701 4.03644C2.60266 4.65111 2.70515 5.34016 2.74537 5.54031C3.46737 5.87834 4.48567 6.58794 5.3525 8.0637Z" fill="#717470"/>
<path d="M13.7312 5.97568C12.8653 5.90795 12.0553 6.02617 11.7928 6.07062C11.6825 6.68498 11.2024 7.73775 9.61262 9.37828C9.52645 9.46717 9.43907 9.6374 9.35472 9.80157C9.17512 10.152 8.97134 10.5493 8.62153 10.4743C7.96544 10.334 7.29997 10.4743 7.29332 10.4743C7.26006 10.4815 7.22531 10.4753 7.19657 10.4571C7.19173 10.4537 6.67442 10.1311 5.68665 9.90134C5.48703 9.85315 5.28171 9.8328 5.07652 9.84087C5.06775 9.86778 5.05898 9.89137 5.05112 9.91162C5.03729 9.94086 5.01302 9.96386 4.98308 9.9761C4.95314 9.98833 4.91971 9.98891 4.88936 9.97772C4.85902 9.96653 4.83396 9.94438 4.81913 9.91564C4.8043 9.8869 4.80078 9.85365 4.80924 9.82243C4.81589 9.80308 4.82345 9.78131 4.83222 9.75682C4.83787 9.73992 4.83946 9.72192 4.83686 9.70429C4.83427 9.68666 4.82757 9.66988 4.8173 9.65531C4.80703 9.64075 4.79348 9.6288 4.77774 9.62043C4.762 9.61207 4.74452 9.60752 4.7267 9.60716C4.5846 9.59779 4.54529 9.32658 4.53774 9.24676C4.53514 9.22381 4.52571 9.20217 4.51066 9.18465C4.49561 9.16713 4.47564 9.15453 4.45335 9.1485C4.43105 9.14247 4.40745 9.14328 4.38563 9.15083C4.3638 9.15838 4.34474 9.17232 4.33093 9.19083C4.14469 9.44359 3.99623 9.75199 3.89192 10.0072C3.77133 10.3039 3.73047 10.627 3.7734 10.9444L3.84264 11.4539C3.84239 11.4628 3.84529 11.4715 3.85082 11.4785C3.85635 11.4854 3.86416 11.4902 3.87288 11.492L4.10719 11.5346C4.12587 11.538 4.14513 11.5358 4.16252 11.5282C4.17991 11.5206 4.19465 11.508 4.20485 11.492L4.35844 11.2501C4.37352 11.2263 4.3959 11.2081 4.42224 11.1981C4.42556 11.1981 4.70221 11.0887 4.86427 10.8435C4.87046 10.8343 4.87382 10.8236 4.87393 10.8126C4.87404 10.8016 4.8709 10.7908 4.86489 10.7815C4.85889 10.7723 4.85029 10.765 4.84017 10.7607C4.83005 10.7563 4.81887 10.755 4.80803 10.757C4.7778 10.7624 4.76238 10.7664 4.76087 10.7667C4.72783 10.7736 4.69339 10.7674 4.66488 10.7493C4.63636 10.7312 4.616 10.7028 4.60813 10.67C4.60026 10.6371 4.60549 10.6025 4.62272 10.5735C4.63995 10.5445 4.66781 10.5233 4.7004 10.5145C4.74968 10.5027 5.71719 10.2146 6.64267 10.8259C6.63699 10.9395 6.64624 11.0534 6.67018 11.1645C6.76421 11.573 6.98372 12.2128 7.47049 12.5251C7.67549 12.6563 7.83331 12.767 7.93792 12.8405L7.98297 12.8707L7.98872 12.8692L8.48063 12.7748C8.5748 12.756 8.6721 12.7601 8.76437 12.7867C8.85665 12.8132 8.9412 12.8615 9.01095 12.9275L9.3272 13.225C9.34262 13.2393 9.35434 13.2571 9.36137 13.2769C9.36839 13.2968 9.37051 13.318 9.36753 13.3388C9.36456 13.3596 9.35659 13.3794 9.3443 13.3964C9.33201 13.4135 9.31577 13.4273 9.29697 13.4367C9.27323 13.449 9.24621 13.4536 9.21973 13.4497C9.19326 13.4459 9.16866 13.4338 9.14942 13.4152V13.4152L8.83529 13.1174C8.79553 13.0798 8.7473 13.0523 8.69467 13.0372C8.64205 13.0222 8.58658 13.02 8.53294 13.0309L8.03891 13.1295C7.95435 13.1465 7.87934 13.1949 7.82889 13.2648C7.77843 13.3348 7.75626 13.4212 7.76679 13.5068L7.8061 13.8131C7.8138 13.8719 7.83662 13.9277 7.87234 13.975C7.90806 14.0223 7.95545 14.0596 8.00988 14.0831L8.02046 14.0873C8.12832 14.1337 8.22019 14.2107 8.28469 14.3088C8.34918 14.4069 8.38346 14.5217 8.38328 14.6391C8.38321 14.6701 8.37209 14.7 8.35191 14.7235C8.33174 14.747 8.30383 14.7626 8.27322 14.7673L7.94064 14.8184C7.87665 14.8279 7.81823 14.8602 7.77609 14.9093C7.73394 14.9584 7.71089 15.021 7.71116 15.0857V15.3508L7.79945 15.3753L7.80126 15.3675C7.83054 15.2502 7.89884 15.1464 7.99494 15.0731C8.09105 14.9998 8.20923 14.9614 8.33007 14.9641L8.69288 14.9738L8.86733 13.8482C8.87187 13.8155 8.88829 13.7857 8.91346 13.7645C8.93863 13.7432 8.97076 13.732 9.00369 13.733C9.02177 13.734 9.03943 13.7388 9.05554 13.747C9.07166 13.7553 9.08587 13.7668 9.09726 13.7809C9.10865 13.7949 9.11697 13.8112 9.12168 13.8287C9.1264 13.8462 9.1274 13.8644 9.12463 13.8823L9.07867 14.1907C9.11617 14.3706 9.42244 15.7052 10.4214 16.3437C10.5136 16.3867 11.7173 16.9182 12.6572 16.1321C12.6597 16.1303 12.1466 16.4565 11.1032 16.3189C10.0737 16.1832 9.97664 14.9989 9.97543 14.9886C9.97543 14.9841 9.97543 14.9796 9.97543 14.975C9.99751 12.8671 9.53522 12.4138 9.50438 12.3863C9.48975 12.3771 9.47727 12.3649 9.46778 12.3504C9.45829 12.336 9.45201 12.3197 9.44935 12.3026C9.4469 12.2845 9.44833 12.2661 9.45354 12.2487C9.45876 12.2312 9.46764 12.2151 9.47959 12.2013C9.88322 11.6843 10.5018 11.3804 11.2686 11.323C11.571 11.3012 11.875 11.3154 12.1741 11.3653C12.4356 10.0743 13.0932 9.43029 13.6078 9.11645C13.9136 8.92703 14.2547 8.80183 14.6104 8.7485C14.6594 8.23451 14.8453 7.8469 15.1643 7.59232C15.5174 7.31054 15.9444 7.26549 16.1998 7.26912C15.8322 6.51113 15.0032 6.07515 13.7312 5.97568ZM4.10871 11.0608C4.08016 11.0609 4.05223 11.0525 4.02847 11.0367C4.00471 11.0208 3.98617 10.9983 3.97522 10.972C3.96427 10.9456 3.96139 10.9166 3.96694 10.8886C3.9725 10.8606 3.98624 10.8348 4.00643 10.8146C4.02661 10.7945 4.05234 10.7807 4.08034 10.7752C4.10835 10.7696 4.13737 10.7725 4.16373 10.7834C4.1901 10.7944 4.21262 10.8129 4.22844 10.8367C4.24427 10.8605 4.25268 10.8884 4.25262 10.9169C4.25254 10.9551 4.23735 10.9916 4.21038 11.0186C4.18341 11.0456 4.14685 11.0608 4.10871 11.0608ZM12.2566 6.42527C12.1798 7.02361 11.7366 8.09966 10.0619 9.82757C10.0378 9.85227 10.005 9.8664 9.97049 9.86685C9.93602 9.86731 9.90278 9.85405 9.87808 9.82999C9.85338 9.80593 9.83925 9.77305 9.8388 9.73858C9.83834 9.7041 9.8516 9.67086 9.87566 9.64616C10.6101 8.88848 11.8621 7.45808 11.9993 6.3911C12.0015 6.37421 12.007 6.35791 12.0155 6.34314C12.024 6.32836 12.0353 6.31541 12.0488 6.30501C12.0623 6.2946 12.0777 6.28696 12.0941 6.28251C12.1106 6.27806 12.1277 6.2769 12.1446 6.27908C12.1615 6.28127 12.1778 6.28676 12.1926 6.29524C12.2074 6.30372 12.2203 6.31503 12.2307 6.32852C12.2411 6.34201 12.2488 6.35742 12.2532 6.37386C12.2577 6.39031 12.2588 6.40747 12.2566 6.42436V6.42527Z" fill="#717470"/>
</g>
<defs>
<clipPath id="clip0_1442_14084">
<rect width="13.5001" height="13.4094" fill="white" transform="translate(2.7002 3.14996)"/>
</clipPath>
</defs>
</svg>
