<svg width="18" height="18" viewBox="0 0 18 18" fill="none" xmlns="http://www.w3.org/2000/svg">
<circle cx="9" cy="9" r="9" fill="#CBD1C9"/>
<path fill-rule="evenodd" clip-rule="evenodd" d="M8.78815 4.383L7.61441 6.00784H10.3063C10.584 5.98249 10.8523 5.8942 11.0909 5.74967C11.3294 5.60514 11.5318 5.40817 11.6828 5.1737C11.6907 5.15545 11.7013 5.1385 11.7143 5.12343C11.8471 4.90035 11.9313 4.65178 11.9616 4.39394H8.85552C8.83228 4.39404 8.80918 4.39034 8.78712 4.383H8.78815ZM8.66435 14.7114C7.85139 14.6906 7.05394 14.4843 6.33293 14.1081C5.61504 13.7334 4.98206 13.2147 4.47348 12.5845C4.33588 12.4134 4.20866 12.2342 4.09249 12.0479L3.14378 12.0438C3.4485 12.6512 3.90371 13.2586 4.46459 13.7849C5.63799 14.8848 7.12398 15.5076 8.64759 15.5384C9.30057 15.5521 9.95167 15.4634 10.5772 15.2754C10.3687 15.0648 10.1945 14.8229 10.0607 14.5585C9.6398 14.6604 9.20823 14.7117 8.77515 14.7114C8.73856 14.7114 8.70197 14.7114 8.66435 14.7114ZM8.69034 13.4412C8.71907 13.4412 8.74643 13.4412 8.77515 13.4412C9.10429 13.441 9.43226 13.402 9.75225 13.3249C9.75738 13.6024 9.80289 13.8776 9.88734 14.142C9.4894 14.2332 9.08175 14.2751 8.67358 14.2668C7.22795 14.2377 5.78915 13.5045 4.82095 12.3051C4.75255 12.2216 4.68962 12.1361 4.6284 12.05L5.69921 12.0554C6.50838 12.9145 7.59491 13.419 8.69034 13.4409V13.4412ZM9.56996 12.9121C9.28416 12.9744 8.99203 13.003 8.69957 12.9973C7.8603 12.9802 7.02377 12.6433 6.34456 12.0595L7.83944 12.0671H7.85517C8.1902 12.0443 8.52528 12.1105 8.82644 12.2591C9.12759 12.4076 9.38411 12.6331 9.56996 12.9128V12.9121ZM13.295 6.948C13.2826 6.58085 13.1744 6.22333 12.9811 5.91093C12.7878 5.59854 12.5161 5.34215 12.1931 5.16721C12.3798 4.78214 12.4533 4.35199 12.4051 3.92677C13.2306 4.35065 13.9314 4.98234 14.4383 5.75955C15.9972 8.14705 15.1996 11.3434 13.6069 13.2664C13.4189 13.4933 13.215 13.7064 12.9968 13.9043C12.2889 13.2039 12.0276 12.5725 12.2174 12.0188C12.2277 11.9911 12.2323 11.9617 12.231 11.9322C12.2297 11.9027 12.2225 11.8737 12.2099 11.847C12.1973 11.8203 12.1794 11.7964 12.1574 11.7767C12.1354 11.757 12.1097 11.7419 12.0818 11.7323C12.0538 11.7227 12.0243 11.7187 11.9948 11.7207C11.9653 11.7227 11.9366 11.7305 11.9102 11.7437C11.8838 11.757 11.8603 11.7754 11.8411 11.7978C11.8219 11.8203 11.8074 11.8464 11.7984 11.8745V11.8745C11.611 12.419 11.7321 13.0031 12.1589 13.6071C12.3553 13.8779 12.5789 14.128 12.8261 14.3533C12.8354 14.3639 12.8459 14.3734 12.8573 14.3817C13.1991 14.6917 13.5621 14.9774 13.9438 15.2367C13.582 15.4873 13.1579 15.633 12.7185 15.6577C12.279 15.6824 11.8413 15.5851 11.4536 15.3767C11.066 15.1682 10.7435 14.8566 10.5219 14.4764C10.3002 14.0961 10.188 13.662 10.1975 13.222C10.1986 13.1934 10.1938 13.1648 10.1832 13.1382C10.0047 12.6683 9.68069 12.2678 9.2584 11.9951C8.83612 11.7225 8.33773 11.592 7.83602 11.6228L2.94884 11.5992C2.82881 11.2941 2.75426 10.9731 2.72757 10.6464C2.68448 10.0233 2.85787 9.2459 3.92081 9.07079H11.6517C11.6697 9.07104 11.6877 9.06885 11.7051 9.0643C12.1722 8.94667 12.5849 8.67241 12.8742 8.28727C13.1636 7.90213 13.3121 7.42942 13.295 6.948V6.948ZM5.94203 10.0068C5.94203 9.96298 5.92903 9.92009 5.90467 9.88361C5.88031 9.84712 5.84568 9.81867 5.80516 9.80185C5.76465 9.78503 5.72005 9.7806 5.67702 9.78911C5.63398 9.79761 5.59443 9.81869 5.56336 9.84966C5.53229 9.88063 5.5111 9.92012 5.50246 9.96313C5.49382 10.0061 5.49812 10.0507 5.51481 10.0913C5.5315 10.1319 5.55985 10.1666 5.59626 10.1911C5.63267 10.2155 5.67551 10.2287 5.71938 10.2288C5.74858 10.2289 5.77749 10.2231 5.80448 10.212C5.83147 10.2009 5.856 10.1845 5.87667 10.1639C5.89735 10.1433 5.91376 10.1188 5.92497 10.0919C5.93619 10.0649 5.94198 10.036 5.94203 10.0068V10.0068ZM8.85484 3.95345H11.9605C11.9479 3.8418 11.925 3.73156 11.8921 3.6241C11.8874 3.613 11.8835 3.60157 11.8805 3.5899C11.7682 3.25074 11.5591 2.95179 11.2792 2.72984C10.9992 2.50788 10.6604 2.37258 10.3046 2.34058H7.61441L8.78815 3.96542C8.81015 3.9578 8.83328 3.95399 8.85655 3.95413L8.85484 3.95345Z" fill="#717470"/>
</svg>
