<svg width="18" height="18" viewBox="0 0 18 18" fill="none" xmlns="http://www.w3.org/2000/svg">
<circle cx="9" cy="9" r="9" fill="#CBD1C9"/>
<path fill-rule="evenodd" clip-rule="evenodd" d="M6.17917 7.83016C6.27423 7.98897 6.32476 8.17047 6.32543 8.35556V8.88739C6.32532 8.92657 6.31068 8.96431 6.28433 8.99331C6.25799 9.02231 6.22183 9.0405 6.18284 9.04436C6.125 9.04987 4.75657 9.1683 4.1917 8.02141C3.99249 7.61688 3.96954 7.1845 3.97413 6.77752V6.76405C3.97324 6.5985 3.93861 6.43486 3.87238 6.28313C3.80614 6.1314 3.70968 5.99476 3.58888 5.88155C3.46087 5.76182 3.29914 5.68436 3.12562 5.65968C2.95209 5.63499 2.77517 5.66427 2.61886 5.74354L2.54297 5.78302L2.96739 6.18082C3.14082 6.34318 3.27876 6.53969 3.3725 6.75799C3.46624 6.97628 3.51376 7.21162 3.51207 7.44919C3.50687 7.92012 3.58184 8.35984 3.72902 8.72092C4.07664 9.57466 5.29605 10.0061 5.30798 10.0119C5.33857 10.0225 5.36515 10.0422 5.38413 10.0685C5.40311 10.0947 5.41355 10.1261 5.41406 10.1584C5.41456 10.1908 5.40509 10.2225 5.38693 10.2493C5.36877 10.2761 5.34281 10.2966 5.31257 10.3081C4.99349 10.444 4.69614 10.6261 4.43007 10.8485C3.86152 11.3265 3.57327 11.8932 3.57327 12.5331C3.57327 13.2063 3.89549 13.9538 4.53197 14.7592C4.61296 14.6334 4.65801 14.4878 4.66228 14.3382C4.66654 14.1886 4.62984 14.0406 4.55614 13.9104C4.32175 13.5003 4.26973 13.0554 4.40559 12.6236C4.65988 11.8167 5.55584 11.0447 7.06963 10.3286C7.09954 10.3144 7.13321 10.3099 7.16583 10.3158C7.19845 10.3217 7.22837 10.3378 7.25132 10.3618C7.27427 10.3857 7.28908 10.4163 7.29365 10.4491C7.29823 10.4819 7.29233 10.5154 7.27679 10.5447C7.27189 10.5536 6.80249 11.4627 6.80249 12.6796C6.79848 13.5431 7.04509 14.3891 7.51241 15.1151C7.58662 15.0002 7.6357 14.871 7.65642 14.7358C7.67715 14.6007 7.66905 14.4626 7.63267 14.3308C7.49558 13.833 7.49038 13.2751 7.61767 12.6732C7.7924 11.8485 8.21437 10.9664 8.87227 10.0511C8.88686 10.0308 8.90609 10.0142 8.92836 10.0028C8.95063 9.99132 8.9753 9.98536 9.00033 9.98536C9.02537 9.98536 9.05004 9.99132 9.07231 10.0028C9.09458 10.0142 9.1138 10.0308 9.12839 10.0511C9.7866 10.966 10.2086 11.8485 10.383 12.6732C10.5106 13.2751 10.5054 13.8327 10.3683 14.3308C10.3452 14.4153 10.3334 14.5024 10.3334 14.59C10.3327 14.7765 10.3867 14.9592 10.4886 15.1154C11.0767 14.1937 11.3013 13.1613 11.1572 12.0432C11.0424 11.1558 10.7288 10.5508 10.7242 10.5438C10.7086 10.5145 10.7027 10.481 10.7073 10.4482C10.7119 10.4153 10.7267 10.3848 10.7497 10.3608C10.7726 10.3369 10.8025 10.3208 10.8351 10.3149C10.8678 10.3089 10.9014 10.3134 10.9313 10.3277C12.4451 11.0432 13.3417 11.8152 13.5957 12.6227C13.7316 13.0545 13.6795 13.4994 13.4451 13.9079C13.3711 14.0381 13.3342 14.1861 13.3383 14.3358C13.3425 14.4855 13.3876 14.6312 13.4687 14.7571C14.2707 13.7424 14.5721 12.8256 14.3647 12.0294C14.0553 10.8482 12.7022 10.3158 12.6872 10.3091C12.6569 10.2975 12.631 10.2769 12.6129 10.2501C12.5947 10.2233 12.5853 10.1916 12.5858 10.1592C12.5864 10.1269 12.5969 10.0955 12.6159 10.0693C12.6349 10.0431 12.6615 10.0234 12.6921 10.0129C12.7043 10.0086 13.9237 9.57528 14.2713 8.72184C14.4182 8.36107 14.4935 7.92135 14.4883 7.45011C14.4865 7.21253 14.534 6.97717 14.6278 6.75886C14.7215 6.54056 14.8595 6.34405 15.033 6.18174L15.4574 5.78394L15.3797 5.74446C15.2235 5.66497 15.0466 5.63557 14.8732 5.66027C14.6997 5.68497 14.538 5.76256 14.4103 5.88247C14.2877 5.99717 14.1903 6.13598 14.124 6.29017C14.0577 6.44436 14.024 6.6106 14.025 6.77844C14.0299 7.18542 14.0063 7.6181 13.8077 8.02233C13.2432 9.16921 11.875 9.05079 11.8169 9.04528C11.7779 9.04155 11.7416 9.0234 11.7153 8.99437C11.6889 8.96534 11.6743 8.92752 11.6743 8.88831V8.35587C11.6744 8.17175 11.7242 7.99107 11.8184 7.83291C12.1267 7.31505 12.2856 6.72194 12.2774 6.11931C12.2545 4.3286 10.7872 2.88336 8.99957 2.88336H8.96897C7.17856 2.89989 5.72231 4.37022 5.72231 6.16032C5.72215 6.74782 5.87995 7.32456 6.17917 7.83016V7.83016ZM10.2021 7.26069C10.1708 7.2608 10.1401 7.25154 10.114 7.23412C10.088 7.2167 10.0677 7.19189 10.0558 7.16288C10.0439 7.13387 10.0409 7.10197 10.0473 7.07126C10.0536 7.04055 10.069 7.01243 10.0914 6.99049C10.7728 6.3228 10.7805 5.16306 10.7805 5.15143C10.7795 5.13013 10.7829 5.10886 10.7904 5.08891C10.7979 5.06895 10.8094 5.05072 10.8242 5.03532C10.8389 5.01992 10.8566 5.00766 10.8762 4.99928C10.8958 4.99091 10.9169 4.98659 10.9382 4.98659C10.9596 4.98659 10.9807 4.99091 11.0003 4.99928C11.0199 5.00766 11.0376 5.01992 11.0523 5.03532C11.0671 5.05072 11.0785 5.06895 11.086 5.08891C11.0935 5.10886 11.0969 5.13013 11.096 5.15143C11.096 5.20407 11.0871 6.45622 10.3123 7.21571C10.2829 7.24452 10.2433 7.26067 10.2021 7.26069V7.26069ZM7.79699 7.26069C7.75569 7.26075 7.71603 7.2446 7.68652 7.21571C6.91142 6.45622 6.90286 5.20437 6.90286 5.15143C6.90465 5.1108 6.92205 5.07242 6.95143 5.0443C6.98082 5.01618 7.01993 5.00049 7.0606 5.00049C7.10127 5.00049 7.14038 5.01618 7.16976 5.0443C7.19915 5.07242 7.21655 5.1108 7.21834 5.15143C7.21834 5.16826 7.22997 6.32678 7.90745 6.9908C7.92984 7.01272 7.94519 7.04081 7.95153 7.07149C7.95788 7.10217 7.95494 7.13404 7.94308 7.16304C7.93122 7.19204 7.91099 7.21685 7.88497 7.2343C7.85895 7.25175 7.82832 7.26104 7.79699 7.261V7.26069ZM8.99957 6.37696C8.95777 6.37696 8.91769 6.36036 8.88814 6.33081C8.85858 6.30125 8.84198 6.26117 8.84198 6.21937V4.08349C8.84198 4.0417 8.85858 4.00161 8.88814 3.97206C8.91769 3.94251 8.95777 3.9259 8.99957 3.9259C9.04136 3.9259 9.08145 3.94251 9.111 3.97206C9.14055 4.00161 9.15716 4.0417 9.15716 4.08349V6.21907C9.15716 6.26089 9.14056 6.30101 9.11102 6.33061C9.08147 6.36021 9.04139 6.37688 8.99957 6.37696V6.37696Z" fill="#717470"/>
<path fill-rule="evenodd" clip-rule="evenodd" d="M6.17917 7.83016C6.27423 7.98897 6.32476 8.17047 6.32543 8.35556V8.88739C6.32532 8.92657 6.31068 8.96431 6.28433 8.99331C6.25799 9.02231 6.22183 9.0405 6.18284 9.04436C6.125 9.04987 4.75657 9.1683 4.1917 8.02141C3.99249 7.61688 3.96954 7.1845 3.97413 6.77752V6.76405C3.97324 6.5985 3.93861 6.43486 3.87238 6.28313C3.80614 6.1314 3.70968 5.99476 3.58888 5.88155C3.46087 5.76182 3.29914 5.68436 3.12562 5.65968C2.95209 5.63499 2.77517 5.66427 2.61886 5.74354L2.54297 5.78302L2.96739 6.18082C3.14082 6.34318 3.27876 6.53969 3.3725 6.75799C3.46624 6.97628 3.51376 7.21162 3.51207 7.44919C3.50687 7.92012 3.58184 8.35984 3.72902 8.72092C4.07664 9.57466 5.29605 10.0061 5.30798 10.0119C5.33857 10.0225 5.36515 10.0422 5.38413 10.0685C5.40311 10.0947 5.41355 10.1261 5.41406 10.1584C5.41456 10.1908 5.40509 10.2225 5.38693 10.2493C5.36877 10.2761 5.34281 10.2966 5.31257 10.3081C4.99349 10.444 4.69614 10.6261 4.43007 10.8485C3.86152 11.3265 3.57327 11.8932 3.57327 12.5331C3.57327 13.2063 3.89549 13.9538 4.53197 14.7592C4.61296 14.6334 4.65801 14.4878 4.66228 14.3382C4.66654 14.1886 4.62984 14.0406 4.55614 13.9104C4.32175 13.5003 4.26973 13.0554 4.40559 12.6236C4.65988 11.8167 5.55584 11.0447 7.06963 10.3286C7.09954 10.3144 7.13321 10.3099 7.16583 10.3158C7.19845 10.3217 7.22837 10.3378 7.25132 10.3618C7.27427 10.3857 7.28908 10.4163 7.29365 10.4491C7.29823 10.4819 7.29233 10.5154 7.27679 10.5447C7.27189 10.5536 6.80249 11.4627 6.80249 12.6796C6.79848 13.5431 7.04509 14.3891 7.51241 15.1151C7.58662 15.0002 7.6357 14.871 7.65642 14.7358C7.67715 14.6007 7.66905 14.4626 7.63267 14.3308C7.49558 13.833 7.49038 13.2751 7.61767 12.6732C7.7924 11.8485 8.21437 10.9664 8.87227 10.0511C8.88686 10.0308 8.90609 10.0142 8.92836 10.0028C8.95063 9.99132 8.9753 9.98536 9.00033 9.98536C9.02537 9.98536 9.05004 9.99132 9.07231 10.0028C9.09458 10.0142 9.1138 10.0308 9.12839 10.0511C9.7866 10.966 10.2086 11.8485 10.383 12.6732C10.5106 13.2751 10.5054 13.8327 10.3683 14.3308C10.3452 14.4153 10.3334 14.5024 10.3334 14.59C10.3327 14.7765 10.3867 14.9592 10.4886 15.1154C11.0767 14.1937 11.3013 13.1613 11.1572 12.0432C11.0424 11.1558 10.7288 10.5508 10.7242 10.5438C10.7086 10.5145 10.7027 10.481 10.7073 10.4482C10.7119 10.4153 10.7267 10.3848 10.7497 10.3608C10.7726 10.3369 10.8025 10.3208 10.8351 10.3149C10.8678 10.3089 10.9014 10.3134 10.9313 10.3277C12.4451 11.0432 13.3417 11.8152 13.5957 12.6227C13.7316 13.0545 13.6795 13.4994 13.4451 13.9079C13.3711 14.0381 13.3342 14.1861 13.3383 14.3358C13.3425 14.4855 13.3876 14.6312 13.4687 14.7571C14.2707 13.7424 14.5721 12.8256 14.3647 12.0294C14.0553 10.8482 12.7022 10.3158 12.6872 10.3091C12.6569 10.2975 12.631 10.2769 12.6129 10.2501C12.5947 10.2233 12.5853 10.1916 12.5858 10.1592C12.5864 10.1269 12.5969 10.0955 12.6159 10.0693C12.6349 10.0431 12.6615 10.0234 12.6921 10.0129C12.7043 10.0086 13.9237 9.57528 14.2713 8.72184C14.4182 8.36107 14.4935 7.92135 14.4883 7.45011C14.4865 7.21253 14.534 6.97717 14.6278 6.75886C14.7215 6.54056 14.8595 6.34405 15.033 6.18174L15.4574 5.78394L15.3797 5.74446C15.2235 5.66497 15.0466 5.63557 14.8732 5.66027C14.6997 5.68497 14.538 5.76256 14.4103 5.88247C14.2877 5.99717 14.1903 6.13598 14.124 6.29017C14.0577 6.44436 14.024 6.6106 14.025 6.77844C14.0299 7.18542 14.0063 7.6181 13.8077 8.02233C13.2432 9.16921 11.875 9.05079 11.8169 9.04528C11.7779 9.04155 11.7416 9.0234 11.7153 8.99437C11.6889 8.96534 11.6743 8.92752 11.6743 8.88831V8.35587C11.6744 8.17175 11.7242 7.99107 11.8184 7.83291C12.1267 7.31505 12.2856 6.72194 12.2774 6.11931C12.2545 4.3286 10.7872 2.88336 8.99957 2.88336H8.96897C7.17856 2.89989 5.72231 4.37022 5.72231 6.16032C5.72215 6.74782 5.87995 7.32456 6.17917 7.83016V7.83016ZM10.2021 7.26069C10.1708 7.2608 10.1401 7.25154 10.114 7.23412C10.088 7.2167 10.0677 7.19189 10.0558 7.16288C10.0439 7.13387 10.0409 7.10197 10.0473 7.07126C10.0536 7.04055 10.069 7.01243 10.0914 6.99049C10.7728 6.3228 10.7805 5.16306 10.7805 5.15143C10.7795 5.13013 10.7829 5.10886 10.7904 5.08891C10.7979 5.06895 10.8094 5.05072 10.8242 5.03532C10.8389 5.01992 10.8566 5.00766 10.8762 4.99928C10.8958 4.99091 10.9169 4.98659 10.9382 4.98659C10.9596 4.98659 10.9807 4.99091 11.0003 4.99928C11.0199 5.00766 11.0376 5.01992 11.0523 5.03532C11.0671 5.05072 11.0785 5.06895 11.086 5.08891C11.0935 5.10886 11.0969 5.13013 11.096 5.15143C11.096 5.20407 11.0871 6.45622 10.3123 7.21571C10.2829 7.24452 10.2433 7.26067 10.2021 7.26069V7.26069ZM7.79699 7.26069C7.75569 7.26075 7.71603 7.2446 7.68652 7.21571C6.91142 6.45622 6.90286 5.20437 6.90286 5.15143C6.90465 5.1108 6.92205 5.07242 6.95143 5.0443C6.98082 5.01618 7.01993 5.00049 7.0606 5.00049C7.10127 5.00049 7.14038 5.01618 7.16976 5.0443C7.19915 5.07242 7.21655 5.1108 7.21834 5.15143C7.21834 5.16826 7.22997 6.32678 7.90745 6.9908C7.92984 7.01272 7.94519 7.04081 7.95153 7.07149C7.95788 7.10217 7.95494 7.13404 7.94308 7.16304C7.93122 7.19204 7.91099 7.21685 7.88497 7.2343C7.85895 7.25175 7.82832 7.26104 7.79699 7.261V7.26069ZM8.99957 6.37696C8.95777 6.37696 8.91769 6.36036 8.88814 6.33081C8.85858 6.30125 8.84198 6.26117 8.84198 6.21937V4.08349C8.84198 4.0417 8.85858 4.00161 8.88814 3.97206C8.91769 3.94251 8.95777 3.9259 8.99957 3.9259C9.04136 3.9259 9.08145 3.94251 9.111 3.97206C9.14055 4.00161 9.15716 4.0417 9.15716 4.08349V6.21907C9.15716 6.26089 9.14056 6.30101 9.11102 6.33061C9.08147 6.36021 9.04139 6.37688 8.99957 6.37696V6.37696Z" fill="#717470"/>
</svg>
