<svg width="18" height="18" viewBox="0 0 18 18" fill="none" xmlns="http://www.w3.org/2000/svg">
<circle cx="9" cy="9" r="9" fill="#CBD1C9"/>
<path fill-rule="evenodd" clip-rule="evenodd" d="M11.1055 10.9862L11.9115 11.5235C11.9568 11.5537 11.991 11.598 12.0087 11.6495C12.0263 11.7011 12.0265 11.757 12.0092 11.8087L11.6217 12.9714H12.3249L12.7457 11.2885C12.5383 11.224 12.3447 11.1215 12.1748 10.9862H11.1055Z" fill="#717470"/>
<path fill-rule="evenodd" clip-rule="evenodd" d="M5.07222 11.4829C5.07193 11.5262 5.06035 11.5687 5.03864 11.6062L4.25781 12.9724H4.92748L5.81678 11.4181V10.9862H5.07222V11.4829Z" fill="#717470"/>
<path fill-rule="evenodd" clip-rule="evenodd" d="M15.6695 7.39944C15.6283 7.31214 15.5724 7.2326 15.5042 7.16435L14.6865 6.34692C14.6393 6.29997 14.6071 6.24004 14.594 6.17476C14.5809 6.10948 14.5875 6.04178 14.613 5.98027C14.6385 5.91876 14.6817 5.86621 14.7371 5.8293C14.7925 5.79239 14.8577 5.77278 14.9242 5.77297H15.4999C15.5657 5.77297 15.6288 5.74682 15.6754 5.70028C15.7219 5.65373 15.748 5.59061 15.748 5.52478C15.748 5.45896 15.7219 5.39583 15.6754 5.34929C15.6288 5.30275 15.5657 5.2766 15.4999 5.2766H14.9242C14.7595 5.27643 14.5984 5.32516 14.4614 5.41661C14.3243 5.50806 14.2176 5.63813 14.1545 5.79033C14.0915 5.94253 14.075 6.11002 14.1072 6.27158C14.1394 6.43314 14.2189 6.5815 14.3355 6.69787L15.1529 7.5153C15.2168 7.57581 15.2544 7.65898 15.2576 7.74692C15.2608 7.83485 15.2294 7.92053 15.1701 7.98553C15.1107 8.05053 15.0283 8.08964 14.9404 8.09447C14.8526 8.0993 14.7663 8.06945 14.7002 8.01134L14.445 7.79875C14.2219 7.61292 13.9407 7.51109 13.6504 7.51094H13.5725C13.3548 7.20404 13.0667 6.95374 12.7325 6.78097C12.3982 6.60819 12.0274 6.51798 11.6511 6.51786C11.0337 6.5164 10.4332 6.31621 9.93836 5.94693L9.55752 5.66114C8.96313 5.2153 8.23081 4.99286 7.48887 5.03277C6.74694 5.07268 6.04271 5.37241 5.49957 5.87943L5.49151 5.88648L3.01302 8.00764H4.89372L4.9273 7.90353C4.98935 7.71686 5.10863 7.55447 5.26821 7.43945C5.42779 7.32442 5.61955 7.26259 5.81627 7.26275C5.84889 7.26271 5.8812 7.2691 5.91135 7.28155C5.9415 7.294 5.9689 7.31227 5.99198 7.33533C6.01506 7.35838 6.03337 7.38575 6.04587 7.41588C6.05836 7.44602 6.06479 7.47832 6.06479 7.51094V8.50401C6.06453 8.76734 5.95982 9.01982 5.77365 9.20605C5.58748 9.39228 5.33504 9.49707 5.07172 9.49743H4.32716V9.00005H5.07205C5.2037 8.99987 5.3299 8.94747 5.42296 8.85435C5.51602 8.76123 5.56833 8.63499 5.56842 8.50334V7.83502C5.48871 7.88937 5.42911 7.96844 5.39882 8.06003L5.30747 8.33374C5.291 8.38308 5.25945 8.426 5.21726 8.45643C5.17508 8.48686 5.1244 8.50327 5.07239 8.50334H1.8443C1.79227 8.50332 1.74157 8.48693 1.69938 8.4565C1.65718 8.42606 1.62564 8.38311 1.60921 8.33374L1.51753 8.0597C1.48754 7.96841 1.42859 7.88941 1.34961 7.83469V8.50301C1.34961 8.63442 1.40165 8.76049 1.49436 8.85364C1.58706 8.94679 1.71288 8.99943 1.8443 9.00005H2.34101C2.40683 9.00005 2.46996 9.0262 2.5165 9.07274C2.56304 9.11928 2.58919 9.18241 2.58919 9.24823V11.2344H3.23132L3.903 10.5627C3.92607 10.5397 3.95346 10.5214 3.9836 10.509C4.01374 10.4965 4.04603 10.4901 4.07864 10.4902H7.05787V9.99313H7.55424V11.4829C7.55396 11.5262 7.54238 11.5687 7.52065 11.6062L6.74117 12.9724H7.4105L8.29947 11.4181V9.49676H8.79617V10.4898H11.7516C11.6035 10.2274 11.5259 9.93107 11.5265 9.62975V9.24823H12.0229V9.62975C12.0218 9.89702 12.1074 10.1574 12.267 10.3718C12.4266 10.5863 12.6515 10.743 12.9079 10.8186L14.3288 11.2451C14.3914 11.2638 14.4442 11.3063 14.4756 11.3636C14.507 11.4209 14.5146 11.4883 14.4967 11.5511L14.0893 12.9724H14.8027L15.2278 11.0655L14.0826 9.92025C14.0362 9.87373 14.0101 9.81068 14.0101 9.74494V8.87579C14.01 8.58877 13.9573 8.30419 13.8546 8.03619C13.9544 8.06434 14.0472 8.1132 14.1269 8.17959L14.3822 8.39218C14.5309 8.51713 14.7189 8.58584 14.9131 8.58629C15.0533 8.58608 15.1912 8.55057 15.3141 8.48305C15.437 8.41552 15.5409 8.31815 15.6162 8.19992C15.6916 8.08168 15.7359 7.94638 15.7452 7.80649C15.7545 7.6666 15.7285 7.52661 15.6695 7.39944V7.39944Z" fill="#717470"/>
<path d="M11.1055 10.9862L11.9115 11.5235C11.9568 11.5537 11.991 11.598 12.0087 11.6495C12.0263 11.7011 12.0265 11.757 12.0092 11.8087L11.6217 12.9714H12.3249L12.7457 11.2885C12.5383 11.224 12.3447 11.1215 12.1748 10.9862H11.1055Z" fill="#717470"/>
<path d="M5.07222 11.4829C5.07193 11.5262 5.06035 11.5687 5.03864 11.6062L4.25781 12.9724H4.92748L5.81678 11.4181V10.9862H5.07222V11.4829Z" fill="#717470"/>
<path d="M15.6695 7.39944C15.6283 7.31214 15.5724 7.2326 15.5042 7.16435L14.6865 6.34692C14.6393 6.29997 14.6071 6.24004 14.594 6.17476C14.5809 6.10948 14.5875 6.04178 14.613 5.98027C14.6385 5.91876 14.6817 5.86621 14.7371 5.8293C14.7925 5.79239 14.8577 5.77278 14.9242 5.77297H15.4999C15.5657 5.77297 15.6288 5.74682 15.6754 5.70028C15.7219 5.65373 15.748 5.59061 15.748 5.52478C15.748 5.45896 15.7219 5.39583 15.6754 5.34929C15.6288 5.30275 15.5657 5.2766 15.4999 5.2766H14.9242C14.7595 5.27643 14.5984 5.32516 14.4614 5.41661C14.3243 5.50806 14.2176 5.63813 14.1545 5.79033C14.0915 5.94253 14.075 6.11002 14.1072 6.27158C14.1394 6.43314 14.2189 6.5815 14.3355 6.69787L15.1529 7.5153C15.2168 7.57581 15.2544 7.65898 15.2576 7.74692C15.2608 7.83485 15.2294 7.92053 15.1701 7.98553C15.1107 8.05053 15.0283 8.08964 14.9404 8.09447C14.8526 8.0993 14.7663 8.06945 14.7002 8.01134L14.445 7.79875C14.2219 7.61292 13.9407 7.51109 13.6504 7.51094H13.5725C13.3548 7.20404 13.0667 6.95374 12.7325 6.78097C12.3982 6.60819 12.0274 6.51798 11.6511 6.51786C11.0337 6.5164 10.4332 6.31621 9.93836 5.94693L9.55752 5.66114C8.96313 5.2153 8.23081 4.99286 7.48887 5.03277C6.74694 5.07268 6.04271 5.37241 5.49957 5.87943L5.49151 5.88648L3.01302 8.00764H4.89372L4.9273 7.90353C4.98935 7.71686 5.10863 7.55447 5.26821 7.43945C5.42779 7.32442 5.61955 7.26259 5.81627 7.26275C5.84889 7.26271 5.8812 7.2691 5.91135 7.28155C5.9415 7.294 5.9689 7.31227 5.99198 7.33533C6.01506 7.35838 6.03337 7.38575 6.04587 7.41588C6.05836 7.44602 6.06479 7.47832 6.06479 7.51094V8.50401C6.06453 8.76734 5.95982 9.01982 5.77365 9.20605C5.58748 9.39228 5.33504 9.49707 5.07172 9.49743H4.32716V9.00005H5.07205C5.2037 8.99987 5.3299 8.94747 5.42296 8.85435C5.51602 8.76123 5.56833 8.63499 5.56842 8.50334V7.83502C5.48871 7.88937 5.42911 7.96844 5.39882 8.06003L5.30747 8.33374C5.291 8.38308 5.25945 8.426 5.21726 8.45643C5.17508 8.48686 5.1244 8.50327 5.07239 8.50334H1.8443C1.79227 8.50332 1.74157 8.48693 1.69938 8.4565C1.65718 8.42606 1.62564 8.38311 1.60921 8.33374L1.51753 8.0597C1.48754 7.96841 1.42859 7.88941 1.34961 7.83469V8.50301C1.34961 8.63442 1.40165 8.76049 1.49436 8.85364C1.58706 8.94679 1.71288 8.99943 1.8443 9.00005H2.34101C2.40683 9.00005 2.46996 9.0262 2.5165 9.07274C2.56304 9.11928 2.58919 9.18241 2.58919 9.24823V11.2344H3.23132L3.903 10.5627C3.92607 10.5397 3.95346 10.5214 3.9836 10.509C4.01374 10.4965 4.04603 10.4901 4.07864 10.4902H7.05787V9.99313H7.55424V11.4829C7.55396 11.5262 7.54238 11.5687 7.52065 11.6062L6.74117 12.9724H7.4105L8.29947 11.4181V9.49676H8.79617V10.4898H11.7516C11.6035 10.2274 11.5259 9.93107 11.5265 9.62975V9.24823H12.0229V9.62975C12.0218 9.89702 12.1074 10.1574 12.267 10.3718C12.4266 10.5863 12.6515 10.743 12.9079 10.8186L14.3288 11.2451C14.3914 11.2638 14.4442 11.3063 14.4756 11.3636C14.507 11.4209 14.5146 11.4883 14.4967 11.5511L14.0893 12.9724H14.8027L15.2278 11.0655L14.0826 9.92025C14.0362 9.87373 14.0101 9.81068 14.0101 9.74494V8.87579C14.01 8.58877 13.9573 8.30419 13.8546 8.03619C13.9544 8.06434 14.0472 8.1132 14.1269 8.17959L14.3822 8.39218C14.5309 8.51713 14.7189 8.58584 14.9131 8.58629C15.0533 8.58608 15.1912 8.55057 15.3141 8.48305C15.437 8.41552 15.5409 8.31815 15.6162 8.19992C15.6916 8.08168 15.7359 7.94638 15.7452 7.80649C15.7545 7.6666 15.7285 7.52661 15.6695 7.39944V7.39944Z" fill="#717470"/>
</svg>
