<svg width="36" height="36" viewBox="0 0 36 36" fill="none" xmlns="http://www.w3.org/2000/svg">
<g clip-path="url(#clip0_1413_16051)">
<circle cx="18" cy="18" r="17.5" fill="url(#paint0_linear_1413_16051)" stroke="#B9BEB7"/>
<path fill-rule="evenodd" clip-rule="evenodd" d="M11.7753 15.4691C11.9403 15.4798 12.0951 15.5529 12.2082 15.6736C12.3213 15.7943 12.3843 15.9535 12.3843 16.1189C12.3843 16.2843 12.3213 16.4435 12.2082 16.5641C12.0951 16.6848 11.9403 16.7579 11.7753 16.7687H8.24311C9.03865 17.5921 9.99181 18.2469 11.0458 18.6942C12.0997 19.1414 13.233 19.3719 14.3779 19.372H15.4689C16.2014 20.9103 17.7712 22.019 19.5852 22.019C19.6707 22.019 19.7553 22.0022 19.8343 21.9695C19.9132 21.9367 19.985 21.8888 20.0454 21.8283C20.1058 21.7678 20.1537 21.696 20.1864 21.617C20.219 21.538 20.2358 21.4534 20.2357 21.3679V19.7208C20.632 19.9596 20.9598 20.2968 21.1875 20.6995C21.4152 21.1023 21.535 21.5571 21.5353 22.0197C21.5344 22.71 21.2597 23.3717 20.7715 23.8598C20.2834 24.3478 19.6216 24.6223 18.9313 24.623H18.4785C18.11 23.8466 17.5295 23.1901 16.804 22.7295C16.0784 22.2688 15.2373 22.0228 14.3779 22.0197C14.2601 22.0196 14.1444 22.0515 14.0433 22.112C13.9422 22.1724 13.8594 22.2593 13.8038 22.3631C13.7481 22.467 13.7218 22.584 13.7275 22.7017C13.7332 22.8194 13.7708 22.9334 13.8362 23.0314C14.5384 24.0881 14.913 25.3286 14.913 26.5974C14.913 27.8662 14.5384 29.1067 13.8362 30.1634C13.771 30.2615 13.7336 30.3754 13.728 30.493C13.7224 30.6106 13.7488 30.7275 13.8044 30.8313C13.86 30.9351 13.9427 31.0219 14.0437 31.0824C14.1447 31.1429 14.2602 31.175 14.3779 31.1751C15.2371 31.1722 16.078 30.9264 16.8036 30.4662C17.5291 30.0059 18.1098 29.3499 18.4785 28.5738H18.934C23.9587 28.5738 28.09 24.4014 28.09 19.3747C28.09 14.348 23.9587 10.2625 18.934 10.2625H6.52422C6.43873 10.2624 6.35407 10.2791 6.27508 10.3118C6.19608 10.3444 6.12429 10.3923 6.06381 10.4527C6.00334 10.5131 5.95536 10.5849 5.92263 10.6638C5.88989 10.7428 5.87305 10.8275 5.87305 10.9129C5.87329 12.5291 6.33947 14.111 7.21574 15.4691H11.7753ZM16.5216 13.9752C16.3996 13.8532 16.331 13.6877 16.331 13.5152C16.331 13.3427 16.3996 13.1772 16.5216 13.0552C16.6436 12.9332 16.809 12.8647 16.9815 12.8647C17.1541 12.8647 17.3195 12.9332 17.4415 13.0552C17.9083 13.5228 18.1705 14.1565 18.1705 14.8172C18.1705 15.4779 17.9083 16.1116 17.4415 16.5792C17.3195 16.7012 17.1539 16.7697 16.9813 16.7696C16.8087 16.7696 16.6432 16.7009 16.5212 16.5788C16.3992 16.4568 16.3307 16.2912 16.3308 16.1186C16.3308 15.946 16.3995 15.7805 16.5216 15.6585C16.7443 15.4351 16.8694 15.1324 16.8694 14.8169C16.8694 14.5013 16.7443 14.1987 16.5216 13.9752ZM13.9176 13.9752C13.7956 13.8531 13.7271 13.6876 13.7271 13.515C13.7272 13.3424 13.7958 13.1769 13.9179 13.0549C14.04 12.9329 14.2056 12.8644 14.3781 12.8644C14.5507 12.8645 14.7162 12.9331 14.8382 13.0552C15.305 13.5228 15.5672 14.1565 15.5672 14.8172C15.5672 15.4779 15.305 16.1116 14.8382 16.5792C14.7152 16.6968 14.5511 16.7617 14.3809 16.7598C14.2107 16.7579 14.048 16.6894 13.9277 16.5691C13.8073 16.4487 13.7389 16.2861 13.737 16.1159C13.7351 15.9457 13.7999 15.7815 13.9176 15.6585C14.1407 15.4352 14.266 15.1325 14.266 14.8169C14.266 14.5012 14.1407 14.1985 13.9176 13.9752ZM11.7753 12.8658C11.9041 12.8658 12.03 12.9039 12.1371 12.9755C12.2441 13.047 12.3276 13.1487 12.3769 13.2677C12.4262 13.3867 12.4391 13.5176 12.4139 13.644C12.3888 13.7703 12.3268 13.8863 12.2357 13.9774C12.1447 14.0684 12.0286 14.1305 11.9023 14.1556C11.776 14.1807 11.6451 14.1678 11.5261 14.1185C11.4071 14.0692 11.3054 13.9858 11.2339 13.8787C11.1623 13.7716 11.1241 13.6457 11.1241 13.5169C11.124 13.4314 11.1408 13.3467 11.1735 13.2676C11.2062 13.1886 11.2542 13.1168 11.3146 13.0563C11.3751 12.9958 11.4469 12.9478 11.526 12.9151C11.605 12.8824 11.6897 12.8657 11.7753 12.8658V12.8658Z" fill="#717470"/>
<path fill-rule="evenodd" clip-rule="evenodd" d="M28.0702 13.8247C28.1531 12.3379 28.7752 10.9323 29.8199 9.87119C29.9676 9.72528 30.0685 9.53869 30.1097 9.33522C30.1509 9.13174 30.1306 8.9206 30.0513 8.72871C29.9721 8.53682 29.8375 8.37288 29.6647 8.2578C29.4919 8.14271 29.2888 8.08169 29.0811 8.08253H25.7624C24.274 8.09479 22.8152 8.49942 21.5332 9.25559C24.0428 10.2467 26.3212 11.824 28.0702 13.8227V13.8247Z" fill="#717470"/>
<path d="M11.7753 15.4691C11.9403 15.4798 12.0951 15.5529 12.2082 15.6736C12.3213 15.7943 12.3843 15.9535 12.3843 16.1189C12.3843 16.2843 12.3213 16.4435 12.2082 16.5641C12.0951 16.6848 11.9403 16.7579 11.7753 16.7687H8.24311C9.03865 17.5921 9.99181 18.2469 11.0458 18.6942C12.0997 19.1414 13.233 19.3719 14.3779 19.372H15.4689C16.2014 20.9103 17.7712 22.019 19.5852 22.019C19.6707 22.019 19.7553 22.0022 19.8343 21.9695C19.9132 21.9367 19.985 21.8888 20.0454 21.8283C20.1058 21.7678 20.1537 21.696 20.1864 21.617C20.219 21.538 20.2358 21.4534 20.2357 21.3679V19.7208C20.632 19.9596 20.9598 20.2968 21.1875 20.6995C21.4152 21.1023 21.535 21.5571 21.5353 22.0197C21.5344 22.71 21.2597 23.3717 20.7715 23.8598C20.2834 24.3478 19.6216 24.6223 18.9313 24.623H18.4785C18.11 23.8466 17.5295 23.1901 16.804 22.7295C16.0784 22.2688 15.2373 22.0228 14.3779 22.0197C14.2601 22.0196 14.1444 22.0515 14.0433 22.112C13.9422 22.1724 13.8594 22.2593 13.8038 22.3631C13.7481 22.467 13.7218 22.584 13.7275 22.7017C13.7332 22.8194 13.7708 22.9334 13.8362 23.0314C14.5384 24.0881 14.913 25.3286 14.913 26.5974C14.913 27.8662 14.5384 29.1067 13.8362 30.1634C13.771 30.2615 13.7336 30.3754 13.728 30.493C13.7224 30.6106 13.7488 30.7275 13.8044 30.8313C13.86 30.9351 13.9427 31.0219 14.0437 31.0824C14.1447 31.1429 14.2602 31.175 14.3779 31.1751C15.2371 31.1722 16.078 30.9264 16.8036 30.4662C17.5291 30.0059 18.1098 29.3499 18.4785 28.5738H18.934C23.9587 28.5738 28.09 24.4014 28.09 19.3747C28.09 14.348 23.9587 10.2625 18.934 10.2625H6.52422C6.43873 10.2624 6.35407 10.2791 6.27508 10.3118C6.19608 10.3444 6.12429 10.3923 6.06381 10.4527C6.00334 10.5131 5.95536 10.5849 5.92263 10.6638C5.88989 10.7428 5.87305 10.8275 5.87305 10.9129C5.87329 12.5291 6.33947 14.111 7.21574 15.4691H11.7753ZM16.5216 13.9752C16.3996 13.8532 16.331 13.6877 16.331 13.5152C16.331 13.3427 16.3996 13.1772 16.5216 13.0552C16.6436 12.9332 16.809 12.8647 16.9815 12.8647C17.1541 12.8647 17.3195 12.9332 17.4415 13.0552C17.9083 13.5228 18.1705 14.1565 18.1705 14.8172C18.1705 15.4779 17.9083 16.1116 17.4415 16.5792C17.3195 16.7012 17.1539 16.7697 16.9813 16.7696C16.8087 16.7696 16.6432 16.7009 16.5212 16.5788C16.3992 16.4568 16.3307 16.2912 16.3308 16.1186C16.3308 15.946 16.3995 15.7805 16.5216 15.6585C16.7443 15.4351 16.8694 15.1324 16.8694 14.8169C16.8694 14.5013 16.7443 14.1987 16.5216 13.9752ZM13.9176 13.9752C13.7956 13.8531 13.7271 13.6876 13.7271 13.515C13.7272 13.3424 13.7958 13.1769 13.9179 13.0549C14.04 12.9329 14.2056 12.8644 14.3781 12.8644C14.5507 12.8645 14.7162 12.9331 14.8382 13.0552C15.305 13.5228 15.5672 14.1565 15.5672 14.8172C15.5672 15.4779 15.305 16.1116 14.8382 16.5792C14.7152 16.6968 14.5511 16.7617 14.3809 16.7598C14.2107 16.7579 14.048 16.6894 13.9277 16.5691C13.8073 16.4487 13.7389 16.2861 13.737 16.1159C13.7351 15.9457 13.7999 15.7815 13.9176 15.6585C14.1407 15.4352 14.266 15.1325 14.266 14.8169C14.266 14.5012 14.1407 14.1985 13.9176 13.9752ZM11.7753 12.8658C11.9041 12.8658 12.03 12.9039 12.1371 12.9755C12.2441 13.047 12.3276 13.1487 12.3769 13.2677C12.4262 13.3867 12.4391 13.5176 12.4139 13.644C12.3888 13.7703 12.3268 13.8863 12.2357 13.9774C12.1447 14.0684 12.0286 14.1305 11.9023 14.1556C11.776 14.1807 11.6451 14.1678 11.5261 14.1185C11.4071 14.0692 11.3054 13.9858 11.2339 13.8787C11.1623 13.7716 11.1241 13.6457 11.1241 13.5169C11.124 13.4314 11.1408 13.3467 11.1735 13.2676C11.2062 13.1886 11.2542 13.1168 11.3146 13.0563C11.3751 12.9958 11.4469 12.9478 11.526 12.9151C11.605 12.8824 11.6897 12.8657 11.7753 12.8658V12.8658Z" fill="#717470"/>
<path d="M28.0702 13.8247C28.1531 12.3379 28.7752 10.9323 29.8199 9.87119C29.9676 9.72528 30.0685 9.53869 30.1097 9.33522C30.1509 9.13174 30.1306 8.9206 30.0513 8.72871C29.9721 8.53682 29.8375 8.37288 29.6647 8.2578C29.4919 8.14271 29.2888 8.08169 29.0811 8.08253H25.7624C24.274 8.09479 22.8152 8.49942 21.5332 9.25559C24.0428 10.2467 26.3212 11.824 28.0702 13.8227V13.8247Z" fill="#717470"/>
</g>
<defs>
<linearGradient id="paint0_linear_1413_16051" x1="18" y1="0" x2="18" y2="36" gradientUnits="userSpaceOnUse">
<stop stop-color="#E0E6DE"/>
<stop offset="1" stop-color="#E0E6DE" stop-opacity="0"/>
</linearGradient>
<clipPath id="clip0_1413_16051">
<rect width="36" height="36" fill="white"/>
</clipPath>
</defs>
</svg>
