<svg width="36" height="36" viewBox="0 0 36 36" fill="none" xmlns="http://www.w3.org/2000/svg">
<circle cx="18" cy="18" r="17.5" fill="url(#paint0_linear_1413_16022)" stroke="#B9BEB7"/>
<path fill-rule="evenodd" clip-rule="evenodd" d="M22.2129 21.9724L23.8249 23.047C23.9156 23.1074 23.984 23.196 24.0193 23.299C24.0546 23.4021 24.055 23.514 24.0204 23.6173L23.2453 25.9426H24.6518L25.4934 22.5769C25.0786 22.4479 24.6914 22.2429 24.3515 21.9724H22.2129Z" fill="#717470"/>
<path fill-rule="evenodd" clip-rule="evenodd" d="M10.1444 22.9658C10.1439 23.0524 10.1207 23.1373 10.0773 23.2123L8.51562 25.9447H9.85495L11.6336 22.8361V21.9724H10.1444V22.9658Z" fill="#717470"/>
<path fill-rule="evenodd" clip-rule="evenodd" d="M31.3399 14.7988C31.2577 14.6242 31.1459 14.4651 31.0094 14.3286L29.3739 12.6938C29.2795 12.5999 29.2151 12.48 29.189 12.3495C29.1628 12.2189 29.1761 12.0835 29.227 11.9605C29.278 11.8375 29.3644 11.7324 29.4752 11.6585C29.586 11.5847 29.7163 11.5455 29.8494 11.5459H31.0007C31.1323 11.5459 31.2586 11.4936 31.3517 11.4005C31.4448 11.3074 31.4971 11.1812 31.4971 11.0495C31.4971 10.9179 31.4448 10.7916 31.3517 10.6985C31.2586 10.6054 31.1323 10.5531 31.0007 10.5531H29.8494C29.52 10.5528 29.1978 10.6502 28.9237 10.8332C28.6497 11.0161 28.4361 11.2762 28.31 11.5806C28.1839 11.885 28.151 12.22 28.2154 12.5431C28.2799 12.8662 28.4388 13.1629 28.672 13.3957L30.3069 15.0305C30.4346 15.1516 30.5098 15.3179 30.5162 15.4938C30.5226 15.6696 30.4597 15.841 30.3411 15.971C30.2224 16.101 30.0575 16.1792 29.8818 16.1889C29.7061 16.1985 29.5336 16.1388 29.4014 16.0226L28.891 15.5974C28.4447 15.2258 27.8825 15.0221 27.3018 15.0218H27.1459C26.7105 14.408 26.1344 13.9074 25.4659 13.5619C24.7974 13.2163 24.0558 13.0359 23.3033 13.0357C22.0684 13.0327 20.8673 12.6324 19.8777 11.8938L19.116 11.3222C17.9272 10.4305 16.4626 9.98565 14.9787 10.0655C13.4948 10.1453 12.0864 10.7448 11.0001 11.7588L10.984 11.7729L6.02702 16.0152H9.78842L9.85559 15.807C9.97967 15.4337 10.2182 15.1089 10.5374 14.8788C10.8566 14.6488 11.2401 14.5251 11.6335 14.5254C11.6988 14.5254 11.7634 14.5381 11.8237 14.563C11.884 14.5879 11.9388 14.6245 11.9849 14.6706C12.0311 14.7167 12.0677 14.7714 12.0927 14.8317C12.1177 14.892 12.1306 14.9566 12.1306 15.0218V17.008C12.13 17.5346 11.9206 18.0396 11.5483 18.412C11.1759 18.7845 10.6711 18.9941 10.1444 18.9948H8.6553V18H10.1451C10.4084 17.9997 10.6608 17.8949 10.8469 17.7086C11.033 17.5224 11.1376 17.2699 11.1378 17.0066V15.67C10.9784 15.7787 10.8592 15.9368 10.7986 16.12L10.6159 16.6674C10.583 16.7661 10.5199 16.8519 10.4355 16.9128C10.3511 16.9737 10.2498 17.0065 10.1458 17.0066H3.68958C3.58552 17.0066 3.48412 16.9738 3.39973 16.9129C3.31534 16.8521 3.25225 16.7662 3.2194 16.6674L3.03603 16.1193C2.97607 15.9368 2.85815 15.7788 2.7002 15.6693V17.006C2.70019 17.2688 2.80428 17.5209 2.98969 17.7072C3.1751 17.8935 3.42675 17.9988 3.68958 18H4.68299C4.81464 18 4.94089 18.0523 5.03398 18.1454C5.12706 18.2385 5.17936 18.3648 5.17936 18.4964V22.4687H6.46361L7.80697 21.1254C7.85312 21.0793 7.9079 21.0428 7.96817 21.0179C8.02845 20.993 8.09304 20.9802 8.15825 20.9803H14.1167V19.9862H15.1095V22.9658C15.1089 23.0524 15.0857 23.1373 15.0423 23.2123L13.4833 25.9446H14.822L16.5999 22.8361V18.9934H17.5933V20.9796H23.5041C23.2079 20.4548 23.0529 19.8621 23.0541 19.2594V18.4964H24.0468V19.2594C24.0445 19.794 24.2158 20.3148 24.535 20.7436C24.8542 21.1724 25.3039 21.486 25.8167 21.6372L28.6586 22.4902C28.7838 22.5275 28.8893 22.6126 28.9522 22.7272C29.0151 22.8417 29.0302 22.9764 28.9944 23.1021L28.1796 25.9446H29.6063L30.4566 22.1309L28.1662 19.8404C28.0733 19.7474 28.0211 19.6213 28.0211 19.4898V17.7515C28.0211 17.1775 27.9157 16.6083 27.7101 16.0723C27.9098 16.1286 28.0954 16.2263 28.2549 16.3591L28.7653 16.7843C29.0629 17.0342 29.4387 17.1716 29.8273 17.1725C30.1077 17.1721 30.3835 17.1011 30.6292 16.966C30.8749 16.831 31.0827 16.6362 31.2334 16.3998C31.3841 16.1633 31.4728 15.8927 31.4915 15.6129C31.5101 15.3331 31.4579 15.0532 31.3399 14.7988V14.7988Z" fill="#717470"/>
<path d="M22.2129 21.9724L23.8249 23.047C23.9156 23.1074 23.984 23.196 24.0193 23.299C24.0546 23.4021 24.055 23.514 24.0204 23.6173L23.2453 25.9426H24.6518L25.4934 22.5769C25.0786 22.4479 24.6914 22.2429 24.3515 21.9724H22.2129Z" fill="#717470"/>
<path d="M10.1444 22.9658C10.1439 23.0524 10.1207 23.1373 10.0773 23.2123L8.51562 25.9447H9.85495L11.6336 22.8361V21.9724H10.1444V22.9658Z" fill="#717470"/>
<path d="M31.3399 14.7988C31.2577 14.6242 31.1459 14.4651 31.0094 14.3286L29.3739 12.6938C29.2795 12.5999 29.2151 12.48 29.189 12.3495C29.1628 12.2189 29.1761 12.0835 29.227 11.9605C29.278 11.8375 29.3644 11.7324 29.4752 11.6585C29.586 11.5847 29.7163 11.5455 29.8494 11.5459H31.0007C31.1323 11.5459 31.2586 11.4936 31.3517 11.4005C31.4448 11.3074 31.4971 11.1812 31.4971 11.0495C31.4971 10.9179 31.4448 10.7916 31.3517 10.6985C31.2586 10.6054 31.1323 10.5531 31.0007 10.5531H29.8494C29.52 10.5528 29.1978 10.6502 28.9237 10.8332C28.6497 11.0161 28.4361 11.2762 28.31 11.5806C28.1839 11.885 28.151 12.22 28.2154 12.5431C28.2799 12.8662 28.4388 13.1629 28.672 13.3957L30.3069 15.0305C30.4346 15.1516 30.5098 15.3179 30.5162 15.4938C30.5226 15.6696 30.4597 15.841 30.3411 15.971C30.2224 16.101 30.0575 16.1792 29.8818 16.1889C29.7061 16.1985 29.5336 16.1388 29.4014 16.0226L28.891 15.5974C28.4447 15.2258 27.8825 15.0221 27.3018 15.0218H27.1459C26.7105 14.408 26.1344 13.9074 25.4659 13.5619C24.7974 13.2163 24.0558 13.0359 23.3033 13.0357C22.0684 13.0327 20.8673 12.6324 19.8777 11.8938L19.116 11.3222C17.9272 10.4305 16.4626 9.98565 14.9787 10.0655C13.4948 10.1453 12.0864 10.7448 11.0001 11.7588L10.984 11.7729L6.02702 16.0152H9.78842L9.85559 15.807C9.97967 15.4337 10.2182 15.1089 10.5374 14.8788C10.8566 14.6488 11.2401 14.5251 11.6335 14.5254C11.6988 14.5254 11.7634 14.5381 11.8237 14.563C11.884 14.5879 11.9388 14.6245 11.9849 14.6706C12.0311 14.7167 12.0677 14.7714 12.0927 14.8317C12.1177 14.892 12.1306 14.9566 12.1306 15.0218V17.008C12.13 17.5346 11.9206 18.0396 11.5483 18.412C11.1759 18.7845 10.6711 18.9941 10.1444 18.9948H8.6553V18H10.1451C10.4084 17.9997 10.6608 17.8949 10.8469 17.7086C11.033 17.5224 11.1376 17.2699 11.1378 17.0066V15.67C10.9784 15.7787 10.8592 15.9368 10.7986 16.12L10.6159 16.6674C10.583 16.7661 10.5199 16.8519 10.4355 16.9128C10.3511 16.9737 10.2498 17.0065 10.1458 17.0066H3.68958C3.58552 17.0066 3.48412 16.9738 3.39973 16.9129C3.31534 16.8521 3.25225 16.7662 3.2194 16.6674L3.03603 16.1193C2.97607 15.9368 2.85815 15.7788 2.7002 15.6693V17.006C2.70019 17.2688 2.80428 17.5209 2.98969 17.7072C3.1751 17.8935 3.42675 17.9988 3.68958 18H4.68299C4.81464 18 4.94089 18.0523 5.03398 18.1454C5.12706 18.2385 5.17936 18.3648 5.17936 18.4964V22.4687H6.46361L7.80697 21.1254C7.85312 21.0793 7.9079 21.0428 7.96817 21.0179C8.02845 20.993 8.09304 20.9802 8.15825 20.9803H14.1167V19.9862H15.1095V22.9658C15.1089 23.0524 15.0857 23.1373 15.0423 23.2123L13.4833 25.9446H14.822L16.5999 22.8361V18.9934H17.5933V20.9796H23.5041C23.2079 20.4548 23.0529 19.8621 23.0541 19.2594V18.4964H24.0468V19.2594C24.0445 19.794 24.2158 20.3148 24.535 20.7436C24.8542 21.1724 25.3039 21.486 25.8167 21.6372L28.6586 22.4902C28.7838 22.5275 28.8893 22.6126 28.9522 22.7272C29.0151 22.8417 29.0302 22.9764 28.9944 23.1021L28.1796 25.9446H29.6063L30.4566 22.1309L28.1662 19.8404C28.0733 19.7474 28.0211 19.6213 28.0211 19.4898V17.7515C28.0211 17.1775 27.9157 16.6083 27.7101 16.0723C27.9098 16.1286 28.0954 16.2263 28.2549 16.3591L28.7653 16.7843C29.0629 17.0342 29.4387 17.1716 29.8273 17.1725C30.1077 17.1721 30.3835 17.1011 30.6292 16.966C30.8749 16.831 31.0827 16.6362 31.2334 16.3998C31.3841 16.1633 31.4728 15.8927 31.4915 15.6129C31.5101 15.3331 31.4579 15.0532 31.3399 14.7988V14.7988Z" fill="#717470"/>
<defs>
<linearGradient id="paint0_linear_1413_16022" x1="18" y1="0" x2="18" y2="36" gradientUnits="userSpaceOnUse">
<stop stop-color="#E0E6DE"/>
<stop offset="1" stop-color="#E0E6DE" stop-opacity="0"/>
</linearGradient>
</defs>
</svg>
