<svg width="36" height="36" viewBox="0 0 36 36" fill="none" xmlns="http://www.w3.org/2000/svg">
<circle cx="18" cy="18" r="17.5" fill="url(#paint0_linear_1413_16032)" stroke="#B9BEB7"/>
<g clip-path="url(#clip0_1413_16032)">
<path d="M10.703 16.1273C11.7117 17.8453 12.1585 19.2929 12.2148 19.4852C12.3595 19.5255 12.4976 19.5668 12.629 19.6091C12.4748 19.1411 12.0902 17.997 11.8133 17.3567C11.7997 17.3254 11.7925 17.2917 11.7919 17.2576C11.7914 17.2236 11.7976 17.1897 11.8101 17.158C11.8227 17.1263 11.8414 17.0974 11.8651 17.0729C11.8888 17.0484 11.9171 17.0289 11.9484 17.0153C11.9797 17.0018 12.0133 16.9945 12.0474 16.994C12.0815 16.9935 12.1154 16.9996 12.1471 17.0122C12.2111 17.0375 12.2624 17.0873 12.2898 17.1505C12.6526 17.988 13.169 19.591 13.1908 19.6587C13.2052 19.7048 13.2065 19.7541 13.1944 19.8008C13.6723 19.969 14.1353 20.177 14.5785 20.4225C14.7043 20.3995 14.9371 20.362 15.2394 20.336C14.6378 18.6767 15.3132 17.3252 15.6464 16.8028C13.7186 15.4464 13.0003 13.7436 12.7384 12.5336C12.5838 11.8236 12.543 11.0935 12.6175 10.3707C10.4533 10.0175 9.05586 9.27314 8.46145 8.1599C8.16118 7.5887 8.07537 6.92886 8.21957 6.29987C7.15471 6.66873 6.37828 7.26375 5.91206 8.07282C5.20336 9.30216 5.40835 10.6803 5.48878 11.0806C6.93279 11.7566 8.96939 13.1758 10.703 16.1273Z" fill="#717470"/>
<path d="M27.4614 11.9514C25.7295 11.816 24.1096 12.0524 23.5847 12.1413C23.364 13.37 22.4037 15.4756 19.2243 18.7566C19.0519 18.9344 18.8772 19.2749 18.7085 19.6032C18.3493 20.304 17.9417 21.0986 17.2421 20.9486C15.9299 20.6681 14.599 20.9486 14.5857 20.9486C14.5191 20.963 14.4496 20.9506 14.3922 20.9142C14.3825 20.9075 13.3479 20.2623 11.3723 19.8027C10.9731 19.7064 10.5624 19.6657 10.1521 19.6818C10.1345 19.7356 10.117 19.7828 10.1013 19.8233C10.0736 19.8818 10.0251 19.9278 9.96519 19.9523C9.90531 19.9767 9.83844 19.9779 9.77775 19.9555C9.71706 19.9331 9.66695 19.8888 9.63729 19.8313C9.60763 19.7739 9.60057 19.7074 9.61751 19.6449C9.63081 19.6062 9.64593 19.5627 9.66346 19.5137C9.67475 19.4799 9.67793 19.4439 9.67275 19.4086C9.66757 19.3734 9.65417 19.3398 9.63363 19.3107C9.61309 19.2816 9.58598 19.2577 9.55451 19.2409C9.52303 19.2242 9.48806 19.2151 9.45243 19.2144C9.16822 19.1956 9.08961 18.6532 9.07449 18.4936C9.06931 18.4477 9.05044 18.4044 9.02034 18.3694C8.99024 18.3343 8.95031 18.3091 8.90571 18.2971C8.86112 18.285 8.81393 18.2866 8.77027 18.3017C8.72662 18.3168 8.6885 18.3447 8.66088 18.3817C8.28839 18.8872 7.99149 19.504 7.78287 20.0144C7.54168 20.6079 7.45996 21.2541 7.54583 21.8889L7.68431 22.9078C7.68381 22.9256 7.68959 22.943 7.70066 22.957C7.71172 22.9709 7.72734 22.9805 7.74477 22.984L8.21341 23.0693C8.25075 23.0761 8.28927 23.0716 8.32406 23.0564C8.35885 23.0412 8.38832 23.016 8.40873 22.984L8.71591 22.5003C8.74606 22.4527 8.79083 22.4162 8.8435 22.3963C8.85015 22.3963 9.40345 22.1774 9.72756 21.687C9.73995 21.6687 9.74667 21.6473 9.74689 21.6252C9.74711 21.6032 9.74082 21.5816 9.72881 21.5631C9.7168 21.5446 9.69959 21.5301 9.67936 21.5214C9.65913 21.5127 9.63677 21.5101 9.61509 21.514C9.55462 21.5249 9.52378 21.5328 9.52076 21.5334C9.45468 21.5472 9.38581 21.5348 9.32877 21.4987C9.27173 21.4626 9.23102 21.4056 9.21528 21.34C9.19953 21.2743 9.21 21.2051 9.24446 21.1471C9.27892 21.089 9.33465 21.0467 9.39982 21.0291C9.49838 21.0055 11.4334 20.4292 13.2844 21.6519C13.273 21.8791 13.2915 22.1068 13.3394 22.3292C13.5275 23.1461 13.9665 24.4256 14.94 25.0503C15.35 25.3127 15.6656 25.534 15.8749 25.681L15.965 25.7414L15.9765 25.7384L16.9603 25.5497C17.1486 25.5121 17.3432 25.5202 17.5278 25.5734C17.7123 25.6265 17.8814 25.7231 18.0209 25.8551L18.6534 26.4501C18.6843 26.4787 18.7077 26.5143 18.7218 26.554C18.7358 26.5936 18.74 26.636 18.7341 26.6776C18.7281 26.7192 18.7122 26.7588 18.6876 26.7929C18.663 26.827 18.6306 26.8546 18.593 26.8734C18.5455 26.8981 18.4914 26.9072 18.4385 26.8995C18.3855 26.8918 18.3363 26.8677 18.2979 26.8305V26.8305L17.6696 26.2349C17.5901 26.1596 17.4936 26.1046 17.3884 26.0745C17.2831 26.0444 17.1722 26.0401 17.0649 26.0619L16.0768 26.2591C15.9077 26.2931 15.7577 26.3898 15.6568 26.5297C15.5559 26.6696 15.5115 26.8425 15.5326 27.0137L15.6112 27.6263C15.6266 27.7438 15.6723 27.8554 15.7437 27.9501C15.8151 28.0447 15.9099 28.1192 16.0188 28.1663L16.0399 28.1747C16.2557 28.2674 16.4394 28.4214 16.5684 28.6176C16.6974 28.8138 16.766 29.0435 16.7656 29.2783C16.7654 29.3402 16.7432 29.4001 16.7029 29.4471C16.6625 29.4941 16.6067 29.5252 16.5455 29.5347L15.8803 29.6369C15.7523 29.6559 15.6355 29.7204 15.5512 29.8186C15.4669 29.9168 15.4208 30.042 15.4213 30.1714V30.7017L15.5979 30.7507L15.6015 30.735C15.6601 30.5005 15.7967 30.2928 15.9889 30.1462C16.1811 29.9996 16.4175 29.9228 16.6592 29.9283L17.3848 29.9477L17.7337 27.6964C17.7428 27.6311 17.7756 27.5715 17.8259 27.529C17.8763 27.4865 17.9405 27.464 18.0064 27.466C18.0426 27.468 18.0779 27.4776 18.1101 27.4941C18.1423 27.5106 18.1708 27.5336 18.1935 27.5618C18.2163 27.5899 18.233 27.6225 18.2424 27.6575C18.2518 27.6924 18.2538 27.729 18.2483 27.7647L18.1564 28.3815C18.2314 28.7413 18.8439 31.4104 20.8418 32.6875C21.0262 32.7734 23.4335 33.8365 25.3135 32.2643C25.3184 32.2606 24.2922 32.9131 22.2054 32.638C20.1464 32.3664 19.9523 29.9979 19.9499 29.9773C19.9499 29.9682 19.9499 29.9592 19.9499 29.9501C19.994 25.7342 19.0695 24.8277 19.0078 24.7727C18.9785 24.7543 18.9536 24.7298 18.9346 24.7009C18.9156 24.672 18.903 24.6394 18.8977 24.6052C18.8928 24.5691 18.8957 24.5323 18.9061 24.4974C18.9165 24.4625 18.9343 24.4302 18.9582 24.4026C19.7655 23.3686 21.0027 22.7609 22.5362 22.646C23.1411 22.6025 23.749 22.6309 24.3472 22.7307C24.8703 20.1486 26.1855 18.8606 27.2147 18.233C27.8262 17.8541 28.5084 17.6037 29.2198 17.4971C29.3178 16.4691 29.6897 15.6939 30.3276 15.1847C31.0339 14.6211 31.8877 14.531 32.3987 14.5383C31.6634 13.0223 30.0053 12.1504 27.4614 11.9514ZM8.21644 22.1217C8.15934 22.1219 8.10349 22.105 8.05596 22.0734C8.00843 22.0417 7.97137 21.9967 7.94946 21.944C7.92756 21.8912 7.9218 21.8332 7.93291 21.7772C7.94402 21.7212 7.9715 21.6697 8.01187 21.6293C8.05225 21.589 8.1037 21.5615 8.15971 21.5504C8.21572 21.5393 8.27376 21.545 8.32649 21.5669C8.37922 21.5888 8.42426 21.6259 8.45591 21.6734C8.48756 21.721 8.50439 21.7768 8.50427 21.8339C8.50411 21.9102 8.47373 21.9833 8.41979 22.0373C8.36584 22.0912 8.29272 22.1216 8.21644 22.1217ZM24.5123 12.8506C24.3587 14.0473 23.4722 16.1994 20.1228 19.6552C20.0747 19.7046 20.009 19.7329 19.94 19.7338C19.8711 19.7347 19.8046 19.7082 19.7552 19.66C19.7058 19.6119 19.6775 19.5462 19.6766 19.4772C19.6757 19.4083 19.7022 19.3418 19.7503 19.2924C21.2191 17.777 23.7232 14.9162 23.9977 12.7823C24.0021 12.7485 24.0131 12.7159 24.03 12.6863C24.047 12.6568 24.0696 12.6309 24.0966 12.6101C24.1236 12.5893 24.1544 12.574 24.1873 12.5651C24.2202 12.5562 24.2545 12.5539 24.2883 12.5582C24.322 12.5626 24.3546 12.5736 24.3842 12.5905C24.4137 12.6075 24.4397 12.6301 24.4605 12.6571C24.4813 12.6841 24.4965 12.7149 24.5054 12.7478C24.5143 12.7807 24.5167 12.815 24.5123 12.8488V12.8506Z" fill="#717470"/>
</g>
<defs>
<linearGradient id="paint0_linear_1413_16032" x1="18" y1="0" x2="18" y2="36" gradientUnits="userSpaceOnUse">
<stop stop-color="#E0E6DE"/>
<stop offset="1" stop-color="#E0E6DE" stop-opacity="0"/>
</linearGradient>
<clipPath id="clip0_1413_16032">
<rect width="27.0001" height="26.8187" fill="white" transform="translate(5.39941 6.29993)"/>
</clipPath>
</defs>
</svg>
