<svg width="36" height="36" viewBox="0 0 36 36" fill="none" xmlns="http://www.w3.org/2000/svg">
<circle cx="18" cy="18" r="17.5" fill="url(#paint0_linear_1413_16041)" stroke="#B9BEB7"/>
<path fill-rule="evenodd" clip-rule="evenodd" d="M12.3583 15.6603C12.5485 15.9779 12.6495 16.3409 12.6509 16.7111V17.7748C12.6506 17.8531 12.6214 17.9286 12.5687 17.9866C12.516 18.0446 12.4437 18.081 12.3657 18.0887C12.25 18.0997 9.51315 18.3366 8.38339 16.0428C7.98498 15.2338 7.93908 14.369 7.94826 13.555V13.5281C7.94647 13.197 7.87723 12.8697 7.74476 12.5663C7.61228 12.2628 7.41935 11.9895 7.17775 11.7631C6.92174 11.5236 6.59828 11.3687 6.25123 11.3194C5.90418 11.27 5.55035 11.3285 5.23771 11.4871L5.08594 11.566L5.93478 12.3616C6.28165 12.6864 6.55751 13.0794 6.745 13.516C6.93248 13.9526 7.02753 14.4232 7.02414 14.8984C7.01374 15.8402 7.16368 16.7197 7.45805 17.4418C8.15328 19.1493 10.5921 20.0122 10.616 20.0239C10.6771 20.045 10.7303 20.0845 10.7683 20.1369C10.8062 20.1893 10.8271 20.2522 10.8281 20.3169C10.8291 20.3816 10.8102 20.445 10.7739 20.4986C10.7376 20.5522 10.6856 20.5933 10.6251 20.6163C9.98699 20.888 9.39228 21.2522 8.86014 21.6971C7.72305 22.653 7.14654 23.7864 7.14654 25.0661C7.14654 26.4125 7.79098 27.9077 9.06394 29.5184C9.22591 29.2667 9.31603 28.9755 9.32455 28.6763C9.33307 28.3771 9.25967 28.0813 9.11229 27.8208C8.64349 27.0007 8.53945 26.1108 8.81118 25.2473C9.31975 23.6335 11.1117 22.0894 14.1393 20.6573C14.1991 20.6287 14.2664 20.6197 14.3317 20.6316C14.3969 20.6435 14.4567 20.6757 14.5026 20.7235C14.5485 20.7714 14.5782 20.8325 14.5873 20.8982C14.5965 20.9639 14.5847 21.0308 14.5536 21.0894C14.5438 21.1071 13.605 22.9254 13.605 25.3593C13.597 27.0861 14.0902 28.7782 15.0248 30.2302C15.1732 30.0005 15.2714 29.742 15.3128 29.4716C15.3543 29.2013 15.3381 28.9253 15.2653 28.6616C14.9912 27.6659 14.9808 26.5502 15.2353 25.3464C15.5848 23.6971 16.4287 21.9327 17.7445 20.1022C17.7737 20.0615 17.8122 20.0284 17.8567 20.0055C17.9013 19.9826 17.9506 19.9707 18.0007 19.9707C18.0507 19.9707 18.1001 19.9826 18.1446 20.0055C18.1892 20.0284 18.2276 20.0615 18.2568 20.1022C19.5732 21.9321 20.4171 23.6971 20.766 25.3464C21.0212 26.5502 21.0108 27.6653 20.7366 28.6616C20.6903 28.8305 20.6669 29.0049 20.6668 29.18C20.6654 29.5531 20.7733 29.9184 20.9771 30.2308C22.1534 28.3875 22.6026 26.3226 22.3144 24.0863C22.0849 22.3115 21.4575 21.1016 21.4484 21.0875C21.4173 21.0289 21.4055 20.9621 21.4146 20.8964C21.4238 20.8307 21.4534 20.7696 21.4993 20.7217C21.5452 20.6738 21.605 20.6417 21.6703 20.6298C21.7355 20.6179 21.8029 20.6269 21.8627 20.6555C24.8903 22.0863 26.6834 23.6304 27.1914 25.2455C27.4631 26.109 27.3591 26.9988 26.8903 27.8159C26.7423 28.0762 26.6684 28.3722 26.6767 28.6716C26.685 28.971 26.7752 29.2624 26.9374 29.5142C28.5414 27.4848 29.1443 25.6512 28.7293 24.0588C28.1106 21.6965 25.4043 20.6316 25.3744 20.6181C25.3139 20.595 25.262 20.5539 25.2257 20.5003C25.1895 20.4467 25.1706 20.3832 25.1717 20.3185C25.1728 20.2538 25.1937 20.191 25.2317 20.1386C25.2697 20.0862 25.323 20.0468 25.3841 20.0257C25.4086 20.0171 27.8474 19.1506 28.5427 17.4437C28.8364 16.7221 28.987 15.8427 28.9766 14.9002C28.973 14.4251 29.068 13.9543 29.2555 13.5177C29.443 13.0811 29.719 12.6881 30.0659 12.3635L30.9148 11.5679L30.7593 11.4889C30.447 11.3299 30.0933 11.2711 29.7463 11.3205C29.3994 11.3699 29.0761 11.5251 28.8205 11.7649C28.5755 11.9943 28.3805 12.272 28.2479 12.5803C28.1153 12.8887 28.0479 13.2212 28.05 13.5569C28.0598 14.3708 28.0127 15.2362 27.6155 16.0447C26.4864 18.3384 23.7501 18.1016 23.6338 18.0906C23.5557 18.0831 23.4833 18.0468 23.4305 17.9887C23.3778 17.9307 23.3486 17.855 23.3486 17.7766V16.7117C23.3488 16.3435 23.4484 15.9821 23.6369 15.6658C24.2535 14.6301 24.5712 13.4439 24.5549 12.2386C24.509 8.6572 21.5744 5.76672 17.9991 5.76672H17.9379C14.3571 5.79977 11.4446 8.74043 11.4446 12.3206C11.4443 13.4956 11.7599 14.6491 12.3583 15.6603V15.6603ZM20.4043 14.5214C20.3416 14.5216 20.2802 14.5031 20.2281 14.4682C20.176 14.4334 20.1354 14.3838 20.1116 14.3258C20.0878 14.2677 20.0819 14.2039 20.0946 14.1425C20.1072 14.0811 20.1379 14.0249 20.1828 13.981C21.5457 12.6456 21.561 10.3261 21.561 10.3029C21.5591 10.2603 21.5659 10.2177 21.5809 10.1778C21.5959 10.1379 21.6188 10.1014 21.6483 10.0706C21.6778 10.0398 21.7132 10.0153 21.7524 9.99856C21.7916 9.98181 21.8338 9.97318 21.8765 9.97318C21.9191 9.97318 21.9613 9.98181 22.0005 9.99856C22.0397 10.0153 22.0751 10.0398 22.1046 10.0706C22.1341 10.1014 22.157 10.1379 22.172 10.1778C22.1871 10.2177 22.1938 10.2603 22.192 10.3029C22.192 10.4081 22.1742 12.9124 20.6246 14.4314C20.5658 14.489 20.4867 14.5213 20.4043 14.5214V14.5214ZM15.594 14.5214C15.5114 14.5215 15.4321 14.4892 15.373 14.4314C13.8228 12.9124 13.8057 10.4087 13.8057 10.3029C13.8093 10.2216 13.8441 10.1448 13.9029 10.0886C13.9616 10.0324 14.0399 10.001 14.1212 10.001C14.2025 10.001 14.2808 10.0324 14.3395 10.0886C14.3983 10.1448 14.4331 10.2216 14.4367 10.3029C14.4367 10.3365 14.4599 12.6536 15.8149 13.9816C15.8597 14.0254 15.8904 14.0816 15.9031 14.143C15.9158 14.2043 15.9099 14.2681 15.8862 14.3261C15.8624 14.3841 15.822 14.4337 15.7699 14.4686C15.7179 14.5035 15.6566 14.5221 15.594 14.522V14.5214ZM17.9991 12.7539C17.9155 12.7539 17.8354 12.7207 17.7763 12.6616C17.7172 12.6025 17.684 12.5223 17.684 12.4387V8.16699C17.684 8.0834 17.7172 8.00323 17.7763 7.94412C17.8354 7.88501 17.9155 7.85181 17.9991 7.85181C18.0827 7.85181 18.1629 7.88501 18.222 7.94412C18.2811 8.00323 18.3143 8.0834 18.3143 8.16699V12.4381C18.3143 12.5218 18.2811 12.602 18.222 12.6612C18.163 12.7204 18.0828 12.7538 17.9991 12.7539V12.7539Z" fill="#717470"/>
<path fill-rule="evenodd" clip-rule="evenodd" d="M12.3583 15.6603C12.5485 15.9779 12.6495 16.3409 12.6509 16.7111V17.7748C12.6506 17.8531 12.6214 17.9286 12.5687 17.9866C12.516 18.0446 12.4437 18.081 12.3657 18.0887C12.25 18.0997 9.51315 18.3366 8.38339 16.0428C7.98498 15.2338 7.93908 14.369 7.94826 13.555V13.5281C7.94647 13.197 7.87723 12.8697 7.74476 12.5663C7.61228 12.2628 7.41935 11.9895 7.17775 11.7631C6.92174 11.5236 6.59828 11.3687 6.25123 11.3194C5.90418 11.27 5.55035 11.3285 5.23771 11.4871L5.08594 11.566L5.93478 12.3616C6.28165 12.6864 6.55751 13.0794 6.745 13.516C6.93248 13.9526 7.02753 14.4232 7.02414 14.8984C7.01374 15.8402 7.16368 16.7197 7.45805 17.4418C8.15328 19.1493 10.5921 20.0122 10.616 20.0239C10.6771 20.045 10.7303 20.0845 10.7683 20.1369C10.8062 20.1893 10.8271 20.2522 10.8281 20.3169C10.8291 20.3816 10.8102 20.445 10.7739 20.4986C10.7376 20.5522 10.6856 20.5933 10.6251 20.6163C9.98699 20.888 9.39228 21.2522 8.86014 21.6971C7.72305 22.653 7.14654 23.7864 7.14654 25.0661C7.14654 26.4125 7.79098 27.9077 9.06394 29.5184C9.22591 29.2667 9.31603 28.9755 9.32455 28.6763C9.33307 28.3771 9.25967 28.0813 9.11229 27.8208C8.64349 27.0007 8.53945 26.1108 8.81118 25.2473C9.31975 23.6335 11.1117 22.0894 14.1393 20.6573C14.1991 20.6287 14.2664 20.6197 14.3317 20.6316C14.3969 20.6435 14.4567 20.6757 14.5026 20.7235C14.5485 20.7714 14.5782 20.8325 14.5873 20.8982C14.5965 20.9639 14.5847 21.0308 14.5536 21.0894C14.5438 21.1071 13.605 22.9254 13.605 25.3593C13.597 27.0861 14.0902 28.7782 15.0248 30.2302C15.1732 30.0005 15.2714 29.742 15.3128 29.4716C15.3543 29.2013 15.3381 28.9253 15.2653 28.6616C14.9912 27.6659 14.9808 26.5502 15.2353 25.3464C15.5848 23.6971 16.4287 21.9327 17.7445 20.1022C17.7737 20.0615 17.8122 20.0284 17.8567 20.0055C17.9013 19.9826 17.9506 19.9707 18.0007 19.9707C18.0507 19.9707 18.1001 19.9826 18.1446 20.0055C18.1892 20.0284 18.2276 20.0615 18.2568 20.1022C19.5732 21.9321 20.4171 23.6971 20.766 25.3464C21.0212 26.5502 21.0108 27.6653 20.7366 28.6616C20.6903 28.8305 20.6669 29.0049 20.6668 29.18C20.6654 29.5531 20.7733 29.9184 20.9771 30.2308C22.1534 28.3875 22.6026 26.3226 22.3144 24.0863C22.0849 22.3115 21.4575 21.1016 21.4484 21.0875C21.4173 21.0289 21.4055 20.9621 21.4146 20.8964C21.4238 20.8307 21.4534 20.7696 21.4993 20.7217C21.5452 20.6738 21.605 20.6417 21.6703 20.6298C21.7355 20.6179 21.8029 20.6269 21.8627 20.6555C24.8903 22.0863 26.6834 23.6304 27.1914 25.2455C27.4631 26.109 27.3591 26.9988 26.8903 27.8159C26.7423 28.0762 26.6684 28.3722 26.6767 28.6716C26.685 28.971 26.7752 29.2624 26.9374 29.5142C28.5414 27.4848 29.1443 25.6512 28.7293 24.0588C28.1106 21.6965 25.4043 20.6316 25.3744 20.6181C25.3139 20.595 25.262 20.5539 25.2257 20.5003C25.1895 20.4467 25.1706 20.3832 25.1717 20.3185C25.1728 20.2538 25.1937 20.191 25.2317 20.1386C25.2697 20.0862 25.323 20.0468 25.3841 20.0257C25.4086 20.0171 27.8474 19.1506 28.5427 17.4437C28.8364 16.7221 28.987 15.8427 28.9766 14.9002C28.973 14.4251 29.068 13.9543 29.2555 13.5177C29.443 13.0811 29.719 12.6881 30.0659 12.3635L30.9148 11.5679L30.7593 11.4889C30.447 11.3299 30.0933 11.2711 29.7463 11.3205C29.3994 11.3699 29.0761 11.5251 28.8205 11.7649C28.5755 11.9943 28.3805 12.272 28.2479 12.5803C28.1153 12.8887 28.0479 13.2212 28.05 13.5569C28.0598 14.3708 28.0127 15.2362 27.6155 16.0447C26.4864 18.3384 23.7501 18.1016 23.6338 18.0906C23.5557 18.0831 23.4833 18.0468 23.4305 17.9887C23.3778 17.9307 23.3486 17.855 23.3486 17.7766V16.7117C23.3488 16.3435 23.4484 15.9821 23.6369 15.6658C24.2535 14.6301 24.5712 13.4439 24.5549 12.2386C24.509 8.6572 21.5744 5.76672 17.9991 5.76672H17.9379C14.3571 5.79977 11.4446 8.74043 11.4446 12.3206C11.4443 13.4956 11.7599 14.6491 12.3583 15.6603V15.6603ZM20.4043 14.5214C20.3416 14.5216 20.2802 14.5031 20.2281 14.4682C20.176 14.4334 20.1354 14.3838 20.1116 14.3258C20.0878 14.2677 20.0819 14.2039 20.0946 14.1425C20.1072 14.0811 20.1379 14.0249 20.1828 13.981C21.5457 12.6456 21.561 10.3261 21.561 10.3029C21.5591 10.2603 21.5659 10.2177 21.5809 10.1778C21.5959 10.1379 21.6188 10.1014 21.6483 10.0706C21.6778 10.0398 21.7132 10.0153 21.7524 9.99856C21.7916 9.98181 21.8338 9.97318 21.8765 9.97318C21.9191 9.97318 21.9613 9.98181 22.0005 9.99856C22.0397 10.0153 22.0751 10.0398 22.1046 10.0706C22.1341 10.1014 22.157 10.1379 22.172 10.1778C22.1871 10.2177 22.1938 10.2603 22.192 10.3029C22.192 10.4081 22.1742 12.9124 20.6246 14.4314C20.5658 14.489 20.4867 14.5213 20.4043 14.5214V14.5214ZM15.594 14.5214C15.5114 14.5215 15.4321 14.4892 15.373 14.4314C13.8228 12.9124 13.8057 10.4087 13.8057 10.3029C13.8093 10.2216 13.8441 10.1448 13.9029 10.0886C13.9616 10.0324 14.0399 10.001 14.1212 10.001C14.2025 10.001 14.2808 10.0324 14.3395 10.0886C14.3983 10.1448 14.4331 10.2216 14.4367 10.3029C14.4367 10.3365 14.4599 12.6536 15.8149 13.9816C15.8597 14.0254 15.8904 14.0816 15.9031 14.143C15.9158 14.2043 15.9099 14.2681 15.8862 14.3261C15.8624 14.3841 15.822 14.4337 15.7699 14.4686C15.7179 14.5035 15.6566 14.5221 15.594 14.522V14.5214ZM17.9991 12.7539C17.9155 12.7539 17.8354 12.7207 17.7763 12.6616C17.7172 12.6025 17.684 12.5223 17.684 12.4387V8.16699C17.684 8.0834 17.7172 8.00323 17.7763 7.94412C17.8354 7.88501 17.9155 7.85181 17.9991 7.85181C18.0827 7.85181 18.1629 7.88501 18.222 7.94412C18.2811 8.00323 18.3143 8.0834 18.3143 8.16699V12.4381C18.3143 12.5218 18.2811 12.602 18.222 12.6612C18.163 12.7204 18.0828 12.7538 17.9991 12.7539V12.7539Z" fill="#717470"/>
<defs>
<linearGradient id="paint0_linear_1413_16041" x1="18" y1="0" x2="18" y2="36" gradientUnits="userSpaceOnUse">
<stop stop-color="#E0E6DE"/>
<stop offset="1" stop-color="#E0E6DE" stop-opacity="0"/>
</linearGradient>
</defs>
</svg>
