<svg width="36" height="36" viewBox="0 0 36 36" fill="none" xmlns="http://www.w3.org/2000/svg">
<circle cx="18" cy="18" r="17.5" fill="url(#paint0_linear_1413_16058)" stroke="#B9BEB7"/>
<path fill-rule="evenodd" clip-rule="evenodd" d="M17.5753 8.766L15.2278 12.0157H20.6116C21.1671 11.965 21.7037 11.7884 22.1807 11.4993C22.6578 11.2103 23.0627 10.8163 23.3647 10.3474C23.3805 10.3109 23.4017 10.277 23.4276 10.2469C23.6932 9.8007 23.8617 9.30356 23.9222 8.78789H17.7101C17.6636 8.78808 17.6174 8.78069 17.5733 8.766H17.5753ZM17.3277 29.4228C15.7018 29.3812 14.1069 28.9685 12.6649 28.2162C11.2291 27.4667 9.96314 26.4294 8.94598 25.169C8.67079 24.8268 8.41634 24.4684 8.184 24.0958L6.28659 24.0876C6.89603 25.3024 7.80644 26.5172 8.9282 27.5698C11.275 29.7696 14.247 31.0152 17.2942 31.0767C18.6002 31.1042 19.9024 30.9267 21.1533 30.5507C20.7365 30.1295 20.388 29.6458 20.1205 29.1171C19.2786 29.3208 18.4155 29.4234 17.5493 29.4228C17.4761 29.4228 17.403 29.4228 17.3277 29.4228ZM17.3797 26.8824C17.4372 26.8824 17.4919 26.8824 17.5493 26.8824C18.2076 26.8821 18.8635 26.804 19.5035 26.6499C19.5138 27.2048 19.6048 27.7553 19.7737 28.2839C18.9778 28.4663 18.1625 28.5502 17.3462 28.5336C14.4549 28.4755 11.5773 27.009 9.64092 24.6102C9.50412 24.4433 9.37827 24.2723 9.25583 24.0999L11.3974 24.1109C13.0158 25.8291 15.1888 26.838 17.3797 26.8817V26.8824ZM19.1389 25.8243C18.5673 25.9489 17.9831 26.0061 17.3982 25.9946C15.7196 25.9604 14.0466 25.2867 12.6881 24.1191L15.6779 24.1341H15.7094C16.3794 24.0886 17.0496 24.2211 17.6519 24.5181C18.2542 24.8152 18.7672 25.2663 19.1389 25.8256V25.8243ZM26.5891 13.896C26.5643 13.1617 26.3478 12.4467 25.9612 11.8219C25.5746 11.1971 25.0313 10.6843 24.3852 10.3344C24.7586 9.56429 24.9057 8.70397 24.8093 7.85354C26.4602 8.70131 27.8618 9.96467 28.8757 11.5191C31.9934 16.2941 30.3983 22.6868 27.2129 26.5329C26.8369 26.9865 26.4291 27.4128 25.9926 27.8086C24.5767 26.4077 24.0542 25.1451 24.4338 24.0377C24.4543 23.9823 24.4636 23.9233 24.461 23.8643C24.4584 23.8053 24.4441 23.7474 24.4188 23.694C24.3936 23.6406 24.3579 23.5928 24.3139 23.5534C24.2699 23.514 24.2184 23.4838 24.1626 23.4645C24.1067 23.4453 24.0476 23.4374 23.9886 23.4414C23.9297 23.4453 23.8721 23.461 23.8193 23.4875C23.7665 23.514 23.7196 23.5508 23.6812 23.5957C23.6428 23.6406 23.6138 23.6927 23.5959 23.749V23.749C23.2211 24.8379 23.4632 26.0062 24.3168 27.2142C24.7096 27.7559 25.1567 28.256 25.6513 28.7067C25.6699 28.7278 25.6907 28.7469 25.7136 28.7634C26.3971 29.3834 27.1233 29.9548 27.8866 30.4734C27.1629 30.9746 26.3148 31.266 25.4359 31.3154C24.557 31.3648 23.6816 31.1703 22.9063 30.7533C22.131 30.3364 21.4861 29.7133 21.0428 28.9528C20.5994 28.1923 20.3749 27.3241 20.3941 26.444C20.3963 26.3867 20.3865 26.3296 20.3654 26.2764C20.0085 25.3366 19.3604 24.5355 18.5158 23.9903C17.6713 23.445 16.6745 23.184 15.6711 23.2456L5.89671 23.1984C5.65665 22.5883 5.50754 21.9462 5.45416 21.2928C5.36798 20.0465 5.71476 18.4918 7.84064 18.1416H23.3025C23.3384 18.1421 23.3743 18.1377 23.4092 18.1286C24.3434 17.8933 25.1688 17.3448 25.7475 16.5745C26.3262 15.8043 26.6232 14.8588 26.5891 13.896V13.896ZM11.8831 20.0137C11.8831 19.926 11.8571 19.8402 11.8084 19.7672C11.7596 19.6942 11.6904 19.6373 11.6094 19.6037C11.5283 19.5701 11.4391 19.5612 11.3531 19.5782C11.267 19.5952 11.1879 19.6374 11.1257 19.6993C11.0636 19.7613 11.0212 19.8402 11.0039 19.9263C10.9867 20.0123 10.9953 20.1015 11.0286 20.1826C11.062 20.2638 11.1187 20.3332 11.1915 20.3821C11.2644 20.4311 11.3501 20.4573 11.4378 20.4576C11.4962 20.4577 11.554 20.4463 11.608 20.424C11.662 20.4018 11.711 20.3691 11.7524 20.3279C11.7937 20.2867 11.8265 20.2377 11.849 20.1838C11.8714 20.1299 11.883 20.0721 11.8831 20.0137V20.0137ZM17.7087 7.9069H23.9201C23.8948 7.68361 23.849 7.46312 23.7833 7.2482C23.7739 7.22601 23.7661 7.20314 23.76 7.1798C23.5353 6.50147 23.1173 5.90359 22.5573 5.45967C21.9974 5.01576 21.3199 4.74516 20.6082 4.68115H15.2278L17.5753 7.93084C17.6193 7.91561 17.6656 7.90798 17.7121 7.90826L17.7087 7.9069Z" fill="#717470"/>
<defs>
<linearGradient id="paint0_linear_1413_16058" x1="18" y1="0" x2="18" y2="36" gradientUnits="userSpaceOnUse">
<stop stop-color="#E0E6DE"/>
<stop offset="1" stop-color="#E0E6DE" stop-opacity="0"/>
</linearGradient>
</defs>
</svg>
